// Created by Crowbar 0.74
version 1
nodes
  0 "versus_doors_jnt_root" -1
  1 "RDoor_JNT" 0
  2 "LDoor_JNT" 0
  3 "comp_logo" 2
end
skeleton
  time 0
    0 0.004398 -0.002971 0.097507 1.570850 -0.000077 -0.000005
    1 -229.875492 80.000206 0.000058 0.000000 0.000000 0.000000
    2 227.918134 80.000359 0.003006 -3.141593 0.003585 3.141593
    3 41.490795 -7.364998 6.672363 -0.000537 -0.003541 -3.004495
  time 1
    0 0.004398 -0.002971 0.097507 1.570850 -0.000077 -0.000005
    1 -229.864041 80.000206 0.000058 0.000000 0.000000 0.000000
    2 227.906745 80.000359 0.003006 -3.141593 0.003585 3.141593
    3 41.490795 -7.364998 6.672363 -0.000537 -0.003541 -3.004495
  time 2
    0 0.004398 -0.002971 0.097507 1.570850 -0.000077 -0.000005
    1 -226.915487 80.000206 0.000058 0.000000 0.000000 0.000000
    2 224.974219 80.000359 0.003006 -3.141593 0.003585 3.141593
    3 41.490795 -7.364998 6.672363 -0.000537 -0.003541 -3.004495
  time 3
    0 0.004398 -0.002971 0.097507 1.570850 -0.000077 -0.000005
    1 -218.596554 80.000206 0.000058 0.000000 0.000000 0.000000
    2 216.700508 80.000359 0.003006 -3.141593 0.003585 3.141593
    3 41.490795 -7.364998 6.672363 -0.000537 -0.003541 -3.004495
  time 4
    0 0.004398 -0.002971 0.097507 1.570850 -0.000077 -0.000005
    1 -205.731694 80.000206 0.000058 0.000000 0.000000 0.000000
    2 203.905581 80.000359 0.003006 -3.141593 0.003585 3.141593
    3 41.490795 -7.364998 6.672363 -0.000537 -0.003541 -3.004495
  time 5
    0 0.004398 -0.002971 0.097507 1.570850 -0.000077 -0.000005
    1 -189.277040 80.000206 0.000058 0.000000 0.000000 0.000000
    2 187.540375 80.000359 0.003006 -3.141593 0.003585 3.141593
    3 41.490795 -7.364998 6.672363 -0.000537 -0.003541 -3.004495
  time 6
    0 0.004398 -0.002971 0.097507 1.570850 -0.000077 -0.000005
    1 -169.965437 80.000206 0.000058 0.000000 0.000000 0.000000
    2 168.339443 80.000359 0.003006 -3.141593 0.003585 3.141593
    3 41.490795 -7.364998 6.672363 -0.000537 -0.003541 -3.004495
  time 7
    0 0.004398 -0.002971 0.097507 1.570850 -0.000077 -0.000005
    1 -148.632786 80.000206 0.000058 0.000000 0.000000 0.000000
    2 147.117062 80.000359 0.003006 -3.141593 0.003585 3.141593
    3 41.490795 -7.364998 6.672363 -0.000537 -0.003541 -3.004495
  time 8
    0 0.004398 -0.002971 0.097507 1.570850 -0.000077 -0.000005
    1 -126.269571 80.000206 0.000058 0.000000 0.000000 0.000000
    2 124.881108 80.000359 0.003006 -3.141593 0.003585 3.141593
    3 41.490795 -7.364998 6.672363 -0.000537 -0.003541 -3.004495
  time 9
    0 0.004398 -0.002971 0.097507 1.570850 -0.000077 -0.000005
    1 -103.580012 80.000206 0.000058 0.000000 0.000000 0.000000
    2 102.309195 80.000359 0.003006 -3.141593 0.003585 3.141593
    3 41.490795 -7.364998 6.672363 -0.000537 -0.003541 -3.004495
  time 10
    0 0.004398 -0.002971 0.097507 1.570850 -0.000077 -0.000005
    1 -81.400009 80.000206 0.000058 0.000000 0.000000 0.000000
    2 80.255456 80.000359 0.003006 -3.141593 0.003585 3.141593
    3 41.490795 -7.364998 6.672363 -0.000537 -0.003541 -3.004782
  time 11
    0 0.004398 -0.002971 0.097507 1.570850 -0.000077 -0.000005
    1 -60.731498 80.000206 0.000058 0.000000 0.000000 0.000000
    2 59.699299 80.000359 0.003006 -3.141593 0.003585 3.141593
    3 41.490795 -7.364998 6.672363 -0.000178 -0.003577 -3.106827
  time 12
    0 -5.452800 0.028280 1.203010 1.570802 0.013933 -0.000005
    1 -42.267246 80.000206 0.000058 0.000000 0.000000 0.000000
    2 41.335419 80.000359 0.003006 -3.141593 0.003585 3.141593
    3 41.490795 -7.364998 6.672363 0.000182 -0.003577 3.073941
  time 13
    0 2.902924 0.063437 0.062350 1.570850 0.003146 -0.000005
    1 -42.421831 80.000206 0.000058 0.000000 0.000000 0.000000
    2 41.449303 80.000359 0.003006 -3.141593 0.003585 3.141593
    3 41.490795 -7.364998 6.672363 -0.001844 -0.003073 -2.615824
  time 14
    0 0.711450 0.008748 -1.070497 1.570850 -0.007580 -0.000005
    1 -42.519162 80.000206 0.000058 0.000000 0.000000 0.000000
    2 41.568882 80.000359 0.003006 -3.141593 0.003585 3.141593
    3 41.490795 -7.364998 6.672363 -0.001580 -0.003217 -2.698263
  time 15
    0 -1.483929 -0.042035 -0.351725 1.570850 -0.001372 -0.000005
    1 -42.490535 80.000206 0.000058 0.000000 0.000000 0.000000
    2 41.625824 80.000359 0.003006 -3.141593 0.003585 3.141593
    3 41.490795 -7.364998 6.672363 -0.000873 -0.003481 -2.910961
  time 16
    0 -0.472179 -0.018597 0.359234 1.570850 0.004812 -0.000005
    1 -42.421831 80.000206 0.000058 0.000000 0.000000 0.000000
    2 41.580270 80.000359 0.003006 -3.141593 0.003585 3.141593
    3 41.490795 -7.364998 6.672363 0.000218 -0.003577 3.064090
  time 17
    0 0.527851 -0.002971 0.226418 1.570850 0.003362 -0.000005
    1 -42.341676 80.000206 0.000058 0.000000 0.000000 0.000000
    2 41.477774 80.000359 0.003006 -3.141593 0.003585 3.141593
    3 41.490795 -7.364998 6.672363 0.001524 -0.003241 2.685844
  time 18
    0 0.266124 -0.002971 0.097507 1.570850 0.001756 -0.000005
    1 -42.267246 80.000206 0.000058 0.000000 0.000000 0.000000
    2 41.380973 80.000359 0.003006 -3.141593 0.003585 3.141593
    3 41.490795 -7.364998 6.672363 0.002758 -0.002294 2.250119
  time 19
    0 0.004398 -0.002971 0.097507 1.570850 0.000450 -0.000005
    1 -42.267246 80.000206 0.000058 0.000000 0.000000 0.000000
    2 41.335419 80.000359 0.003006 -3.141593 0.003585 3.141593
    3 41.490795 -7.364998 6.672363 0.003501 -0.000748 1.767723
  time 20
    0 0.004398 -0.002971 0.097507 1.570850 -0.000077 -0.000005
    1 -42.267246 80.000206 0.000058 0.000000 0.000000 0.000000
    2 41.335419 80.000359 0.003006 -3.141593 0.003585 3.141593
    3 41.490795 -7.364998 6.672363 0.003418 0.001085 1.250802
  time 21
    0 0.004398 -0.002971 0.097507 1.570850 -0.000077 -0.000005
    1 -42.267246 80.000206 0.000058 0.000000 0.000000 0.000000
    2 41.335419 80.000359 0.003006 -3.141593 0.003585 3.141593
    3 41.490795 -7.364998 6.672363 0.002351 0.002715 0.702512
  time 22
    0 0.004398 -0.002971 0.097507 1.570850 -0.000077 -0.000005
    1 -42.267246 80.000206 0.000058 0.000000 0.000000 0.000000
    2 41.335419 80.000359 0.003006 -3.141593 0.003585 3.141593
    3 41.490795 -7.364998 6.672363 0.000505 0.003554 0.128018
  time 23
    0 0.004398 -0.002971 0.097507 1.570850 -0.000077 -0.000005
    1 -42.267246 80.000206 0.000058 0.000000 0.000000 0.000000
    2 41.335419 80.000359 0.003006 -3.141593 0.003585 3.141593
    3 41.490795 -7.364998 6.672363 -0.001556 0.003243 -0.463405
  time 24
    0 0.004398 -0.002971 0.097507 1.570850 -0.000077 -0.000005
    1 -42.267246 80.000206 0.000058 0.000000 0.000000 0.000000
    2 41.335419 80.000359 0.003006 -3.141593 0.003585 3.141593
    3 41.490795 -7.364998 6.672363 -0.003126 0.001769 -1.071851
  time 25
    0 0.004398 -0.002971 0.097507 1.570850 -0.000077 -0.000005
    1 -42.267246 80.000206 0.000058 0.000000 0.000000 0.000000
    2 41.335419 80.000359 0.003006 -3.141593 0.003585 3.141593
    3 41.490795 -7.364998 6.672363 -0.003569 -0.000377 -1.693400
  time 26
    0 0.004398 -0.002971 0.097507 1.570850 -0.000077 -0.000005
    1 -42.267246 80.000206 0.000058 0.000000 0.000000 0.000000
    2 41.335419 80.000359 0.003006 -3.141593 0.003585 3.141593
    3 41.490795 -7.364998 6.672363 -0.002659 -0.002402 -2.319539
  time 27
    0 0.004398 -0.002971 0.097507 1.570850 -0.000077 -0.000005
    1 -42.267246 80.000206 0.000058 0.000000 0.000000 0.000000
    2 41.335419 80.000359 0.003006 -3.141593 0.003585 3.141593
    3 41.490795 -7.364998 6.672363 -0.000729 -0.003505 -2.950555
  time 28
    0 0.004398 -0.002971 0.097507 1.570850 -0.000077 -0.000005
    1 -42.267246 80.000206 0.000058 0.000000 0.000000 0.000000
    2 41.335419 80.000359 0.003006 -3.141593 0.003585 3.141593
    3 41.490795 -7.364998 6.672363 0.001476 -0.003265 2.701146
  time 29
    0 0.004398 -0.002971 0.097507 1.570850 -0.000077 -0.000005
    1 -42.267246 80.000206 0.000058 0.000000 0.000000 0.000000
    2 41.335419 80.000359 0.003006 -3.141593 0.003585 3.141593
    3 41.490795 -7.364998 6.672363 0.003106 -0.001791 2.079310
  time 30
    0 0.004398 -0.002971 0.097507 1.570850 -0.000077 -0.000005
    1 -42.267246 80.000206 0.000058 0.000000 0.000000 0.000000
    2 41.335419 80.000359 0.003006 -3.141593 0.003585 3.141593
    3 41.490795 -7.364998 6.672363 0.003573 0.000318 1.469621
  time 31
    0 0.004398 -0.002971 0.097507 1.570850 -0.000077 -0.000005
    1 -42.267246 80.000206 0.000058 0.000000 0.000000 0.000000
    2 41.335419 80.000359 0.003006 -3.141593 0.003585 3.141593
    3 41.490795 -7.364998 6.672363 0.002794 0.002248 0.881833
  time 32
    0 0.004398 -0.002971 0.097507 1.570850 -0.000077 -0.000005
    1 -42.267246 80.000206 0.000058 0.000000 0.000000 0.000000
    2 41.335419 80.000359 0.003006 -3.141593 0.003585 3.141593
    3 41.490795 -7.364998 6.672363 0.001224 0.003374 0.334595
  time 33
    0 0.004398 -0.002971 0.097507 1.570850 -0.000077 -0.000005
    1 -42.267246 80.000206 0.000058 0.000000 0.000000 0.000000
    2 41.335419 80.000359 0.003006 -3.141593 0.003585 3.141593
    3 41.490795 -7.364998 6.672363 -0.000477 0.003566 -0.150096
  time 34
    0 0.004398 -0.002971 0.097507 1.570850 -0.000077 -0.000005
    1 -42.267246 80.000206 0.000058 0.000000 0.000000 0.000000
    2 41.335419 80.000359 0.003006 -3.141593 0.003585 3.141593
    3 41.490795 -7.364998 6.672363 -0.000262 0.003590 -0.091088
  time 35
    0 0.004398 -0.002971 0.097507 1.570850 -0.000077 -0.000005
    1 -42.267246 80.000206 0.000058 0.000000 0.000000 0.000000
    2 41.335419 80.000359 0.003006 -3.141593 0.003585 3.141593
    3 41.490795 -7.364998 6.672363 -0.000094 0.003590 -0.043939
  time 36
    0 0.004398 -0.002971 0.097507 1.570850 -0.000077 -0.000005
    1 -42.267246 80.000206 0.000058 0.000000 0.000000 0.000000
    2 41.335419 80.000359 0.003006 -3.141593 0.003585 3.141593
    3 41.490795 -7.364998 6.672363 0.000026 0.003590 -0.007405
  time 37
    0 0.004398 -0.002971 0.097507 1.570850 -0.000077 -0.000005
    1 -42.267246 80.000206 0.000058 0.000000 0.000000 0.000000
    2 41.335419 80.000359 0.003006 -3.141593 0.003585 3.141593
    3 41.490795 -7.364998 6.672363 0.000122 0.003590 0.019756
  time 38
    0 0.004398 -0.002971 0.097507 1.570850 -0.000077 -0.000005
    1 -42.267246 80.000206 0.000058 0.000000 0.000000 0.000000
    2 41.335419 80.000359 0.003006 -3.141593 0.003585 3.141593
    3 41.490795 -7.364998 6.672363 0.000182 0.003590 0.038214
  time 39
    0 0.004398 -0.002971 0.097507 1.570850 -0.000077 -0.000005
    1 -42.267246 80.000206 0.000058 0.000000 0.000000 0.000000
    2 41.335419 80.000359 0.003006 -3.141593 0.003585 3.141593
    3 41.490795 -7.364998 6.672363 0.000230 0.003590 0.049308
  time 40
    0 0.004398 -0.002971 0.097507 1.570850 -0.000077 -0.000005
    1 -42.267246 80.000206 0.000058 0.000000 0.000000 0.000000
    2 41.335419 80.000359 0.003006 -3.141593 0.003585 3.141593
    3 41.490795 -7.364998 6.672363 0.000242 0.003590 0.053898
  time 41
    0 0.004398 -0.002971 0.097507 1.570850 -0.000077 -0.000005
    1 -42.267246 80.000206 0.000058 0.000000 0.000000 0.000000
    2 41.335419 80.000359 0.003006 -3.141593 0.003585 3.141593
    3 41.490795 -7.364998 6.672363 0.000242 0.003590 0.053038
  time 42
    0 0.004398 -0.002971 0.097507 1.570850 -0.000077 -0.000005
    1 -42.267246 80.000206 0.000058 0.000000 0.000000 0.000000
    2 41.335419 80.000359 0.003006 -3.141593 0.003585 3.141593
    3 41.490795 -7.364998 6.672363 0.000218 0.003590 0.047778
  time 43
    0 0.004398 -0.002971 0.097507 1.570850 -0.000077 -0.000005
    1 -42.267246 80.000206 0.000058 0.000000 0.000000 0.000000
    2 41.335419 80.000359 0.003006 -3.141593 0.003585 3.141593
    3 41.490795 -7.364998 6.672363 0.000194 0.003590 0.038979
  time 44
    0 0.004398 -0.002971 0.097507 1.570850 -0.000077 -0.000005
    1 -42.267246 80.000206 0.000058 0.000000 0.000000 0.000000
    2 41.335419 80.000359 0.003006 -3.141593 0.003585 3.141593
    3 41.490795 -7.364998 6.672363 0.000146 0.003590 0.027981
  time 45
    0 0.004398 -0.002971 0.097507 1.570850 -0.000077 -0.000005
    1 -42.267246 80.000206 0.000058 0.000000 0.000000 0.000000
    2 41.335419 80.000359 0.003006 -3.141593 0.003585 3.141593
    3 41.490795 -7.364998 6.672363 0.000110 0.003590 0.015548
  time 46
    0 0.004398 -0.002971 0.097507 1.570850 -0.000077 -0.000005
    1 -42.267246 80.000206 0.000058 0.000000 0.000000 0.000000
    2 41.335419 80.000359 0.003006 -3.141593 0.003585 3.141593
    3 41.490795 -7.364998 6.672363 0.000062 0.003590 0.002732
  time 47
    0 0.004398 -0.002971 0.097507 1.570850 -0.000077 -0.000005
    1 -42.267246 80.000206 0.000058 0.000000 0.000000 0.000000
    2 41.335419 80.000359 0.003006 -3.141593 0.003585 3.141593
    3 41.490795 -7.364998 6.672363 0.000014 0.003590 -0.009222
  time 48
    0 0.004398 -0.002971 0.097507 1.570850 -0.000077 -0.000005
    1 -42.267246 80.000206 0.000058 0.000000 0.000000 0.000000
    2 41.335419 80.000359 0.003006 -3.141593 0.003585 3.141593
    3 41.490795 -7.364998 6.672363 -0.000022 0.003590 -0.019647
  time 49
    0 0.004398 -0.002971 0.097507 1.570850 -0.000077 -0.000005
    1 -42.267246 80.000206 0.000058 0.000000 0.000000 0.000000
    2 41.335419 80.000359 0.003006 -3.141593 0.003585 3.141593
    3 41.490795 -7.364998 6.672363 -0.000046 0.003590 -0.027202
  time 50
    0 0.004398 -0.002971 0.097507 1.570850 -0.000077 -0.000005
    1 -42.267246 80.000206 0.000058 0.000000 0.000000 0.000000
    2 41.335419 80.000359 0.003006 -3.141593 0.003585 3.141593
    3 41.490795 -7.364998 6.672363 -0.000058 0.003590 -0.031028
end
