// Created by Crowbar 0.74
version 1
nodes
  0 "base" -1
  1 "doorhinge" 0
  2 "doorhandle" 1
  3 "light1" 0
end
skeleton
  time 0
    0 0.000000 0.000000 0.000000 1.570796 0.000000 0.000000
    1 -46.661724 31.972027 -5.996205 0.000000 0.000000 0.000000
    2 18.079386 -2.476408 1.115959 0.000000 0.000000 0.000000
    3 5.276351 42.659306 6.000000 0.000000 0.000000 0.000000
end
triangles
arena_objects
  0 -24.771429 5.997534 20.859186 0.000000 -1.000000 0.000000 0.537377 0.023085 1 0 1.000000
  0 -24.764660 5.997534 23.329576 0.000000 -1.000000 0.000000 0.504654 0.023178 1 0 1.000000
  0 -27.008949 5.997534 20.859846 0.000000 -1.000000 0.000000 0.537028 0.001405 1 0 1.000000
arena_objects
  0 -46.646988 5.997534 15.430038 0.000000 -1.000000 0.000000 0.044504 0.236298 1 0 1.000000
  1 -46.029724 5.997534 12.834419 0.000000 -1.000000 0.000000 0.052188 0.205733 1 1 1.000000
  1 -46.029724 5.997534 15.429958 0.000000 -1.000000 0.000000 0.049987 0.236140 1 1 1.000000
arena_objects
  0 -46.646988 5.997534 15.430038 0.000000 -1.000000 0.000000 0.044504 0.236298 1 0 1.000000
  0 -46.633808 5.997534 12.834419 0.000000 -1.000000 0.000000 0.044943 0.205618 1 0 1.000000
  1 -46.029724 5.997534 12.834419 0.000000 -1.000000 0.000000 0.052188 0.205733 1 1 1.000000
arena_objects
  0 -46.737629 5.997533 33.282146 0.000229 -0.999999 0.000869 0.038234 0.496392 1 0 1.000000
  1 -46.156334 5.997533 30.623358 0.000000 -1.000000 0.000000 0.046073 0.462448 1 1 1.000000
  1 -46.093029 5.997533 33.345509 0.000229 -0.999999 0.000869 0.046417 0.497141 1 1 1.000000
arena_objects
  0 -46.737629 5.997533 33.282146 0.000229 -0.999999 0.000869 0.038234 0.496392 1 0 1.000000
  0 -46.724129 5.997533 30.623358 0.000000 -1.000000 0.000000 0.038495 0.462323 1 0 1.000000
  1 -46.156334 5.997533 30.623358 0.000000 -1.000000 0.000000 0.046073 0.462448 1 1 1.000000
arena_objects
  0 -46.832771 5.997532 52.021152 0.017299 -0.999842 -0.003997 0.037038 0.765675 1 0 1.000000
  1 -46.159012 6.063386 49.451122 0.016911 -0.999846 -0.004637 0.044807 0.737285 1 1 1.000000
  1 -46.219643 5.997532 51.957424 0.016682 -0.999846 -0.005506 0.044098 0.764839 1 1 1.000000
arena_objects
  0 -46.832771 5.997532 52.021152 0.017299 -0.999842 -0.003997 0.037038 0.765675 1 0 1.000000
  0 -46.819271 5.997532 49.361885 0.017528 -0.999841 -0.003127 0.037378 0.736466 1 0 1.000000
  1 -46.159012 6.063386 49.451122 0.016911 -0.999846 -0.004637 0.044807 0.737285 1 1 1.000000
arena_objects
  0 -24.739288 5.997533 32.590378 0.000000 -1.000000 0.000000 0.360555 0.489813 1 0 1.000000
  0 -24.669001 5.997532 58.245441 0.000000 -1.000000 0.000000 0.360555 0.865679 1 0 1.000000
  0 -26.784750 5.997532 56.642056 0.000000 -1.000000 0.000000 0.330741 0.842021 1 0 1.000000
arena_objects
  0 -49.341293 5.997532 58.245441 0.000000 -1.000000 0.000000 0.000240 0.865679 1 0 1.000000
  0 -26.784750 5.997532 56.642056 0.000000 -1.000000 0.000000 0.330741 0.842021 1 0 1.000000
  0 -24.669001 5.997532 58.245441 0.000000 -1.000000 0.000000 0.360555 0.865679 1 0 1.000000
arena_objects
  0 -49.341293 5.997532 58.245441 0.000000 -1.000000 0.000000 0.000240 0.865679 1 0 1.000000
  0 -46.916004 5.997532 56.705360 0.000000 -1.000000 0.000000 0.036150 0.842794 1 0 1.000000
  0 -26.784750 5.997532 56.642056 0.000000 -1.000000 0.000000 0.330741 0.842021 1 0 1.000000
arena_objects
  0 -24.739288 5.997533 32.590378 0.000000 -1.000000 0.000000 0.360555 0.489813 1 0 1.000000
  0 -27.008949 5.997534 20.859846 0.000000 -1.000000 0.000000 0.327425 0.317952 1 0 1.000000
  0 -24.764660 5.997534 23.329576 0.000000 -1.000000 0.000000 0.360555 0.354136 1 0 1.000000
arena_objects
  0 -24.739288 5.997533 32.590378 0.000000 -1.000000 0.000000 0.360555 0.489813 1 0 1.000000
  0 -26.784750 5.997532 56.642056 0.000000 -1.000000 0.000000 0.330741 0.842021 1 0 1.000000
  0 -27.008949 5.997534 20.859846 0.000000 -1.000000 0.000000 0.327425 0.317952 1 0 1.000000
arena_objects
  0 -27.008949 5.997534 20.859846 0.000000 -1.000000 0.000000 0.327425 0.317952 1 0 1.000000
  0 -26.784750 5.997532 56.642056 0.000000 -1.000000 0.000000 0.330741 0.842021 1 0 1.000000
  0 -27.176565 5.997532 56.233131 0.000000 -1.000000 0.000000 0.325159 0.836832 1 0 1.000000
arena_objects
  0 -46.916004 5.997532 56.705360 0.000000 -1.000000 0.000000 0.036150 0.842794 1 0 1.000000
  0 -27.176565 5.997532 56.233131 0.000000 -1.000000 0.000000 0.325159 0.836832 1 0 1.000000
  0 -26.784750 5.997532 56.642056 0.000000 -1.000000 0.000000 0.330741 0.842021 1 0 1.000000
arena_objects
  0 -46.916004 5.997532 56.705360 0.000000 -1.000000 0.000000 0.036150 0.842794 1 0 1.000000
  0 -46.852699 5.997532 56.227142 0.000000 -1.000000 0.000000 0.037246 0.836760 1 0 1.000000
  0 -27.176565 5.997532 56.233131 0.000000 -1.000000 0.000000 0.325159 0.836832 1 0 1.000000
arena_objects
  0 -49.341293 5.997532 58.245441 0.000000 -1.000000 0.000000 0.000240 0.865679 1 0 1.000000
  0 -46.852699 5.997532 56.227142 0.000000 -1.000000 0.000000 0.037246 0.836760 1 0 1.000000
  0 -46.916004 5.997532 56.705360 0.000000 -1.000000 0.000000 0.036150 0.842794 1 0 1.000000
arena_objects
  0 -49.341293 5.997532 58.245441 0.000000 -1.000000 0.000000 0.000240 0.865679 1 0 1.000000
  0 -46.832771 5.997532 52.021152 0.017299 -0.999842 -0.003997 0.036991 0.774489 1 0 1.000000
  0 -46.852699 5.997532 56.227142 0.000000 -1.000000 0.000000 0.037246 0.836760 1 0 1.000000
arena_objects
  0 -49.341293 5.997532 58.245441 0.000000 -1.000000 0.000000 0.000240 0.865679 1 0 1.000000
  0 -46.819271 5.997532 49.361885 0.017528 -0.999841 -0.003127 0.037189 0.735528 1 0 1.000000
  0 -46.832771 5.997532 52.021152 0.017299 -0.999842 -0.003997 0.036991 0.774489 1 0 1.000000
arena_objects
  0 -49.341293 5.997532 58.245441 0.000000 -1.000000 0.000000 0.000240 0.865679 1 0 1.000000
  0 -46.737629 5.997533 33.282146 0.000229 -0.999999 0.000869 0.038385 0.499948 1 0 1.000000
  0 -46.819271 5.997532 49.361885 0.017528 -0.999841 -0.003127 0.037189 0.735528 1 0 1.000000
arena_objects
  0 -49.341293 5.997532 58.245441 0.000000 -1.000000 0.000000 0.000240 0.865679 1 0 1.000000
  0 -46.724129 5.997533 30.623358 0.000000 -1.000000 0.000000 0.038583 0.460995 1 0 1.000000
  0 -46.737629 5.997533 33.282146 0.000229 -0.999999 0.000869 0.038385 0.499948 1 0 1.000000
arena_objects
  0 -49.341293 5.997532 58.245441 0.000000 -1.000000 0.000000 0.000240 0.865679 1 0 1.000000
  0 -46.646988 5.997534 15.430038 0.000000 -1.000000 0.000000 0.039713 0.238401 1 0 1.000000
  0 -46.724129 5.997533 30.623358 0.000000 -1.000000 0.000000 0.038583 0.460995 1 0 1.000000
arena_objects
  0 -49.341293 5.997532 58.245441 0.000000 -1.000000 0.000000 0.000240 0.865679 1 0 1.000000
  0 -46.633808 5.997534 12.834419 0.000000 -1.000000 0.000000 0.039906 0.200374 1 0 1.000000
  0 -46.646988 5.997534 15.430038 0.000000 -1.000000 0.000000 0.039713 0.238401 1 0 1.000000
arena_objects
  0 -49.341293 5.997532 58.245441 0.000000 -1.000000 0.000000 0.000240 0.865679 1 0 1.000000
  0 -46.599476 5.997534 6.072815 0.000000 -1.000000 0.000000 0.040409 0.101311 1 0 1.000000
  0 -46.633808 5.997534 12.834419 0.000000 -1.000000 0.000000 0.039906 0.200374 1 0 1.000000
arena_objects
  0 -49.341293 5.997532 58.245441 0.000000 -1.000000 0.000000 0.000240 0.865679 1 0 1.000000
  0 -49.056194 5.997534 6.072815 0.000000 -1.000000 0.000000 0.004417 0.101311 1 0 1.000000
  0 -46.599476 5.997534 6.072815 0.000000 -1.000000 0.000000 0.040409 0.101311 1 0 1.000000
arena_objects
  0 -24.811939 5.997534 6.072815 0.000000 -1.000000 0.000000 0.360555 0.101311 1 0 1.000000
  0 -24.771429 5.997534 20.859186 0.000000 -1.000000 0.000000 0.360555 0.317943 1 0 1.000000
  0 -27.008949 5.997534 20.859846 0.000000 -1.000000 0.000000 0.327425 0.317952 1 0 1.000000
arena_objects
  0 -24.811939 5.997534 6.072815 0.000000 -1.000000 0.000000 0.360555 0.101311 1 0 1.000000
  0 -27.008949 5.997534 20.859846 0.000000 -1.000000 0.000000 0.327425 0.317952 1 0 1.000000
  0 -27.101601 5.997534 6.072815 0.000000 -1.000000 0.000000 0.326068 0.101311 1 0 1.000000
arena_objects
  0 -27.008949 5.997534 20.859846 0.000000 -1.000000 0.000000 0.327425 0.317952 1 0 1.000000
  0 -27.544420 5.997534 6.072815 0.000000 -1.000000 0.000000 0.319580 0.101311 1 0 1.000000
  0 -27.101601 5.997534 6.072815 0.000000 -1.000000 0.000000 0.326068 0.101311 1 0 1.000000
arena_objects
  0 -27.008949 5.997534 20.859846 0.000000 -1.000000 0.000000 0.327425 0.317952 1 0 1.000000
  0 -27.390182 5.997533 35.225750 0.000000 -1.000000 0.000000 0.321840 0.528423 1 0 1.000000
  0 -27.544420 5.997534 6.072815 0.000000 -1.000000 0.000000 0.319580 0.101311 1 0 1.000000
arena_objects
  0 -27.008949 5.997534 20.859846 0.000000 -1.000000 0.000000 0.327425 0.317952 1 0 1.000000
  0 -27.327168 5.997533 44.232651 0.000000 -1.000000 0.000000 0.322763 0.660381 1 0 1.000000
  0 -27.390182 5.997533 35.225750 0.000000 -1.000000 0.000000 0.321840 0.528423 1 0 1.000000
arena_objects
  0 -27.008949 5.997534 20.859846 0.000000 -1.000000 0.000000 0.327425 0.317952 1 0 1.000000
  0 -27.176565 5.997532 56.233131 0.000000 -1.000000 0.000000 0.325159 0.836832 1 0 1.000000
  0 -27.327168 5.997533 44.232651 0.000000 -1.000000 0.000000 0.322763 0.660381 1 0 1.000000
arena_objects
  2 -29.710936 5.021895 28.601994 0.000000 -1.000000 0.000000 0.112184 0.977115 1 2 1.000000
  2 -30.025476 5.021895 29.122007 0.000000 -1.000000 0.000000 0.112184 0.985167 1 2 1.000000
  2 -29.902437 5.021895 28.841295 0.000000 -1.000000 0.000000 0.111654 0.981141 1 2 1.000000
arena_objects
  2 -29.710936 5.021895 28.601994 0.000000 -1.000000 0.000000 0.112184 0.977115 1 2 1.000000
  2 -30.071671 5.021895 29.425001 0.000000 -1.000000 0.000000 0.113738 0.988919 1 2 1.000000
  2 -30.025476 5.021895 29.122007 0.000000 -1.000000 0.000000 0.112184 0.985167 1 2 1.000000
arena_objects
  2 -29.710936 5.021895 28.601994 0.000000 -1.000000 0.000000 0.112184 0.977115 1 2 1.000000
  2 -30.037870 5.021895 29.729624 0.000000 -1.000000 0.000000 0.116210 0.992140 1 2 1.000000
  2 -30.071671 5.021895 29.425001 0.000000 -1.000000 0.000000 0.113738 0.988919 1 2 1.000000
arena_objects
  2 -29.710936 5.021895 28.601994 0.000000 -1.000000 0.000000 0.112184 0.977115 1 2 1.000000
  2 -29.926378 5.021895 30.015120 0.000000 -1.000000 0.000000 0.119432 0.994612 1 2 1.000000
  2 -30.037870 5.021895 29.729624 0.000000 -1.000000 0.000000 0.116210 0.992140 1 2 1.000000
arena_objects
  2 -29.710936 5.021895 28.601994 0.000000 -1.000000 0.000000 0.112184 0.977115 1 2 1.000000
  2 -29.744795 5.021895 30.262032 0.000000 -1.000000 0.000000 0.123184 0.996166 1 2 1.000000
  2 -29.926378 5.021895 30.015120 0.000000 -1.000000 0.000000 0.119432 0.994612 1 2 1.000000
arena_objects
  2 -29.710936 5.021895 28.601994 0.000000 -1.000000 0.000000 0.112184 0.977115 1 2 1.000000
  2 -29.505491 5.021895 30.453533 0.000000 -1.000000 0.000000 0.127209 0.996696 1 2 1.000000
  2 -29.744795 5.021895 30.262032 0.000000 -1.000000 0.000000 0.123184 0.996166 1 2 1.000000
arena_objects
  2 -29.710936 5.021895 28.601994 0.000000 -1.000000 0.000000 0.112184 0.977115 1 2 1.000000
  2 -29.224779 5.021895 30.576572 0.000000 -1.000000 0.000000 0.131235 0.996166 1 2 1.000000
  2 -29.505491 5.021895 30.453533 0.000000 -1.000000 0.000000 0.127209 0.996696 1 2 1.000000
arena_objects
  2 -29.710936 5.021895 28.601994 0.000000 -1.000000 0.000000 0.112184 0.977115 1 2 1.000000
  2 -28.921787 5.021895 30.622766 0.000000 -1.000000 0.000000 0.134987 0.994612 1 2 1.000000
  2 -29.224779 5.021895 30.576572 0.000000 -1.000000 0.000000 0.131235 0.996166 1 2 1.000000
arena_objects
  2 -29.710936 5.021895 28.601994 0.000000 -1.000000 0.000000 0.112184 0.977115 1 2 1.000000
  2 -28.617163 5.021895 30.588966 0.000000 -1.000000 0.000000 0.138209 0.992140 1 2 1.000000
  2 -28.921787 5.021895 30.622766 0.000000 -1.000000 0.000000 0.134987 0.994612 1 2 1.000000
arena_objects
  2 -29.710936 5.021895 28.601994 0.000000 -1.000000 0.000000 0.112184 0.977115 1 2 1.000000
  2 -28.331667 5.021895 30.477474 0.000000 -1.000000 0.000000 0.140681 0.988919 1 2 1.000000
  2 -28.617163 5.021895 30.588966 0.000000 -1.000000 0.000000 0.138209 0.992140 1 2 1.000000
arena_objects
  2 -29.710936 5.021895 28.601994 0.000000 -1.000000 0.000000 0.112184 0.977115 1 2 1.000000
  2 -28.084757 5.021895 30.295891 0.000000 -1.000000 0.000000 0.142234 0.985167 1 2 1.000000
  2 -28.331667 5.021895 30.477474 0.000000 -1.000000 0.000000 0.140681 0.988919 1 2 1.000000
arena_objects
  2 -29.710936 5.021895 28.601994 0.000000 -1.000000 0.000000 0.112184 0.977115 1 2 1.000000
  2 -27.893255 5.021895 30.056587 0.000000 -1.000000 0.000000 0.142765 0.981141 1 2 1.000000
  2 -28.084757 5.021895 30.295891 0.000000 -1.000000 0.000000 0.142234 0.985167 1 2 1.000000
arena_objects
  2 -29.710936 5.021895 28.601994 0.000000 -1.000000 0.000000 0.112184 0.977115 1 2 1.000000
  2 -27.770216 5.021895 29.775875 0.000000 -1.000000 0.000000 0.142234 0.977115 1 2 1.000000
  2 -27.893255 5.021895 30.056587 0.000000 -1.000000 0.000000 0.142765 0.981141 1 2 1.000000
arena_objects
  2 -29.710936 5.021895 28.601994 0.000000 -1.000000 0.000000 0.112184 0.977115 1 2 1.000000
  2 -27.724022 5.021895 29.472883 0.000000 -1.000000 0.000000 0.140681 0.973364 1 2 1.000000
  2 -27.770216 5.021895 29.775875 0.000000 -1.000000 0.000000 0.142234 0.977115 1 2 1.000000
arena_objects
  2 -29.710936 5.021895 28.601994 0.000000 -1.000000 0.000000 0.112184 0.977115 1 2 1.000000
  2 -27.757822 5.021895 29.168259 0.000000 -1.000000 0.000000 0.138209 0.970142 1 2 1.000000
  2 -27.724022 5.021895 29.472883 0.000000 -1.000000 0.000000 0.140681 0.973364 1 2 1.000000
arena_objects
  2 -29.710936 5.021895 28.601994 0.000000 -1.000000 0.000000 0.112184 0.977115 1 2 1.000000
  2 -27.869314 5.021895 28.882763 0.000000 -1.000000 0.000000 0.134987 0.967670 1 2 1.000000
  2 -27.757822 5.021895 29.168259 0.000000 -1.000000 0.000000 0.138209 0.970142 1 2 1.000000
arena_objects
  2 -29.710936 5.021895 28.601994 0.000000 -1.000000 0.000000 0.112184 0.977115 1 2 1.000000
  2 -28.050898 5.021895 28.635853 0.000000 -1.000000 0.000000 0.131235 0.966116 1 2 1.000000
  2 -27.869314 5.021895 28.882763 0.000000 -1.000000 0.000000 0.134987 0.967670 1 2 1.000000
arena_objects
  2 -29.710936 5.021895 28.601994 0.000000 -1.000000 0.000000 0.112184 0.977115 1 2 1.000000
  2 -28.290199 5.021895 28.444351 0.000000 -1.000000 0.000000 0.127209 0.965586 1 2 1.000000
  2 -28.050898 5.021895 28.635853 0.000000 -1.000000 0.000000 0.131235 0.966116 1 2 1.000000
arena_objects
  2 -29.710936 5.021895 28.601994 0.000000 -1.000000 0.000000 0.112184 0.977115 1 2 1.000000
  2 -28.570911 5.021895 28.321312 0.000000 -1.000000 0.000000 0.123184 0.966116 1 2 1.000000
  2 -28.290199 5.021895 28.444351 0.000000 -1.000000 0.000000 0.127209 0.965586 1 2 1.000000
arena_objects
  2 -29.710936 5.021895 28.601994 0.000000 -1.000000 0.000000 0.112184 0.977115 1 2 1.000000
  2 -28.873905 5.021895 28.275118 0.000000 -1.000000 0.000000 0.119432 0.967670 1 2 1.000000
  2 -28.570911 5.021895 28.321312 0.000000 -1.000000 0.000000 0.123184 0.966116 1 2 1.000000
arena_objects
  2 -29.710936 5.021895 28.601994 0.000000 -1.000000 0.000000 0.112184 0.977115 1 2 1.000000
  2 -29.178528 5.021895 28.308918 0.000000 -1.000000 0.000000 0.116210 0.970142 1 2 1.000000
  2 -28.873905 5.021895 28.275118 0.000000 -1.000000 0.000000 0.119432 0.967670 1 2 1.000000
arena_objects
  2 -29.710936 5.021895 28.601994 0.000000 -1.000000 0.000000 0.112184 0.977115 1 2 1.000000
  2 -29.464024 5.021895 28.420410 0.000000 -1.000000 0.000000 0.113738 0.973364 1 2 1.000000
  2 -29.178528 5.021895 28.308918 0.000000 -1.000000 0.000000 0.116210 0.970142 1 2 1.000000
arena_objects
  0 -46.724129 5.997533 30.623358 0.000000 -1.000000 0.000000 0.042334 0.459044 1 0 1.000000
  0 -46.646988 5.997534 15.430038 0.000000 -1.000000 0.000000 0.043727 0.237158 1 0 1.000000
  1 -46.029724 5.997534 15.429958 0.000000 -1.000000 0.000000 0.054624 0.240099 1 1 1.000000
arena_objects
  1 -27.544420 5.997534 6.072815 0.000000 -1.000000 0.000000 0.318058 0.105002 1 1 1.000000
  0 -46.724129 5.997533 30.623358 0.000000 -1.000000 0.000000 0.042334 0.459044 1 0 1.000000
  1 -46.029724 5.997534 15.429958 0.000000 -1.000000 0.000000 0.054624 0.240099 1 1 1.000000
arena_objects
  1 -27.544420 5.997534 6.072815 0.000000 -1.000000 0.000000 0.318058 0.105002 1 1 1.000000
  1 -46.156334 5.997533 30.623358 0.000000 -1.000000 0.000000 0.047722 0.459180 1 1 1.000000
  0 -46.724129 5.997533 30.623358 0.000000 -1.000000 0.000000 0.042334 0.459044 1 0 1.000000
arena_objects
  1 -27.544420 5.997534 6.072815 0.000000 -1.000000 0.000000 0.318058 0.105002 1 1 1.000000
  1 -46.093029 5.997533 33.345509 0.000229 -0.999999 0.000869 0.046772 0.500098 1 1 1.000000
  1 -46.156334 5.997533 30.623358 0.000000 -1.000000 0.000000 0.047722 0.459180 1 1 1.000000
arena_objects
  1 -27.544420 5.997534 6.072815 0.000000 -1.000000 0.000000 0.318058 0.105002 1 1 1.000000
  1 -27.390182 5.997533 35.225750 0.000343 -0.999999 0.001304 0.320278 0.524613 1 1 1.000000
  1 -46.093029 5.997533 33.345509 0.000229 -0.999999 0.000869 0.046772 0.500098 1 1 1.000000
arena_objects
  1 -27.327168 5.997533 44.232651 -0.000583 -0.999999 -0.000960 0.321185 0.654253 1 1 1.000000
  1 -46.093029 5.997533 33.345509 0.000229 -0.999999 0.000869 0.046772 0.500098 1 1 1.000000
  1 -27.390182 5.997533 35.225750 0.000343 -0.999999 0.001304 0.320278 0.524613 1 1 1.000000
arena_objects
  1 -27.327168 5.997533 44.232651 -0.000583 -0.999999 -0.000960 0.321185 0.654253 1 1 1.000000
  0 -46.737629 5.997533 33.282146 0.000229 -0.999999 0.000869 0.037862 0.499282 1 0 1.000000
  1 -46.093029 5.997533 33.345509 0.000229 -0.999999 0.000869 0.046772 0.500098 1 1 1.000000
arena_objects
  1 -27.327168 5.997533 44.232651 -0.000583 -0.999999 -0.000960 0.321185 0.654253 1 1 1.000000
  0 -46.819271 5.997532 49.361885 0.017528 -0.999841 -0.003127 0.040627 0.728080 1 0 1.000000
  0 -46.737629 5.997533 33.282146 0.000229 -0.999999 0.000869 0.037862 0.499282 1 0 1.000000
arena_objects
  1 -27.327168 5.997533 44.232651 -0.000583 -0.999999 -0.000960 0.321185 0.654253 1 1 1.000000
  1 -46.159012 6.063386 49.451122 0.016911 -0.999846 -0.004637 0.050130 0.729364 1 1 1.000000
  0 -46.819271 5.997532 49.361885 0.017528 -0.999841 -0.003127 0.040627 0.728080 1 0 1.000000
arena_objects
  1 -27.176565 5.997532 56.233131 -0.000926 -0.999997 -0.002264 0.323352 0.826981 1 1 1.000000
  1 -46.159012 6.063386 49.451122 0.016911 -0.999846 -0.004637 0.050130 0.729364 1 1 1.000000
  1 -27.327168 5.997533 44.232651 -0.000583 -0.999999 -0.000960 0.321185 0.654253 1 1 1.000000
arena_objects
  1 -27.176565 5.997532 56.233131 -0.000926 -0.999997 -0.002264 0.323352 0.826981 1 1 1.000000
  1 -46.219643 5.997532 51.957424 0.016682 -0.999846 -0.005506 0.049258 0.765439 1 1 1.000000
  1 -46.159012 6.063386 49.451122 0.016911 -0.999846 -0.004637 0.050130 0.729364 1 1 1.000000
arena_objects
  0 -46.852699 5.997532 56.227142 0.000000 -1.000000 0.000000 0.040146 0.826894 1 0 1.000000
  1 -46.219643 5.997532 51.957424 0.016682 -0.999846 -0.005506 0.049258 0.765439 1 1 1.000000
  1 -27.176565 5.997532 56.233131 -0.000926 -0.999997 -0.002264 0.323352 0.826981 1 1 1.000000
arena_objects
  0 -46.852699 5.997532 56.227142 0.000000 -1.000000 0.000000 0.040146 0.826894 1 0 1.000000
  0 -46.832771 5.997532 52.021152 0.017299 -0.999842 -0.003997 0.040432 0.766356 1 0 1.000000
  1 -46.219643 5.997532 51.957424 0.016682 -0.999846 -0.005506 0.049258 0.765439 1 1 1.000000
arena_objects
  1 -46.029724 5.997534 12.834419 0.000000 -1.000000 0.000000 0.052927 0.201728 1 1 1.000000
  0 -46.633808 5.997534 12.834419 0.000000 -1.000000 0.000000 0.043966 0.201512 1 0 1.000000
  0 -46.599476 5.997534 6.072815 0.000000 -1.000000 0.000000 0.043790 0.105002 1 0 1.000000
arena_objects
  1 -46.029724 5.997534 12.834419 0.000000 -1.000000 0.000000 0.052927 0.201728 1 1 1.000000
  0 -46.599476 5.997534 6.072815 0.000000 -1.000000 0.000000 0.043790 0.105002 1 0 1.000000
  1 -27.544420 5.997534 6.072815 0.000000 -1.000000 0.000000 0.318058 0.105002 1 1 1.000000
arena_objects
  1 -27.544420 5.997534 6.072815 0.000000 -1.000000 0.000000 0.318058 0.105002 1 1 1.000000
  1 -46.029724 5.997534 15.429958 0.000000 -1.000000 0.000000 0.054624 0.240099 1 1 1.000000
  1 -46.029724 5.997534 12.834419 0.000000 -1.000000 0.000000 0.052927 0.201728 1 1 1.000000
end
