// Created by Crowbar 0.74
version 1
nodes
  0 "base" -1
  1 "doorhinge" 0
  2 "doorhandle" 1
  3 "light1" 0
end
skeleton
  time 0
    0 0.000000 0.000000 0.000000 1.570796 0.000000 0.000000
    1 -46.661724 31.972027 -5.996205 0.000000 0.000000 0.000000
    2 18.079386 -2.476408 1.115959 0.000000 0.000000 0.000000
    3 5.276351 42.659306 6.000000 0.000000 0.000000 0.000000
end
triangles
light_random
  3 -12.937974 -6.015891 1.589760 0.000000 -1.000000 0.000000 0.066087 0.006100 1 3 1.000000
  3 22.999607 -6.015894 60.975208 0.000000 -1.000000 0.000000 0.929908 0.994269 1 3 1.000000
  3 -12.850907 -6.015894 61.027725 0.000000 -1.000000 0.000000 0.068180 0.995142 1 3 1.000000
light_random
  3 -12.937974 -6.015891 1.589760 0.000000 -1.000000 0.000000 0.066087 0.006100 1 3 1.000000
  3 22.912544 -6.015891 1.537243 0.000000 -1.000000 0.000000 0.927815 0.005226 1 3 1.000000
  3 22.999607 -6.015894 60.975208 0.000000 -1.000000 0.000000 0.929908 0.994269 1 3 1.000000
end
