// Created by Crowbar 0.74
version 1
nodes
  0 "versus_doors_jnt_root" -1
  1 "RDoor_JNT" 0
  2 "LDoor_JNT" 0
  3 "comp_logo" 2
end
skeleton
  time 0
    0 0.004398 -0.002971 0.097507 1.570850 -0.000077 -0.000005
    1 -42.267246 80.000198 0.000057 0.000000 0.000000 0.000000
    2 41.335419 80.000351 0.003005 -3.141593 0.003585 3.141593
    3 41.490795 -7.364998 6.672363 -0.000058 0.003590 -0.031219
  time 1
    0 0.004398 -0.002971 0.097507 1.570850 -0.000077 -0.000005
    1 -42.267246 80.000198 0.000057 0.000000 0.000000 0.000000
    2 41.335419 80.000351 0.003005 -3.141593 0.003585 3.141593
    3 41.490795 -7.364998 6.672363 -0.000178 0.003590 -0.065649
  time 2
    0 0.004398 -0.002971 0.097507 1.570850 -0.000077 -0.000005
    1 -42.267246 80.000198 0.000057 0.000000 0.000000 0.000000
    2 41.335419 80.000351 0.003005 -3.141593 0.003585 3.141593
    3 41.490795 -7.364998 6.672363 -0.000418 0.003566 -0.132117
  time 3
    0 0.004398 -0.002971 0.097507 1.570850 -0.000077 -0.000005
    1 -42.267246 80.000198 0.000057 0.000000 0.000000 0.000000
    2 41.335419 80.000351 0.003005 -3.141593 0.003585 3.141593
    3 41.490795 -7.364998 6.672363 -0.000561 0.003554 -0.175058
  time 4
    0 0.004398 -0.002971 0.097507 1.570850 -0.000077 -0.000005
    1 -42.267246 80.000198 0.000057 0.000000 0.000000 0.000000
    2 41.335419 80.000351 0.003005 -3.141593 0.003585 3.141593
    3 41.490795 -7.364998 6.672363 -0.000597 0.003542 -0.183857
  time 5
    0 0.004398 -0.002971 0.097507 1.570850 -0.000077 -0.000005
    1 -42.267246 80.000198 0.000057 0.000000 0.000000 0.000000
    2 41.335419 80.000351 0.003005 -3.141593 0.003585 3.141593
    3 41.490795 -7.364998 6.672363 -0.000597 0.003542 -0.185387
  time 6
    0 0.004398 -0.002971 0.097507 1.570850 -0.000077 -0.000005
    1 -42.267246 80.000198 0.000057 0.000000 0.000000 0.000000
    2 41.335419 80.000351 0.003005 -3.141593 0.003585 3.141593
    3 41.490795 -7.364998 6.672363 -0.000585 0.003542 -0.181179
  time 7
    0 0.004398 -0.002971 0.097507 1.570850 -0.000077 -0.000005
    1 -42.267246 80.000198 0.000057 0.000000 0.000000 0.000000
    2 41.335419 80.000351 0.003005 -3.141593 0.003585 3.141593
    3 41.490795 -7.364998 6.672363 -0.000561 0.003554 -0.172476
  time 8
    0 0.004398 -0.002971 0.097507 1.570850 -0.000077 -0.000005
    1 -42.267246 80.000198 0.000057 0.000000 0.000000 0.000000
    2 41.335419 80.000351 0.003005 -3.141593 0.003585 3.141593
    3 41.490795 -7.364998 6.672363 -0.000513 0.003554 -0.160617
  time 9
    0 0.004398 -0.002971 0.097507 1.570850 -0.000077 -0.000005
    1 -42.267246 80.000198 0.000057 0.000000 0.000000 0.000000
    2 41.335419 80.000351 0.003005 -3.141593 0.003585 3.141593
    3 41.490795 -7.364998 6.672363 -0.000465 0.003566 -0.147132
  time 10
    0 0.004398 -0.002971 0.097507 1.570850 -0.000077 -0.000005
    1 -42.267246 80.000198 0.000057 0.000000 0.000000 0.000000
    2 41.335419 80.000351 0.003005 -3.141593 0.003585 3.141593
    3 41.490795 -7.364998 6.672363 -0.000250 0.003590 -0.086019
  time 11
    0 0.004398 -0.002971 0.097507 1.570850 -0.000077 -0.000005
    1 -42.267246 80.000198 0.000057 0.000000 0.000000 0.000000
    2 41.335419 80.000351 0.003005 -3.141593 0.003585 3.141593
    3 41.490795 -7.364998 6.672363 0.000254 0.003590 0.056002
  time 12
    0 0.004398 -0.002971 0.097507 1.570850 -0.000077 -0.000005
    1 -42.267246 80.000198 0.000057 0.000000 0.000000 0.000000
    2 41.335419 80.000351 0.003005 -3.141593 0.003585 3.141593
    3 41.490795 -7.364998 6.672363 0.000973 0.003458 0.262101
  time 13
    0 0.004398 -0.002971 0.097507 1.570850 -0.000077 -0.000005
    1 -42.267246 80.000198 0.000057 0.000000 0.000000 0.000000
    2 41.335419 80.000351 0.003005 -3.141593 0.003585 3.141593
    3 41.490795 -7.364998 6.672363 0.001836 0.003087 0.522905
  time 14
    0 0.004398 -0.002971 0.097507 1.570850 -0.000077 -0.000005
    1 -42.072584 80.000198 0.000057 0.000000 0.000000 0.000000
    2 41.432221 80.000351 0.003005 -3.141593 0.003585 3.141593
    3 41.490795 -7.364998 6.672363 0.002687 0.002392 0.830762
  time 15
    0 0.004398 -0.002971 0.097507 1.570850 -0.000077 -0.000005
    1 -41.648909 80.000198 0.000057 0.000000 0.000000 0.000000
    2 41.705543 80.000351 0.003005 -3.141593 0.003585 3.141593
    3 41.490795 -7.364998 6.672363 0.003334 0.001337 1.177448
  time 16
    0 0.004398 -0.002971 0.097507 1.570850 -0.000077 -0.000005
    1 -41.219507 80.000198 0.000057 0.000000 0.000000 0.000000
    2 42.098445 80.000351 0.003005 -3.141593 0.003585 3.141593
    3 41.490795 -7.364998 6.672363 0.003585 -0.000017 1.561051
  time 17
    0 0.004398 -0.002971 0.097507 1.570850 -0.000077 -0.000005
    1 -41.024845 80.000198 0.000057 0.000000 0.000000 0.000000
    2 42.576760 80.000351 0.003005 -3.141593 0.003585 3.141593
    3 41.490795 -7.364998 6.672363 0.003274 -0.001467 1.978222
  time 18
    0 0.004398 -0.002971 0.097507 1.570850 -0.000077 -0.000005
    1 -41.282486 80.000198 0.000057 0.000000 0.000000 0.000000
    2 43.299927 80.000351 0.003005 -3.141593 0.003585 3.141593
    3 41.490795 -7.364998 6.672363 0.002315 -0.002738 2.423127
  time 19
    0 0.004398 -0.002971 0.097507 1.570850 -0.000077 -0.000005
    1 -42.026782 80.000198 0.000057 0.000000 0.000000 0.000000
    2 44.433078 80.000351 0.003005 -3.141593 0.003585 3.141593
    3 41.490795 -7.364998 6.672363 0.000817 -0.003493 2.896916
  time 20
    0 0.004398 -0.002971 0.097507 1.570850 -0.000077 -0.000005
    1 -43.223380 80.000198 0.000057 0.000000 0.000000 0.000000
    2 45.947742 80.000351 0.003005 -3.141593 0.003585 3.141593
    3 41.490795 -7.364998 6.672363 -0.000957 -0.003457 -2.884757
  time 21
    0 0.004398 -0.002971 0.097507 1.570850 -0.000077 -0.000005
    1 -44.837928 80.000198 0.000057 0.000000 0.000000 0.000000
    2 47.809754 80.000351 0.003005 -3.141593 0.003585 3.141593
    3 41.490795 -7.364998 6.672363 -0.002563 -0.002510 -2.360567
  time 22
    0 0.004398 -0.002971 0.097507 1.570850 -0.000077 -0.000005
    1 -46.847526 80.000198 0.000057 0.000000 0.000000 0.000000
    2 49.996337 80.000351 0.003005 -3.141593 0.003585 3.141593
    3 41.490795 -7.364998 6.672363 -0.003498 -0.000796 -1.810556
  time 23
    0 0.004398 -0.002971 0.097507 1.570850 -0.000077 -0.000005
    1 -49.234996 80.000198 0.000057 0.000000 0.000000 0.000000
    2 52.501797 80.000351 0.003005 -3.141593 0.003585 3.141593
    3 41.490795 -7.364998 6.672363 -0.003366 0.001241 -1.234531
  time 24
    0 0.004398 -0.002971 0.097507 1.570850 -0.000077 -0.000005
    1 -51.960263 80.000198 0.000057 0.000000 0.000000 0.000000
    2 55.280579 80.000351 0.003005 -3.141593 0.003585 3.141593
    3 41.490795 -7.364998 6.672363 -0.002083 0.002931 -0.636318
  time 25
    0 0.004398 -0.002971 0.097507 1.570850 -0.000077 -0.000005
    1 -55.023324 80.000198 0.000057 0.000000 0.000000 0.000000
    2 58.338379 80.000351 0.003005 -3.141593 0.003585 3.141593
    3 41.490795 -7.364998 6.672363 0.000014 0.003590 -0.010466
  time 26
    0 0.004398 -0.002971 0.097507 1.570850 -0.000077 -0.000005
    1 -58.407006 80.000198 0.000057 0.000000 0.000000 0.000000
    2 61.663807 80.000351 0.003005 -3.141593 0.003585 3.141593
    3 41.490795 -7.364998 6.672363 0.002195 0.002835 0.645895
  time 27
    0 -0.015134 -0.034222 0.062350 1.570850 -0.000077 -0.000005
    1 -62.082680 80.000198 0.000057 0.000000 0.000000 0.000000
    2 65.228393 80.000351 0.003005 -3.141593 0.003585 3.141593
    3 41.490795 -7.364998 6.672363 0.003501 0.000798 1.332286
  time 28
    0 -0.034666 -0.073286 0.027193 1.570850 -0.000077 -0.000005
    1 -66.061798 80.000198 0.000057 0.000000 0.000000 0.000000
    2 69.032136 80.000351 0.003005 -3.141593 0.003585 3.141593
    3 41.490795 -7.364998 6.672363 0.003130 -0.001743 2.062765
  time 29
    0 -0.038573 -0.057661 0.140478 1.570850 -0.000077 -0.000005
    1 -70.327183 80.000198 0.000057 0.000000 0.000000 0.000000
    2 73.086425 80.000351 0.003005 -3.141593 0.003585 3.141593
    3 41.490795 -7.364998 6.672363 0.000937 -0.003457 2.859139
  time 30
    0 -0.019041 0.004841 0.062350 1.570850 -0.000077 -0.000005
    1 -74.844484 80.000198 0.000057 0.000000 0.000000 0.000000
    2 77.345706 80.000351 0.003005 -3.141593 0.003585 3.141593
    3 41.490795 -7.364998 6.672363 -0.002239 -0.002798 -2.482792
  time 31
    0 -0.022947 -0.026410 0.074069 1.570850 -0.000077 -0.000005
    1 -79.642326 80.000198 0.000057 0.000000 0.000000 0.000000
    2 81.827062 80.000351 0.003005 -3.141593 0.003585 3.141593
    3 41.490795 -7.364998 6.672363 -0.001496 -0.003253 -2.723990
  time 32
    0 0.000491 0.004841 0.101414 1.570850 -0.000077 -0.000005
    1 -84.709261 80.000198 0.000057 0.000000 0.000000 0.000000
    2 86.541882 80.000351 0.003005 -3.141593 0.003585 3.141593
    3 41.490795 -7.364998 6.672363 -0.000873 -0.003481 -2.909814
  time 33
    0 0.008304 -0.018597 0.124852 1.570850 -0.000077 -0.000005
    1 -90.005209 80.000198 0.000057 0.000000 0.000000 0.000000
    2 91.444611 80.000351 0.003005 -3.141593 0.003585 3.141593
    3 41.490795 -7.364998 6.672363 -0.000382 -0.003565 -3.050018
  time 34
    0 -0.089355 -0.002971 0.124852 1.570850 -0.000077 -0.000005
    1 -95.558798 80.000198 0.000057 0.000000 0.000000 0.000000
    2 96.569414 80.000351 0.003005 -3.141593 0.003585 3.141593
    3 41.490795 -7.364998 6.672363 -0.000022 -0.003589 -3.153689
  time 35
    0 0.039555 0.028280 0.120946 1.570850 -0.000077 -0.000005
    1 -101.375752 80.000198 0.000057 0.000000 0.000000 0.000000
    2 101.916293 80.000351 0.003005 -3.141593 0.003585 3.141593
    3 41.490795 -7.364998 6.672363 0.000242 -0.003577 3.056726
  time 36
    0 0.039555 -0.049848 0.109227 1.570850 -0.000077 -0.000005
    1 -107.410271 80.000198 0.000057 0.000000 0.000000 0.000000
    2 107.445387 80.000351 0.003005 -3.141593 0.003585 3.141593
    3 41.490795 -7.364998 6.672363 0.000409 -0.003565 3.010438
  time 37
    0 0.066899 -0.112350 0.093601 1.570850 -0.000077 -0.000005
    1 -113.702429 80.000198 0.000057 0.000000 0.000000 0.000000
    2 113.190861 80.000351 0.003005 -3.141593 0.003585 3.141593
    3 41.490795 -7.364998 6.672363 0.000493 -0.003553 2.986337
  time 38
    0 0.090338 -0.057661 0.019380 1.570850 -0.000077 -0.000005
    1 -120.257954 80.000198 0.000057 0.000000 0.000000 0.000000
    2 119.169799 80.000351 0.003005 -3.141593 0.003585 3.141593
    3 41.490795 -7.364998 6.672363 0.000517 -0.003553 2.981460
  time 39
    0 0.121589 -0.077192 0.148290 1.570850 -0.000077 -0.000005
    1 -127.019592 80.000198 0.000057 0.000000 0.000000 0.000000
    2 125.330952 80.000351 0.003005 -3.141593 0.003585 3.141593
    3 41.490795 -7.364998 6.672363 0.000469 -0.003553 2.992936
  time 40
    0 0.055180 -0.022503 0.179541 1.570850 -0.000077 -0.000005
    1 -134.056046 80.000198 0.000057 0.000000 0.000000 0.000000
    2 131.731262 80.000351 0.003005 -3.141593 0.003585 3.141593
    3 41.490795 -7.364998 6.672363 0.000385 -0.003565 3.018280
  time 41
    0 0.102057 -0.026410 0.214699 1.570850 -0.000077 -0.000005
    1 -141.355867 80.000198 0.000057 0.000000 0.000000 0.000000
    2 138.370730 80.000351 0.003005 -3.141593 0.003585 3.141593
    3 41.490795 -7.364998 6.672363 0.000254 -0.003577 3.055674
  time 42
    0 -0.019041 -0.061567 0.214699 1.570850 -0.000077 -0.000005
    1 -148.884701 80.000198 0.000057 0.000000 0.000000 0.000000
    2 145.220884 80.000351 0.003005 -3.141593 0.003585 3.141593
    3 41.490795 -7.364998 6.672363 0.000086 -0.003589 3.102537
  time 43
    0 0.062993 0.110313 0.027193 1.570850 -0.000077 -0.000005
    1 -156.699803 80.000198 0.000057 0.000000 0.000000 0.000000
    2 152.332973 80.000351 0.003005 -3.141593 0.003585 3.141593
    3 41.490795 -7.364998 6.672363 -0.000106 -0.003589 -3.125859
  time 44
    0 0.016117 0.086875 0.105320 1.570850 -0.000077 -0.000005
    1 -164.812623 80.000198 0.000057 0.000000 0.000000 0.000000
    2 159.724079 80.000351 0.003005 -3.141593 0.003585 3.141593
    3 41.490795 -7.364998 6.672363 -0.000322 -0.003565 -3.065129
  time 45
    0 0.082525 -0.065473 0.089695 1.570850 -0.000077 -0.000005
    1 -173.188809 80.000198 0.000057 0.000000 0.000000 0.000000
    2 167.365731 80.000351 0.003005 -3.141593 0.003585 3.141593
    3 41.490795 -7.364998 6.672363 -0.000549 -0.003541 -3.000861
  time 46
    0 -0.011228 0.024373 -0.000152 1.570850 -0.000077 -0.000005
    1 -181.891340 80.000198 0.000057 0.000000 0.000000 0.000000
    2 175.331953 80.000351 0.003005 -3.141593 0.003585 3.141593
    3 41.490795 -7.364998 6.672363 -0.000549 -0.003541 -3.000861
  time 47
    0 0.027836 -0.085005 0.074069 1.570850 -0.000077 -0.000005
    1 -190.960293 80.000198 0.000057 0.000000 0.000000 0.000000
    2 183.656912 80.000351 0.003005 -3.141593 0.003585 3.141593
    3 41.490795 -7.364998 6.672363 -0.000549 -0.003541 -3.000861
  time 48
    0 -0.038573 0.082969 0.058444 1.570850 -0.000077 -0.000005
    1 -200.349866 80.000198 0.000057 0.000000 0.000000 0.000000
    2 192.323525 80.000351 0.003005 -3.141593 0.003585 3.141593
    3 41.490795 -7.364998 6.672363 -0.000549 -0.003541 -3.000861
  time 49
    0 0.035649 -0.061567 0.140478 1.570850 -0.000077 -0.000005
    1 -210.180291 80.000198 0.000057 0.000000 0.000000 0.000000
    2 201.457064 80.000351 0.003005 -3.141593 0.003585 3.141593
    3 41.490795 -7.364998 6.672363 -0.000549 -0.003541 -3.000861
  time 50
    0 0.059087 -0.049848 0.054537 1.570850 -0.000077 -0.000005
    1 -220.503095 80.000198 0.000057 0.000000 0.000000 0.000000
    2 211.142943 80.000351 0.003005 -3.141593 0.003585 3.141593
    3 41.490795 -7.364998 6.672363 -0.000549 -0.003541 -3.000861
end
