// Created by Crowbar 0.74
version 1
nodes
  0 "versus_doors_jnt_root" -1
  1 "RDoor_JNT" 0
  2 "LDoor_JNT" 0
  3 "comp_logo" 2
end
skeleton
  time 0
    0 0.002971 0.098150 -0.000152 0.000054 -0.000006 0.000083
    1 -42.267246 80.000206 0.000058 0.000000 0.000000 0.000000
    2 41.335419 80.000359 0.003006 -3.141593 0.003585 3.141593
    3 41.490795 -7.364998 6.672363 -0.000058 0.003590 -0.031219
end
triangles
versus_doors
  2 0.940105 29.062450 -5.995381 -0.386508 0.896402 -0.216967 0.492674 0.410321 1 2 1.000000
  2 0.950932 28.658337 -7.684282 -0.386508 0.896402 -0.216967 0.492648 0.403123 1 2 1.000000
  2 -0.002831 28.884109 -5.052444 -0.386508 0.896402 -0.216967 0.496576 0.413943 1 2 1.000000
versus_doors
  1 -0.087582 131.134979 -3.920965 0.335989 -0.941866 -0.000083 0.174459 0.035414 1 1 1.000000
  1 12.095402 135.480270 3.944426 0.335989 -0.941866 -0.000083 0.150282 0.020714 1 1 1.000000
  1 -0.087608 131.134262 3.943996 0.335989 -0.941866 -0.000083 0.174459 0.020714 1 1 1.000000
versus_doors
  1 -0.087582 131.134979 -3.920965 0.335989 -0.941866 -0.000083 0.174459 0.035414 1 1 1.000000
  1 12.095428 135.480972 -3.920535 0.335989 -0.941866 -0.000083 0.150282 0.035414 1 1 1.000000
  1 12.095402 135.480270 3.944426 0.335989 -0.941866 -0.000083 0.150282 0.020714 1 1 1.000000
versus_doors
  1 12.095402 135.480270 3.944426 -0.000003 -0.000090 1.000000 0.102570 0.100982 1 1 1.000000
  1 -0.091553 160.096588 3.946594 -0.000003 -0.000090 1.000000 0.079792 0.146991 1 1 1.000000
  1 -0.087608 131.134262 3.943996 -0.000003 -0.000090 1.000000 0.079800 0.092859 1 1 1.000000
versus_doors
  1 12.095402 135.480270 3.944426 -0.000003 -0.000090 1.000000 0.102570 0.100982 1 1 1.000000
  1 12.092644 155.753906 3.946245 -0.000003 -0.000090 1.000000 0.102565 0.138874 1 1 1.000000
  1 -0.091553 160.096588 3.946594 -0.000003 -0.000090 1.000000 0.079792 0.146991 1 1 1.000000
versus_doors
  1 -0.091553 160.096588 3.946594 0.335732 0.941957 0.000086 0.126106 0.020714 1 1 1.000000
  1 12.092667 155.754608 -3.918716 0.335732 0.941957 0.000086 0.150282 0.035414 1 1 1.000000
  1 -0.091526 160.097321 -3.918367 0.335732 0.941957 0.000086 0.126106 0.035414 1 1 1.000000
versus_doors
  1 -0.091553 160.096588 3.946594 0.335732 0.941957 0.000086 0.126106 0.020714 1 1 1.000000
  1 12.092644 155.753906 3.946245 0.335732 0.941957 0.000086 0.150282 0.020714 1 1 1.000000
  1 12.092667 155.754608 -3.918716 0.335732 0.941957 0.000086 0.150282 0.035414 1 1 1.000000
versus_doors
  1 -0.073685 29.059624 -3.930122 1.000000 0.000137 -0.000007 0.530898 0.092122 1 1 1.000000
  1 -0.073681 28.881481 -5.054701 1.000000 0.000137 -0.000007 0.532225 0.089622 1 1 1.000000
  1 -0.078342 63.339012 -5.051627 1.000000 0.000137 -0.000007 0.608815 0.089640 1 1 1.000000
versus_doors
  1 -0.069740 0.097305 -3.932720 1.000000 0.000137 -0.000007 0.466522 0.092108 1 1 1.000000
  1 -0.073681 28.881481 -5.054701 1.000000 0.000137 -0.000007 0.532225 0.089622 1 1 1.000000
  1 -0.073685 29.059624 -3.930122 1.000000 0.000137 -0.000007 0.530898 0.092122 1 1 1.000000
versus_doors
  1 -0.069740 0.097305 -3.932720 1.000000 0.000137 -0.000007 0.466522 0.092108 1 1 1.000000
  1 -0.069736 0.097404 -5.057299 1.000000 0.000137 -0.000007 0.466522 0.089608 1 1 1.000000
  1 -0.073681 28.881481 -5.054701 1.000000 0.000137 -0.000007 0.532225 0.089622 1 1 1.000000
versus_doors
  1 -0.087582 131.134979 -3.920965 1.000000 0.000137 -0.000007 0.757785 0.092173 1 1 1.000000
  1 -0.091522 160.097412 -5.042946 1.000000 0.000137 -0.000007 0.822162 0.089688 1 1 1.000000
  1 -0.091526 160.097321 -3.918367 1.000000 0.000137 -0.000007 0.822161 0.092188 1 1 1.000000
versus_doors
  1 -0.087582 131.134979 -3.920965 1.000000 0.000137 -0.000007 0.757785 0.092173 1 1 1.000000
  1 -0.087578 131.135071 -5.045544 1.000000 0.000137 -0.000007 0.759509 0.089674 1 1 1.000000
  1 -0.091522 160.097412 -5.042946 1.000000 0.000137 -0.000007 0.822162 0.089688 1 1 1.000000
versus_doors
  1 -0.082912 96.855690 -3.924040 1.000000 0.000137 -0.000007 0.681591 0.092156 1 1 1.000000
  1 -0.087578 131.135071 -5.045544 1.000000 0.000137 -0.000007 0.759509 0.089674 1 1 1.000000
  1 -0.087582 131.134979 -3.920965 1.000000 0.000137 -0.000007 0.757785 0.092173 1 1 1.000000
versus_doors
  1 -0.082912 96.855690 -3.924040 1.000000 0.000137 -0.000007 0.681591 0.092156 1 1 1.000000
  1 -0.082909 96.855797 -5.048619 1.000000 0.000137 -0.000007 0.683315 0.089656 1 1 1.000000
  1 -0.087578 131.135071 -5.045544 1.000000 0.000137 -0.000007 0.759509 0.089674 1 1 1.000000
versus_doors
  1 -0.082912 96.855690 -3.924040 1.000000 0.000137 -0.000007 0.681591 0.092156 1 1 1.000000
  1 -0.078342 63.339012 -5.051627 1.000000 0.000137 -0.000007 0.608815 0.089640 1 1 1.000000
  1 -0.082909 96.855797 -5.048619 1.000000 0.000137 -0.000007 0.683315 0.089656 1 1 1.000000
versus_doors
  1 -0.082912 96.855690 -3.924040 1.000000 0.000137 -0.000007 0.681591 0.092156 1 1 1.000000
  1 -0.078346 63.338913 -3.927047 1.000000 0.000137 -0.000007 0.607092 0.092139 1 1 1.000000
  1 -0.078342 63.339012 -5.051627 1.000000 0.000137 -0.000007 0.608815 0.089640 1 1 1.000000
versus_doors
  1 -0.073685 29.059624 -3.930122 1.000000 0.000137 -0.000007 0.530898 0.092122 1 1 1.000000
  1 -0.078342 63.339012 -5.051627 1.000000 0.000137 -0.000007 0.608815 0.089640 1 1 1.000000
  1 -0.078346 63.338913 -3.927047 1.000000 0.000137 -0.000007 0.607092 0.092139 1 1 1.000000
versus_doors
  1 -0.073685 29.059624 -3.930122 1.000000 0.000137 -0.000007 0.530898 0.092122 1 1 1.000000
  1 -0.078346 63.338913 -3.927047 1.000000 0.000137 -0.000007 0.607092 0.092139 1 1 1.000000
  1 -0.078373 63.338211 3.937914 1.000000 0.000137 -0.000007 0.607088 0.109621 1 1 1.000000
versus_doors
  1 -0.073685 29.059624 -3.930122 1.000000 0.000137 -0.000007 0.530898 0.092122 1 1 1.000000
  1 -0.078373 63.338211 3.937914 1.000000 0.000137 -0.000007 0.607088 0.109621 1 1 1.000000
  1 -0.073711 28.880672 3.934839 1.000000 0.000137 -0.000007 0.530497 0.109604 1 1 1.000000
versus_doors
  1 -0.078373 63.338211 3.937914 1.000000 0.000137 -0.000007 0.607088 0.109621 1 1 1.000000
  1 -0.073715 29.058735 6.002358 1.000000 0.000137 -0.000007 0.530893 0.114200 1 1 1.000000
  1 -0.073711 28.880672 3.934839 1.000000 0.000137 -0.000007 0.530497 0.109604 1 1 1.000000
versus_doors
  1 -0.078373 63.338211 3.937914 1.000000 0.000137 -0.000007 0.607088 0.109621 1 1 1.000000
  1 -0.078381 63.338020 6.005433 1.000000 0.000137 -0.000007 0.607087 0.114217 1 1 1.000000
  1 -0.073715 29.058735 6.002358 1.000000 0.000137 -0.000007 0.530893 0.114200 1 1 1.000000
versus_doors
  1 -0.082943 96.854805 6.008441 1.000000 0.000137 -0.000007 0.681586 0.114234 1 1 1.000000
  1 -0.078381 63.338020 6.005433 1.000000 0.000137 -0.000007 0.607087 0.114217 1 1 1.000000
  1 -0.078373 63.338211 3.937914 1.000000 0.000137 -0.000007 0.607088 0.109621 1 1 1.000000
versus_doors
  1 -0.082943 96.854805 6.008441 1.000000 0.000137 -0.000007 0.681586 0.114234 1 1 1.000000
  1 -0.078373 63.338211 3.937914 1.000000 0.000137 -0.000007 0.607088 0.109621 1 1 1.000000
  1 -0.082935 96.854996 3.940921 1.000000 0.000137 -0.000007 0.681587 0.109638 1 1 1.000000
versus_doors
  1 -0.087616 131.134079 6.011516 1.000000 0.000137 -0.000007 0.757780 0.114251 1 1 1.000000
  1 -0.082943 96.854805 6.008441 1.000000 0.000137 -0.000007 0.681586 0.114234 1 1 1.000000
  1 -0.082935 96.854996 3.940921 1.000000 0.000137 -0.000007 0.681587 0.109638 1 1 1.000000
versus_doors
  1 -0.087616 131.134079 6.011516 1.000000 0.000137 -0.000007 0.757780 0.114251 1 1 1.000000
  1 -0.082935 96.854996 3.940921 1.000000 0.000137 -0.000007 0.681587 0.109638 1 1 1.000000
  1 -0.087608 131.134262 3.943996 1.000000 0.000137 -0.000007 0.757781 0.109655 1 1 1.000000
versus_doors
  1 -0.087616 131.134079 6.011516 1.000000 0.000137 -0.000007 0.757780 0.114251 1 1 1.000000
  1 -0.087608 131.134262 3.943996 1.000000 0.000137 -0.000007 0.757781 0.109655 1 1 1.000000
  1 -0.091553 160.096588 3.946594 1.000000 0.000137 -0.000007 0.822157 0.109670 1 1 1.000000
versus_doors
  1 -0.087616 131.134079 6.011516 1.000000 0.000137 -0.000007 0.757780 0.114251 1 1 1.000000
  1 -0.091553 160.096588 3.946594 1.000000 0.000137 -0.000007 0.822157 0.109670 1 1 1.000000
  1 -0.091557 160.096405 6.014114 1.000000 0.000137 -0.000007 0.822156 0.114265 1 1 1.000000
versus_doors
  1 -0.087608 131.134262 3.943996 1.000000 0.000137 -0.000007 0.757781 0.109655 1 1 1.000000
  1 -0.082912 96.855690 -3.924040 1.000000 0.000137 -0.000007 0.681591 0.092156 1 1 1.000000
  1 -0.087582 131.134979 -3.920965 1.000000 0.000137 -0.000007 0.757785 0.092173 1 1 1.000000
versus_doors
  1 -0.087608 131.134262 3.943996 1.000000 0.000137 -0.000007 0.757781 0.109655 1 1 1.000000
  1 -0.082935 96.854996 3.940921 1.000000 0.000137 -0.000007 0.681587 0.109638 1 1 1.000000
  1 -0.082912 96.855690 -3.924040 1.000000 0.000137 -0.000007 0.681591 0.092156 1 1 1.000000
versus_doors
  1 -0.073711 28.880672 3.934839 1.000000 0.000137 -0.000007 0.530497 0.109604 1 1 1.000000
  1 -0.069775 0.096413 5.999761 1.000000 0.000137 -0.000007 0.466517 0.114185 1 1 1.000000
  1 -0.069767 0.096596 3.932241 1.000000 0.000137 -0.000007 0.466518 0.109589 1 1 1.000000
versus_doors
  1 -0.073711 28.880672 3.934839 1.000000 0.000137 -0.000007 0.530497 0.109604 1 1 1.000000
  1 -0.073715 29.058735 6.002358 1.000000 0.000137 -0.000007 0.530893 0.114200 1 1 1.000000
  1 -0.069775 0.096413 5.999761 1.000000 0.000137 -0.000007 0.466517 0.114185 1 1 1.000000
versus_doors
  1 -0.069740 0.097305 -3.932720 0.005070 -0.003974 -0.999979 0.034696 0.195817 1 1 1.000000
  1 12.110508 24.716930 -3.930471 0.005070 -0.003974 -0.999979 0.139914 0.247860 1 1 1.000000
  1 12.113270 4.443306 -3.932290 0.005070 -0.003974 -0.999979 0.053274 0.247880 1 1 1.000000
versus_doors
  1 -0.069740 0.097305 -3.932720 0.005070 -0.003974 -0.999979 0.034696 0.195817 1 1 1.000000
  1 -0.073685 29.059624 -3.930122 0.005070 -0.003974 -0.999979 0.158468 0.195789 1 1 1.000000
  1 12.110508 24.716930 -3.930471 0.005070 -0.003974 -0.999979 0.139914 0.247860 1 1 1.000000
versus_doors
  1 12.113270 4.443306 -3.932290 0.335989 -0.941866 -0.000083 0.069515 0.064189 1 1 1.000000
  1 -0.069767 0.096596 3.932241 0.335989 -0.941866 -0.000083 0.093692 0.049489 1 1 1.000000
  1 -0.069740 0.097305 -3.932720 0.335989 -0.941866 -0.000083 0.093692 0.064189 1 1 1.000000
versus_doors
  1 12.113270 4.443306 -3.932290 0.335989 -0.941866 -0.000083 0.069515 0.064189 1 1 1.000000
  1 12.113243 4.442604 3.932671 0.335989 -0.941866 -0.000083 0.069515 0.049489 1 1 1.000000
  1 -0.069767 0.096596 3.932241 0.335989 -0.941866 -0.000083 0.093692 0.049489 1 1 1.000000
versus_doors
  1 -115.806381 28.792633 -6.951922 -0.960730 -0.000383 -0.277484 0.860440 0.136949 1 1 1.000000
  1 -116.069733 0.084419 -6.000555 -0.990154 -0.000323 -0.139981 0.837089 0.136127 1 1 1.000000
  1 -116.080719 29.053978 -6.015760 -0.995658 -0.000238 -0.093087 0.860652 0.136156 1 1 1.000000
versus_doors
  1 -115.806381 28.792633 -6.951922 -0.960730 -0.000383 -0.277484 0.860440 0.136949 1 1 1.000000
  1 -115.803696 0.084526 -6.934917 -0.960730 -0.000383 -0.277484 0.837091 0.136917 1 1 1.000000
  1 -116.069733 0.084419 -6.000555 -0.990154 -0.000323 -0.139981 0.837089 0.136127 1 1 1.000000
versus_doors
  1 -116.091522 160.084412 -5.986202 -1.000000 -0.000258 0.000290 0.980239 0.138000 1 1 1.000000
  1 -116.091507 160.084518 -7.054998 -1.000000 -0.000258 0.000290 0.980232 0.139041 1 1 1.000000
  1 -116.086990 131.643295 -7.082635 -1.000000 -0.000258 0.000290 0.952535 0.138794 1 1 1.000000
versus_doors
  1 -116.091522 160.084412 -5.986202 -1.000000 -0.000258 0.000290 0.980239 0.138000 1 1 1.000000
  1 -116.086990 131.643295 -7.082635 -1.000000 -0.000258 0.000290 0.952535 0.138794 1 1 1.000000
  1 -116.080551 131.129333 -6.004629 -1.000000 -0.000258 0.000290 0.952043 0.137739 1 1 1.000000
versus_doors
  1 -116.080551 131.129333 -6.004629 -1.000000 -0.000258 0.000290 0.952043 0.137739 1 1 1.000000
  1 -116.091568 160.083328 6.013797 -1.000000 -0.000258 0.000290 0.980302 0.126332 1 1 1.000000
  1 -116.091522 160.084412 -5.986202 -1.000000 -0.000258 0.000290 0.980239 0.138000 1 1 1.000000
versus_doors
  1 -116.080551 131.129333 -6.004629 -1.000000 -0.000258 0.000290 0.952043 0.137739 1 1 1.000000
  1 -116.087616 131.121002 6.011199 -1.000000 -0.000258 0.000290 0.952140 0.126188 1 1 1.000000
  1 -116.091568 160.083328 6.013797 -1.000000 -0.000258 0.000290 0.980302 0.126332 1 1 1.000000
versus_doors
  1 -116.080597 96.850060 -6.008367 -1.000000 -0.000258 0.000290 0.919371 0.137152 1 1 1.000000
  1 -116.087616 131.121002 6.011199 -1.000000 -0.000258 0.000290 0.952140 0.126188 1 1 1.000000
  1 -116.080551 131.129333 -6.004629 -1.000000 -0.000258 0.000290 0.952043 0.137739 1 1 1.000000
versus_doors
  1 -116.080597 96.850060 -6.008367 -1.000000 -0.000258 0.000290 0.919371 0.137152 1 1 1.000000
  1 -116.082947 96.841736 6.008124 -1.000000 -0.000258 0.000290 0.919498 0.126036 1 1 1.000000
  1 -116.087616 131.121002 6.011199 -1.000000 -0.000258 0.000290 0.952140 0.126188 1 1 1.000000
versus_doors
  1 -116.080643 63.333263 -6.012022 -1.000000 -0.000258 0.000290 0.889317 0.136499 1 1 1.000000
  1 -116.082947 96.841736 6.008124 -1.000000 -0.000258 0.000290 0.919498 0.126036 1 1 1.000000
  1 -116.080597 96.850060 -6.008367 -1.000000 -0.000258 0.000290 0.919371 0.137152 1 1 1.000000
versus_doors
  1 -116.080643 63.333263 -6.012022 -1.000000 -0.000258 0.000290 0.889317 0.136499 1 1 1.000000
  1 -116.078384 63.324951 6.005118 -1.000000 -0.000258 0.000290 0.889358 0.126070 1 1 1.000000
  1 -116.082947 96.841736 6.008124 -1.000000 -0.000258 0.000290 0.919498 0.126036 1 1 1.000000
versus_doors
  1 -116.078384 63.324951 6.005118 -1.000000 -0.000258 0.000290 0.889358 0.126070 1 1 1.000000
  1 -116.080643 63.333263 -6.012022 -1.000000 -0.000258 0.000290 0.889317 0.136499 1 1 1.000000
  1 -116.080719 29.053978 -6.015760 -0.995658 -0.000238 -0.093087 0.860652 0.136156 1 1 1.000000
versus_doors
  1 -116.078384 63.324951 6.005118 -1.000000 -0.000258 0.000290 0.889358 0.126070 1 1 1.000000
  1 -116.080719 29.053978 -6.015760 -0.995658 -0.000238 -0.093087 0.860652 0.136156 1 1 1.000000
  1 -116.073700 29.045662 6.002043 -1.000000 -0.000258 0.000290 0.860646 0.126215 1 1 1.000000
versus_doors
  1 -116.069733 0.084419 -6.000555 -1.000000 -0.000258 0.000290 0.837089 0.136127 1 1 1.000000
  1 -116.073700 29.045662 6.002043 -1.000000 -0.000258 0.000290 0.860646 0.126215 1 1 1.000000
  1 -116.080719 29.053978 -6.015760 -1.000000 -0.000258 0.000290 0.860652 0.136156 1 1 1.000000
versus_doors
  1 -116.069733 0.084419 -6.000555 -1.000000 -0.000258 0.000290 0.837089 0.136127 1 1 1.000000
  1 -116.069763 0.083344 5.999445 -1.000000 -0.000258 0.000290 0.837037 0.126345 1 1 1.000000
  1 -116.073700 29.045662 6.002043 -1.000000 -0.000258 0.000290 0.860646 0.126215 1 1 1.000000
versus_doors
  2 115.992538 96.864433 6.008055 -0.000004 -0.000044 1.000000 0.923318 0.155544 1 2 1.000000
  2 115.997124 29.068356 6.005039 -0.000004 -0.000044 1.000000 0.861599 0.155539 1 2 1.000000
  2 115.994804 63.347649 6.006564 -0.000004 -0.000044 1.000000 0.892806 0.155541 1 2 1.000000
versus_doors
  2 115.997124 29.068356 6.005039 -0.000004 -0.000044 1.000000 0.861599 0.155539 1 2 1.000000
  2 -0.000923 0.099533 6.003327 -0.000004 -0.000044 1.000000 0.835227 0.252035 1 2 1.000000
  2 115.999084 0.106033 6.003752 -0.000004 -0.000044 1.000000 0.835233 0.155538 1 2 1.000000
versus_doors
  2 115.997124 29.068356 6.005039 -0.000004 -0.000044 1.000000 0.861599 0.155539 1 2 1.000000
  2 -0.002884 29.061867 6.004616 -0.000004 -0.000044 1.000000 0.861593 0.252037 1 2 1.000000
  2 -0.000923 0.099533 6.003327 -0.000004 -0.000044 1.000000 0.835227 0.252035 1 2 1.000000
versus_doors
  2 115.992538 96.864433 6.008055 -0.000004 -0.000044 1.000000 0.923318 0.155544 1 2 1.000000
  2 -0.002884 29.061867 6.004616 -0.000004 -0.000044 1.000000 0.861593 0.252037 1 2 1.000000
  2 115.997124 29.068356 6.005039 -0.000004 -0.000044 1.000000 0.861599 0.155539 1 2 1.000000
versus_doors
  2 115.992538 96.864433 6.008055 -0.000004 -0.000044 1.000000 0.923318 0.155544 1 2 1.000000
  2 -0.005196 63.341156 6.006141 -0.000004 -0.000044 1.000000 0.892800 0.252039 1 2 1.000000
  2 -0.002884 29.061867 6.004616 -0.000004 -0.000044 1.000000 0.861593 0.252037 1 2 1.000000
versus_doors
  2 115.992538 96.864433 6.008055 -0.000004 -0.000044 1.000000 0.923318 0.155544 1 2 1.000000
  2 -0.007465 96.857933 6.007632 -0.000004 -0.000044 1.000000 0.923312 0.252041 1 2 1.000000
  2 -0.005196 63.341156 6.006141 -0.000004 -0.000044 1.000000 0.892800 0.252039 1 2 1.000000
versus_doors
  2 115.992538 96.864433 6.008055 -0.000004 -0.000044 1.000000 0.923318 0.155544 1 2 1.000000
  2 -0.009781 131.137207 6.009155 -0.000004 -0.000044 1.000000 0.954518 0.252043 1 2 1.000000
  2 -0.007465 96.857933 6.007632 -0.000004 -0.000044 1.000000 0.923312 0.252041 1 2 1.000000
versus_doors
  2 115.992538 96.864433 6.008055 -0.000004 -0.000044 1.000000 0.923318 0.155544 1 2 1.000000
  2 115.990227 131.143723 6.009579 -0.000004 -0.000044 1.000000 0.954524 0.155546 1 2 1.000000
  2 -0.009781 131.137207 6.009155 -0.000004 -0.000044 1.000000 0.954518 0.252043 1 2 1.000000
versus_doors
  2 -0.009781 131.137207 6.009155 -0.000004 -0.000044 1.000000 0.954518 0.252043 1 2 1.000000
  2 115.990227 131.143723 6.009579 -0.000004 -0.000044 1.000000 0.954524 0.155546 1 2 1.000000
  2 115.988266 160.106049 6.010866 -0.000004 -0.000044 1.000000 0.980890 0.155547 1 2 1.000000
versus_doors
  2 -0.009781 131.137207 6.009155 -0.000004 -0.000044 1.000000 0.954518 0.252043 1 2 1.000000
  2 115.988266 160.106049 6.010866 -0.000004 -0.000044 1.000000 0.980890 0.155547 1 2 1.000000
  2 -0.011734 160.099548 6.010443 -0.000004 -0.000044 1.000000 0.980884 0.252045 1 2 1.000000
versus_doors
  1 -1.389465 131.920837 -7.249992 0.712314 0.001819 -0.701858 0.514749 0.870344 1 1 1.000000
  1 -1.297329 160.097427 -7.083472 0.712314 0.001819 -0.701858 0.514241 0.987323 1 1 1.000000
  1 -1.308926 131.667725 -7.102115 0.878164 -0.000045 -0.478359 0.514416 0.869299 1 1 1.000000
versus_doors
  1 -1.389465 131.920837 -7.249992 0.712314 0.001819 -0.701858 0.514749 0.870344 1 1 1.000000
  1 -1.577061 159.911911 -7.242009 0.491288 0.003541 -0.870990 0.515403 0.986547 1 1 1.000000
  1 -1.297329 160.097427 -7.083472 0.712314 0.001819 -0.701858 0.514241 0.987323 1 1 1.000000
versus_doors
  1 -115.902405 131.902573 -7.211065 -0.011108 -0.387341 -0.921869 0.990162 0.870779 1 1 1.000000
  1 -55.657146 131.295288 -7.681837 -0.003540 -0.429836 -0.902900 0.740050 0.867970 1 1 1.000000
  1 -116.086990 131.643295 -7.082635 -0.011108 -0.387341 -0.921869 0.990930 0.869709 1 1 1.000000
versus_doors
  1 -115.902405 131.902573 -7.211065 -0.011108 -0.387341 -0.921869 0.990162 0.870779 1 1 1.000000
  1 -55.472710 131.582199 -7.787335 -0.003540 -0.429836 -0.902900 0.739283 0.869156 1 1 1.000000
  1 -55.657146 131.295288 -7.681837 -0.003540 -0.429836 -0.902900 0.740050 0.867970 1 1 1.000000
versus_doors
  1 -25.493864 131.637115 -7.679511 0.012706 -0.509736 -0.860237 0.614822 0.869255 1 1 1.000000
  1 -55.657146 131.295288 -7.681837 -0.003540 -0.429836 -0.902900 0.740050 0.867970 1 1 1.000000
  1 -55.472710 131.582199 -7.787335 -0.003540 -0.429836 -0.902900 0.739283 0.869156 1 1 1.000000
versus_doors
  1 -25.493864 131.637115 -7.679511 0.012706 -0.509736 -0.860237 0.614822 0.869255 1 1 1.000000
  1 -55.472710 131.582199 -7.787335 -0.003540 -0.429836 -0.902900 0.739283 0.869156 1 1 1.000000
  1 -25.677721 131.834229 -7.832721 0.012706 -0.509736 -0.860237 0.615584 0.870068 1 1 1.000000
versus_doors
  1 -1.389465 131.920837 -7.249992 0.021350 -0.547070 -0.836815 0.514749 0.870344 1 1 1.000000
  1 -25.493864 131.637115 -7.679511 0.012706 -0.509736 -0.860237 0.614822 0.869255 1 1 1.000000
  1 -25.677721 131.834229 -7.832721 0.012706 -0.509736 -0.860237 0.615584 0.870068 1 1 1.000000
versus_doors
  1 -1.389465 131.920837 -7.249992 0.021350 -0.547070 -0.836815 0.514749 0.870344 1 1 1.000000
  1 -1.308926 131.667725 -7.102115 0.021350 -0.547070 -0.836815 0.514416 0.869299 1 1 1.000000
  1 -25.493864 131.637115 -7.679511 0.012706 -0.509736 -0.860237 0.614822 0.869255 1 1 1.000000
versus_doors
  1 -116.078384 63.324951 6.005118 -0.000003 -0.000090 1.000000 0.893275 0.122529 1 1 1.000000
  1 -116.087616 131.121002 6.011199 -0.000003 -0.000090 1.000000 0.954091 0.122537 1 1 1.000000
  1 -116.082947 96.841736 6.008124 -0.000003 -0.000090 1.000000 0.923341 0.122533 1 1 1.000000
versus_doors
  1 -0.073715 29.058735 6.002358 -0.000003 -0.000090 1.000000 0.862536 0.027438 1 1 1.000000
  1 -116.069763 0.083344 5.999445 -0.000003 -0.000090 1.000000 0.836544 0.122521 1 1 1.000000
  1 -0.069775 0.096413 5.999761 -0.000003 -0.000090 1.000000 0.836555 0.027434 1 1 1.000000
versus_doors
  1 -0.073715 29.058735 6.002358 -0.000003 -0.000090 1.000000 0.862536 0.027438 1 1 1.000000
  1 -116.073700 29.045662 6.002043 -0.000003 -0.000090 1.000000 0.862524 0.122525 1 1 1.000000
  1 -116.069763 0.083344 5.999445 -0.000003 -0.000090 1.000000 0.836544 0.122521 1 1 1.000000
versus_doors
  1 -116.078384 63.324951 6.005118 -0.000003 -0.000090 1.000000 0.893275 0.122529 1 1 1.000000
  1 -116.073700 29.045662 6.002043 -0.000003 -0.000090 1.000000 0.862524 0.122525 1 1 1.000000
  1 -0.073715 29.058735 6.002358 -0.000003 -0.000090 1.000000 0.862536 0.027438 1 1 1.000000
versus_doors
  1 -116.078384 63.324951 6.005118 -0.000003 -0.000090 1.000000 0.893275 0.122529 1 1 1.000000
  1 -0.073715 29.058735 6.002358 -0.000003 -0.000090 1.000000 0.862536 0.027438 1 1 1.000000
  1 -0.078381 63.338020 6.005433 -0.000003 -0.000090 1.000000 0.893286 0.027442 1 1 1.000000
versus_doors
  1 -116.078384 63.324951 6.005118 -0.000003 -0.000090 1.000000 0.893275 0.122529 1 1 1.000000
  1 -0.078381 63.338020 6.005433 -0.000003 -0.000090 1.000000 0.893286 0.027442 1 1 1.000000
  1 -0.082943 96.854805 6.008441 -0.000003 -0.000090 1.000000 0.923353 0.027446 1 1 1.000000
versus_doors
  1 -116.078384 63.324951 6.005118 -0.000003 -0.000090 1.000000 0.893275 0.122529 1 1 1.000000
  1 -0.082943 96.854805 6.008441 -0.000003 -0.000090 1.000000 0.923353 0.027446 1 1 1.000000
  1 -0.087616 131.134079 6.011516 -0.000003 -0.000090 1.000000 0.954103 0.027450 1 1 1.000000
versus_doors
  1 -116.078384 63.324951 6.005118 -0.000003 -0.000090 1.000000 0.893275 0.122529 1 1 1.000000
  1 -0.087616 131.134079 6.011516 -0.000003 -0.000090 1.000000 0.954103 0.027450 1 1 1.000000
  1 -116.087616 131.121002 6.011199 -0.000003 -0.000090 1.000000 0.954091 0.122537 1 1 1.000000
versus_doors
  1 -116.087616 131.121002 6.011199 -0.000003 -0.000090 1.000000 0.954091 0.122537 1 1 1.000000
  1 -0.087616 131.134079 6.011516 -0.000003 -0.000090 1.000000 0.954103 0.027450 1 1 1.000000
  1 -0.091557 160.096405 6.014114 -0.000003 -0.000090 1.000000 0.980084 0.027454 1 1 1.000000
versus_doors
  1 -116.087616 131.121002 6.011199 -0.000003 -0.000090 1.000000 0.954091 0.122537 1 1 1.000000
  1 -0.091557 160.096405 6.014114 -0.000003 -0.000090 1.000000 0.980084 0.027454 1 1 1.000000
  1 -116.091568 160.083328 6.013797 -0.000003 -0.000090 1.000000 0.980072 0.122541 1 1 1.000000
versus_doors
  1 -116.086990 131.643295 -7.082635 -0.595329 -0.022847 -0.803157 0.990930 0.869709 1 1 1.000000
  1 -115.902573 132.095505 -7.221309 -0.595329 -0.022847 -0.803157 0.990162 0.871579 1 1 1.000000
  1 -115.902405 131.902573 -7.211065 -0.526626 -0.045540 -0.848876 0.990162 0.870779 1 1 1.000000
versus_doors
  1 -116.091507 160.084518 -7.054998 -0.659670 0.000013 -0.751555 0.990822 0.987781 1 1 1.000000
  1 -115.902573 132.095505 -7.221309 -0.595329 -0.022847 -0.803157 0.990162 0.871579 1 1 1.000000
  1 -116.086990 131.643295 -7.082635 -0.595329 -0.022847 -0.803157 0.990930 0.869709 1 1 1.000000
versus_doors
  1 -116.091507 160.084518 -7.054998 -0.659670 0.000013 -0.751555 0.990822 0.987781 1 1 1.000000
  1 -115.906006 159.899048 -7.241026 -0.659670 0.000013 -0.751555 0.990053 0.987002 1 1 1.000000
  1 -115.902573 132.095505 -7.221309 -0.595329 -0.022847 -0.803157 0.990162 0.871579 1 1 1.000000
versus_doors
  1 -116.080643 63.333263 -6.012022 0.005070 -0.003974 -0.999979 0.987918 0.567650 1 1 1.000000
  1 -1.023651 29.052452 -5.981816 0.005070 -0.003974 -0.999979 0.518122 0.425213 1 1 1.000000
  1 -116.080719 29.053978 -6.015760 0.005070 -0.003974 -0.999979 0.987971 0.425470 1 1 1.000000
versus_doors
  1 -116.080643 63.333263 -6.012022 0.005070 -0.003974 -0.999979 0.987918 0.567650 1 1 1.000000
  1 -1.023594 63.331730 -5.978079 0.005070 -0.003974 -0.999979 0.518069 0.567535 1 1 1.000000
  1 -1.023651 29.052452 -5.981816 0.005070 -0.003974 -0.999979 0.518122 0.425213 1 1 1.000000
versus_doors
  1 -116.080643 63.333263 -6.012022 0.005070 -0.003974 -0.999979 0.987918 0.567650 1 1 1.000000
  1 -1.023540 96.848511 -5.974422 0.005070 -0.003974 -0.999979 0.518017 0.706691 1 1 1.000000
  1 -1.023594 63.331730 -5.978079 0.005070 -0.003974 -0.999979 0.518069 0.567535 1 1 1.000000
versus_doors
  1 -116.080643 63.333263 -6.012022 0.005070 -0.003974 -0.999979 0.987918 0.567650 1 1 1.000000
  1 -1.023483 131.127792 -5.970684 0.005070 -0.003974 -0.999979 0.517963 0.849012 1 1 1.000000
  1 -1.023540 96.848511 -5.974422 0.005070 -0.003974 -0.999979 0.518017 0.706691 1 1 1.000000
versus_doors
  1 -116.080643 63.333263 -6.012022 0.005070 -0.003974 -0.999979 0.987918 0.567650 1 1 1.000000
  1 -116.080551 131.129333 -6.004629 0.005070 -0.003974 -0.999979 0.987812 0.848845 1 1 1.000000
  1 -1.023483 131.127792 -5.970684 0.005070 -0.003974 -0.999979 0.517963 0.849012 1 1 1.000000
versus_doors
  1 -116.080643 63.333263 -6.012022 0.005070 -0.003974 -0.999979 0.987918 0.567650 1 1 1.000000
  1 -116.080597 96.850060 -6.008367 0.005070 -0.003974 -0.999979 0.987866 0.706666 1 1 1.000000
  1 -116.080551 131.129333 -6.004629 0.005070 -0.003974 -0.999979 0.987812 0.848845 1 1 1.000000
versus_doors
  2 0.950932 28.658337 -7.684282 -0.911373 -0.007530 -0.411512 0.150283 0.271274 1 2 1.000000
  2 -0.000870 0.100037 -5.053733 -0.911373 -0.007530 -0.411512 0.026425 0.259169 1 2 1.000000
  2 -0.002831 28.884109 -5.052444 -0.911373 -0.007530 -0.411512 0.151256 0.259169 1 2 1.000000
versus_doors
  2 0.950932 28.658337 -7.684282 -0.911373 -0.007530 -0.411512 0.150283 0.271274 1 2 1.000000
  2 1.106102 0.100197 -6.981678 -0.911373 -0.007530 -0.411512 0.026418 0.268765 1 2 1.000000
  2 -0.000870 0.100037 -5.053733 -0.911373 -0.007530 -0.411512 0.026425 0.259169 1 2 1.000000
versus_doors
  1 -115.383331 28.373650 -7.257059 0.005070 -0.003974 -0.999979 0.980809 0.399322 1 1 1.000000
  1 -1.699173 0.430031 -7.257758 0.005070 -0.003974 -0.999979 0.518843 0.285725 1 1 1.000000
  1 -115.380020 0.417213 -7.260432 0.005070 -0.003974 -0.999979 0.980803 0.285725 1 1 1.000000
versus_doors
  1 -115.383331 28.373650 -7.257059 0.005070 -0.003974 -0.999979 0.980809 0.399322 1 1 1.000000
  1 -1.425232 28.279472 -7.999795 0.005070 -0.003974 -0.999979 0.517711 0.398926 1 1 1.000000
  1 -1.699173 0.430031 -7.257758 0.005070 -0.003974 -0.999979 0.518843 0.285725 1 1 1.000000
versus_doors
  1 -115.383331 28.373650 -7.257059 -0.595329 -0.022847 -0.803157 0.980809 0.399322 1 1 1.000000
  1 -115.803696 0.084526 -6.934917 -0.595329 -0.022847 -0.803157 0.982530 0.284357 1 1 1.000000
  1 -115.806381 28.792633 -6.951922 -0.595329 -0.022847 -0.803157 0.982532 0.401009 1 1 1.000000
versus_doors
  1 -115.383331 28.373650 -7.257059 -0.595329 -0.022847 -0.803157 0.980809 0.399322 1 1 1.000000
  1 -115.380020 0.417213 -7.260432 -0.595329 -0.022847 -0.803157 0.980803 0.285725 1 1 1.000000
  1 -115.803696 0.084526 -6.934917 -0.595329 -0.022847 -0.803157 0.982530 0.284357 1 1 1.000000
versus_doors
  1 -115.803696 0.084526 -6.934917 -0.000040 -0.675679 -0.737195 0.982530 0.284357 1 1 1.000000
  1 -1.699173 0.430031 -7.257758 -0.000040 -0.675679 -0.737195 0.518843 0.285725 1 1 1.000000
  1 -1.200775 0.097435 -6.973513 -0.000040 -0.675679 -0.737195 0.516821 0.284359 1 1 1.000000
versus_doors
  1 -115.803696 0.084526 -6.934917 -0.000040 -0.675679 -0.737195 0.982530 0.284357 1 1 1.000000
  1 -115.380020 0.417213 -7.260432 -0.000040 -0.675679 -0.737195 0.980803 0.285725 1 1 1.000000
  1 -1.699173 0.430031 -7.257758 -0.000040 -0.675679 -0.737195 0.518843 0.285725 1 1 1.000000
versus_doors
  1 -1.200775 0.097435 -6.973513 0.558899 -0.025732 -0.828836 0.516821 0.284359 1 1 1.000000
  1 -1.425232 28.279472 -7.999795 0.558899 -0.025732 -0.828836 0.517711 0.398926 1 1 1.000000
  1 -1.033062 28.656116 -7.684882 0.558899 -0.025732 -0.828836 0.516122 0.400440 1 1 1.000000
versus_doors
  1 -1.200775 0.097435 -6.973513 0.558899 -0.025732 -0.828836 0.516821 0.284359 1 1 1.000000
  1 -1.699173 0.430031 -7.257758 0.558899 -0.025732 -0.828836 0.518843 0.285725 1 1 1.000000
  1 -1.425232 28.279472 -7.999795 0.558899 -0.025732 -0.828836 0.517711 0.398926 1 1 1.000000
versus_doors
  1 -1.033062 28.656116 -7.684882 -0.004469 0.614585 -0.788838 0.516122 0.400440 1 1 1.000000
  1 -115.383331 28.373650 -7.257059 -0.004469 0.614585 -0.788838 0.980809 0.399322 1 1 1.000000
  1 -115.806381 28.792633 -6.951922 -0.004469 0.614585 -0.788838 0.982532 0.401009 1 1 1.000000
versus_doors
  1 -1.033062 28.656116 -7.684882 -0.004469 0.614585 -0.788838 0.516122 0.400440 1 1 1.000000
  1 -1.425232 28.279472 -7.999795 -0.004469 0.614585 -0.788838 0.517711 0.398926 1 1 1.000000
  1 -115.383331 28.373650 -7.257059 -0.004469 0.614585 -0.788838 0.980809 0.399322 1 1 1.000000
versus_doors
  1 -0.069736 0.097404 -5.057299 0.908679 -0.007755 -0.417424 0.030153 0.182515 1 1 1.000000
  1 -1.033062 28.656116 -7.684882 0.908679 -0.007755 -0.417424 0.152203 0.170589 1 1 1.000000
  1 -0.073681 28.881481 -5.054701 0.908679 -0.007755 -0.417424 0.153159 0.182515 1 1 1.000000
versus_doors
  1 -0.069736 0.097404 -5.057299 0.908679 -0.007755 -0.417424 0.030153 0.182515 1 1 1.000000
  1 -1.200775 0.097435 -6.973513 0.908679 -0.007755 -0.417424 0.030145 0.173056 1 1 1.000000
  1 -1.033062 28.656116 -7.684882 0.908679 -0.007755 -0.417424 0.152203 0.170589 1 1 1.000000
versus_doors
  1 12.101349 91.829132 3.940510 1.000000 0.000137 -0.000007 0.096699 0.064565 1 1 1.000000
  1 12.104565 68.368095 -3.926556 1.000000 0.000137 -0.000007 0.111403 0.020715 1 1 1.000000
  1 12.101376 91.829842 -3.924451 1.000000 0.000137 -0.000007 0.111399 0.064567 1 1 1.000000
versus_doors
  1 12.101349 91.829132 3.940510 1.000000 0.000137 -0.000007 0.096699 0.064565 1 1 1.000000
  1 12.104542 68.367386 3.938406 1.000000 0.000137 -0.000007 0.096703 0.020714 1 1 1.000000
  1 12.104565 68.368095 -3.926556 1.000000 0.000137 -0.000007 0.111403 0.020715 1 1 1.000000
versus_doors
  1 -0.078373 63.338211 3.937914 -0.000003 -0.000090 1.000000 0.113170 0.086806 1 1 1.000000
  1 12.101349 91.829132 3.940510 -0.000003 -0.000090 1.000000 0.135935 0.140057 1 1 1.000000
  1 -0.082935 96.854996 3.940921 -0.000003 -0.000090 1.000000 0.113162 0.149450 1 1 1.000000
versus_doors
  1 -0.078373 63.338211 3.937914 -0.000003 -0.000090 1.000000 0.113170 0.086806 1 1 1.000000
  1 12.104542 68.367386 3.938406 -0.000003 -0.000090 1.000000 0.135941 0.096205 1 1 1.000000
  1 12.101349 91.829132 3.940510 -0.000003 -0.000090 1.000000 0.135935 0.140057 1 1 1.000000
versus_doors
  1 12.101349 91.829132 3.940510 0.381320 0.924443 0.000084 0.069515 0.049489 1 1 1.000000
  1 -0.082912 96.855690 -3.924040 0.381320 0.924443 0.000084 0.044881 0.064189 1 1 1.000000
  1 -0.082935 96.854996 3.940921 0.381320 0.924443 0.000084 0.044881 0.049489 1 1 1.000000
versus_doors
  1 12.101349 91.829132 3.940510 0.381320 0.924443 0.000084 0.069515 0.049489 1 1 1.000000
  1 12.101376 91.829842 -3.924451 0.381320 0.924443 0.000084 0.069515 0.064189 1 1 1.000000
  1 -0.082912 96.855690 -3.924040 0.381320 0.924443 0.000084 0.044881 0.064189 1 1 1.000000
versus_doors
  1 12.104565 68.368095 -3.926556 0.381573 -0.924339 -0.000082 0.020247 0.064189 1 1 1.000000
  1 -0.078373 63.338211 3.937914 0.381573 -0.924339 -0.000082 0.044881 0.049489 1 1 1.000000
  1 -0.078346 63.338913 -3.927047 0.381573 -0.924339 -0.000082 0.044881 0.064189 1 1 1.000000
versus_doors
  1 12.104565 68.368095 -3.926556 0.381573 -0.924339 -0.000082 0.020247 0.064189 1 1 1.000000
  1 12.104542 68.367386 3.938406 0.381573 -0.924339 -0.000082 0.020247 0.049489 1 1 1.000000
  1 -0.078373 63.338211 3.937914 0.381573 -0.924339 -0.000082 0.044881 0.049489 1 1 1.000000
versus_doors
  1 -0.082912 96.855690 -3.924040 0.005070 -0.003974 -0.999979 0.453204 0.193351 1 1 1.000000
  1 12.104565 68.368095 -3.926556 0.005070 -0.003974 -0.999979 0.331465 0.245446 1 1 1.000000
  1 -0.078346 63.338913 -3.927047 0.005070 -0.003974 -0.999979 0.309968 0.193383 1 1 1.000000
versus_doors
  1 -0.082912 96.855690 -3.924040 0.005070 -0.003974 -0.999979 0.453204 0.193351 1 1 1.000000
  1 12.101376 91.829842 -3.924451 0.005070 -0.003974 -0.999979 0.431730 0.245423 1 1 1.000000
  1 12.104565 68.368095 -3.926556 0.005070 -0.003974 -0.999979 0.331465 0.245446 1 1 1.000000
versus_doors
  1 12.110508 24.716930 -3.930471 0.335732 0.941957 0.000086 0.198633 0.035413 1 1 1.000000
  1 -0.073711 28.880672 3.934839 0.335732 0.941957 0.000086 0.174514 0.020802 1 1 1.000000
  1 12.110485 24.716225 3.934490 0.335732 0.941957 0.000086 0.198580 0.020714 1 1 1.000000
versus_doors
  1 12.110508 24.716930 -3.930471 0.335732 0.941957 0.000086 0.198633 0.035413 1 1 1.000000
  1 -0.073685 29.059624 -3.930122 0.335732 0.941957 0.000086 0.174459 0.035505 1 1 1.000000
  1 -0.073711 28.880672 3.934839 0.335732 0.941957 0.000086 0.174514 0.020802 1 1 1.000000
versus_doors
  1 12.110508 24.716930 -3.930471 1.000000 0.000137 -0.000007 0.126103 0.058608 1 1 1.000000
  1 12.113243 4.442604 3.932671 1.000000 0.000137 -0.000007 0.111406 0.020714 1 1 1.000000
  1 12.113270 4.443306 -3.932290 1.000000 0.000137 -0.000007 0.126106 0.020715 1 1 1.000000
versus_doors
  1 12.110508 24.716930 -3.930471 1.000000 0.000137 -0.000007 0.126103 0.058608 1 1 1.000000
  1 12.110485 24.716225 3.934490 1.000000 0.000137 -0.000007 0.111403 0.058607 1 1 1.000000
  1 12.113243 4.442604 3.932671 1.000000 0.000137 -0.000007 0.111406 0.020714 1 1 1.000000
versus_doors
  1 12.092667 155.754608 -3.918716 1.000000 0.000137 -0.000007 0.089727 0.029140 1 1 1.000000
  1 12.095402 135.480270 3.944426 1.000000 0.000137 -0.000007 0.051833 0.043837 1 1 1.000000
  1 12.095428 135.480972 -3.920535 1.000000 0.000137 -0.000007 0.051835 0.029137 1 1 1.000000
versus_doors
  1 12.092667 155.754608 -3.918716 1.000000 0.000137 -0.000007 0.089727 0.029140 1 1 1.000000
  1 12.092644 155.753906 3.946245 1.000000 0.000137 -0.000007 0.089726 0.043840 1 1 1.000000
  1 12.095402 135.480270 3.944426 1.000000 0.000137 -0.000007 0.051833 0.043837 1 1 1.000000
versus_doors
  1 12.113243 4.442604 3.932671 -0.000003 -0.000090 1.000000 0.071098 0.099953 1 1 1.000000
  1 -0.073711 28.880672 3.934839 -0.000003 -0.000090 1.000000 0.048320 0.145629 1 1 1.000000
  1 -0.069767 0.096596 3.932241 -0.000003 -0.000090 1.000000 0.048328 0.091830 1 1 1.000000
versus_doors
  1 12.113243 4.442604 3.932671 -0.000003 -0.000090 1.000000 0.071098 0.099953 1 1 1.000000
  1 12.110485 24.716225 3.934490 -0.000003 -0.000090 1.000000 0.071093 0.137846 1 1 1.000000
  1 -0.073711 28.880672 3.934839 -0.000003 -0.000090 1.000000 0.048320 0.145629 1 1 1.000000
versus_doors
  1 12.092667 155.754608 -3.918716 0.005070 -0.003974 -0.999979 0.710988 0.246043 1 1 1.000000
  1 -0.087582 131.134979 -3.920965 0.005070 -0.003974 -0.999979 0.605770 0.194000 1 1 1.000000
  1 -0.091526 160.097321 -3.918367 0.005070 -0.003974 -0.999979 0.729542 0.193972 1 1 1.000000
versus_doors
  1 12.092667 155.754608 -3.918716 0.005070 -0.003974 -0.999979 0.710988 0.246043 1 1 1.000000
  1 12.095428 135.480972 -3.920535 0.005070 -0.003974 -0.999979 0.624348 0.246063 1 1 1.000000
  1 -0.087582 131.134979 -3.920965 0.005070 -0.003974 -0.999979 0.605770 0.194000 1 1 1.000000
versus_doors
  2 115.988312 160.106598 -7.057930 0.000080 0.671077 -0.741387 0.015556 0.989666 1 2 1.000000
  2 1.473896 159.914734 -7.243896 0.000080 0.671077 -0.741387 0.488793 0.988897 1 2 1.000000
  2 1.180710 160.100204 -7.093681 0.000080 0.671077 -0.741387 0.490004 0.989666 1 2 1.000000
versus_doors
  2 115.988312 160.106598 -7.057930 0.000080 0.671077 -0.741387 0.015556 0.989666 1 2 1.000000
  2 115.802826 159.921112 -7.243474 0.000080 0.671077 -0.741387 0.016324 0.988897 1 2 1.000000
  2 1.473896 159.914734 -7.243896 0.000080 0.671077 -0.741387 0.488793 0.988897 1 2 1.000000
versus_doors
  2 115.988312 160.106598 -7.057930 0.700859 0.000335 -0.713299 0.015556 0.989666 1 2 1.000000
  2 115.804550 131.671661 -7.251831 0.700859 0.000335 -0.713299 0.016323 0.872156 1 2 1.000000
  2 115.802826 159.921112 -7.243474 0.700859 0.000335 -0.713299 0.016324 0.988897 1 2 1.000000
versus_doors
  2 115.988312 160.106598 -7.057930 0.700859 0.000335 -0.713299 0.015556 0.989666 1 2 1.000000
  2 115.990105 131.437637 -7.072845 0.700859 0.000335 -0.713299 0.015556 0.871191 1 2 1.000000
  2 115.804550 131.671661 -7.251831 0.700859 0.000335 -0.713299 0.016323 0.872156 1 2 1.000000
versus_doors
  2 1.628441 0.432869 -7.254197 0.000004 0.000044 -1.000000 0.489636 0.279807 1 2 1.000000
  2 115.305397 28.394077 -7.253195 0.000004 0.000044 -1.000000 0.020790 0.395092 1 2 1.000000
  2 115.309334 0.439194 -7.256154 0.000004 0.000044 -1.000000 0.020785 0.279807 1 2 1.000000
versus_doors
  2 1.628441 0.432869 -7.254197 0.000004 0.000044 -1.000000 0.489636 0.279807 1 2 1.000000
  2 1.342892 28.280621 -7.999100 0.000004 0.000044 -1.000000 0.490813 0.394689 1 2 1.000000
  2 115.305397 28.394077 -7.253195 0.000004 0.000044 -1.000000 0.020790 0.395092 1 2 1.000000
versus_doors
  2 115.733093 0.106598 -6.930614 0.599102 -0.000072 -0.800672 0.019033 0.278418 1 2 1.000000
  2 115.305397 28.394077 -7.253195 0.599102 -0.000072 -0.800672 0.020790 0.395092 1 2 1.000000
  2 115.726158 28.810940 -6.946833 0.599102 -0.000072 -0.800672 0.019050 0.396795 1 2 1.000000
versus_doors
  2 115.733093 0.106598 -6.930614 0.599102 -0.000072 -0.800672 0.019033 0.278418 1 2 1.000000
  2 115.309334 0.439194 -7.256154 0.599102 -0.000072 -0.800672 0.020785 0.279807 1 2 1.000000
  2 115.305397 28.394077 -7.253195 0.599102 -0.000072 -0.800672 0.020790 0.395092 1 2 1.000000
versus_doors
  2 115.305397 28.394077 -7.253195 0.004393 0.615795 -0.787894 0.020790 0.395092 1 2 1.000000
  2 0.950932 28.658337 -7.684282 0.004393 0.615795 -0.787894 0.492425 0.396230 1 2 1.000000
  2 115.726158 28.810940 -6.946833 0.004393 0.615795 -0.787894 0.019050 0.396795 1 2 1.000000
versus_doors
  2 115.305397 28.394077 -7.253195 0.004393 0.615795 -0.787894 0.020790 0.395092 1 2 1.000000
  2 1.342892 28.280621 -7.999100 0.004393 0.615795 -0.787894 0.490813 0.394689 1 2 1.000000
  2 0.950932 28.658337 -7.684282 0.004393 0.615795 -0.787894 0.492425 0.396230 1 2 1.000000
versus_doors
  2 1.342892 28.280621 -7.999100 -0.541199 -0.025798 -0.840499 0.490813 0.394689 1 2 1.000000
  2 1.106102 0.100197 -6.981678 -0.541199 -0.025798 -0.840499 0.491787 0.278421 1 2 1.000000
  2 0.950932 28.658337 -7.684282 -0.541199 -0.025798 -0.840499 0.492425 0.396230 1 2 1.000000
versus_doors
  2 1.342892 28.280621 -7.999100 -0.541199 -0.025798 -0.840499 0.490813 0.394689 1 2 1.000000
  2 1.628441 0.432869 -7.254197 -0.541199 -0.025798 -0.840499 0.489636 0.279807 1 2 1.000000
  2 1.106102 0.100197 -6.981678 -0.541199 -0.025798 -0.840499 0.491787 0.278421 1 2 1.000000
versus_doors
  2 1.628441 0.432869 -7.254197 0.000197 -0.668560 -0.743658 0.489636 0.279807 1 2 1.000000
  2 115.733093 0.106598 -6.930614 0.000197 -0.668560 -0.743658 0.019033 0.278418 1 2 1.000000
  2 1.106102 0.100197 -6.981678 0.000197 -0.668560 -0.743658 0.491787 0.278421 1 2 1.000000
versus_doors
  2 1.628441 0.432869 -7.254197 0.000197 -0.668560 -0.743658 0.489636 0.279807 1 2 1.000000
  2 115.309334 0.439194 -7.256154 0.000197 -0.668560 -0.743658 0.020785 0.279807 1 2 1.000000
  2 115.733093 0.106598 -6.930614 0.000197 -0.668560 -0.743658 0.019033 0.278418 1 2 1.000000
versus_doors
  2 0.265633 131.216629 -6.394808 0.012407 -0.977368 -0.211182 0.490939 0.857748 1 2 1.000000
  2 0.933208 131.137802 -5.990841 0.012407 -0.977368 -0.211182 0.488187 0.856062 1 2 1.000000
  2 -0.009731 131.137711 -5.047905 0.012407 -0.977368 -0.211182 0.492072 0.852338 1 2 1.000000
versus_doors
  2 0.265633 131.216629 -6.394808 0.012407 -0.977368 -0.211182 0.490939 0.857748 1 2 1.000000
  2 1.445175 131.661469 -7.386505 0.012407 -0.977368 -0.211182 0.486080 0.862194 1 2 1.000000
  2 0.933208 131.137802 -5.990841 0.012407 -0.977368 -0.211182 0.488187 0.856062 1 2 1.000000
versus_doors
  2 -0.009731 131.137711 -5.047905 -0.960506 0.062591 -0.271129 0.602398 0.256937 1 2 1.000000
  2 0.436394 132.755280 -6.263301 -0.960506 0.062591 -0.271129 0.609408 0.262468 1 2 1.000000
  2 0.265633 131.216629 -6.394808 -0.973526 0.124431 -0.191741 0.602732 0.262590 1 2 1.000000
versus_doors
  2 -0.011692 160.100037 -5.046617 -0.937597 0.000108 -0.347724 0.727995 0.256937 1 2 1.000000
  2 0.436394 132.755280 -6.263301 -0.960506 0.062591 -0.271129 0.609408 0.262468 1 2 1.000000
  2 -0.009731 131.137711 -5.047905 -0.960506 0.062591 -0.271129 0.602398 0.256937 1 2 1.000000
versus_doors
  2 -0.011692 160.100037 -5.046617 -0.937597 0.000108 -0.347724 0.727995 0.256937 1 2 1.000000
  2 0.443321 160.100128 -6.260530 -0.937597 0.000108 -0.347724 0.727991 0.262482 1 2 1.000000
  2 0.436394 132.755280 -6.263301 -0.960506 0.062591 -0.271129 0.609408 0.262468 1 2 1.000000
versus_doors
  2 -11.439823 58.198933 -3.926620 -0.410169 0.912010 0.000038 0.182155 0.058792 1 2 1.000000
  2 -0.005184 63.341244 3.938621 -0.410169 0.912010 0.000038 0.205937 0.043874 1 2 1.000000
  2 -0.005150 63.341591 -3.926341 -0.410169 0.912010 0.000038 0.205937 0.058792 1 2 1.000000
versus_doors
  2 -11.439823 58.198933 -3.926620 -0.410169 0.912010 0.000038 0.182155 0.058792 1 2 1.000000
  2 -11.439857 58.198578 3.938342 -0.410169 0.912010 0.000038 0.182155 0.043874 1 2 1.000000
  2 -0.005184 63.341244 3.938621 -0.410169 0.912010 0.000038 0.205937 0.043874 1 2 1.000000
versus_doors
  2 -11.442791 101.999504 -3.924671 0.000004 0.000044 -1.000000 0.476991 0.195979 1 2 1.000000
  2 -0.009735 131.137634 -3.923325 0.000004 0.000044 -1.000000 0.603364 0.245558 1 2 1.000000
  2 -0.007423 96.858383 -3.924850 0.000004 0.000044 -1.000000 0.454697 0.245574 1 2 1.000000
versus_doors
  2 -11.442791 101.999504 -3.924671 0.000004 0.000044 -1.000000 0.476991 0.195979 1 2 1.000000
  2 -11.444408 125.995003 -3.923605 0.000004 0.000044 -1.000000 0.581058 0.195967 1 2 1.000000
  2 -0.009735 131.137634 -3.923325 0.000004 0.000044 -1.000000 0.603364 0.245558 1 2 1.000000
versus_doors
  2 -11.438202 34.203423 -3.927687 0.000004 0.000044 -1.000000 0.182973 0.197562 1 2 1.000000
  2 -0.005150 63.341591 -3.926341 0.000004 0.000044 -1.000000 0.309345 0.247141 1 2 1.000000
  2 -0.002838 29.062302 -3.927865 0.000004 0.000044 -1.000000 0.160679 0.247157 1 2 1.000000
versus_doors
  2 -11.438202 34.203423 -3.927687 0.000004 0.000044 -1.000000 0.182973 0.197562 1 2 1.000000
  2 -11.439823 58.198933 -3.926620 0.000004 0.000044 -1.000000 0.287040 0.197550 1 2 1.000000
  2 -0.005150 63.341591 -3.926341 0.000004 0.000044 -1.000000 0.309345 0.247141 1 2 1.000000
versus_doors
  2 -11.439857 58.198578 3.938342 -1.000000 -0.000068 -0.000004 0.442522 0.151284 1 2 1.000000
  2 -11.438202 34.203423 -3.927687 -1.000000 -0.000068 -0.000004 0.427602 0.105770 1 2 1.000000
  2 -11.438232 34.203079 3.937274 -1.000000 -0.000068 -0.000004 0.442520 0.105770 1 2 1.000000
versus_doors
  2 -11.439857 58.198578 3.938342 -1.000000 -0.000068 -0.000004 0.442522 0.151284 1 2 1.000000
  2 -11.439823 58.198933 -3.926620 -1.000000 -0.000068 -0.000004 0.427604 0.151284 1 2 1.000000
  2 -11.438202 34.203423 -3.927687 -1.000000 -0.000068 -0.000004 0.427602 0.105770 1 2 1.000000
versus_doors
  2 -0.005184 63.341244 3.938621 -0.000004 -0.000044 1.000000 0.168628 0.152940 1 2 1.000000
  2 -11.438232 34.203079 3.937274 -0.000004 -0.000044 1.000000 0.146942 0.097672 1 2 1.000000
  2 -0.002876 29.061958 3.937097 -0.000004 -0.000044 1.000000 0.168633 0.087920 1 2 1.000000
versus_doors
  2 -0.005184 63.341244 3.938621 -0.000004 -0.000044 1.000000 0.168628 0.152940 1 2 1.000000
  2 -11.439857 58.198578 3.938342 -0.000004 -0.000044 1.000000 0.146939 0.143186 1 2 1.000000
  2 -11.438232 34.203079 3.937274 -0.000004 -0.000044 1.000000 0.146942 0.097672 1 2 1.000000
versus_doors
  2 -11.442825 101.999153 3.940290 -0.410047 -0.912064 -0.000042 0.182155 0.043874 1 2 1.000000
  2 -0.007423 96.858383 -3.924850 -0.410047 -0.912064 -0.000042 0.158374 0.058792 1 2 1.000000
  2 -0.007458 96.858032 3.940112 -0.410047 -0.912064 -0.000042 0.158374 0.043874 1 2 1.000000
versus_doors
  2 -11.442825 101.999153 3.940290 -0.410047 -0.912064 -0.000042 0.182155 0.043874 1 2 1.000000
  2 -11.442791 101.999504 -3.924671 -0.410047 -0.912064 -0.000042 0.182155 0.058792 1 2 1.000000
  2 -0.007423 96.858383 -3.924850 -0.410047 -0.912064 -0.000042 0.158374 0.058792 1 2 1.000000
versus_doors
  2 -11.444443 125.994652 3.941357 -1.000000 -0.000068 -0.000004 0.441493 0.099595 1 2 1.000000
  2 -11.442791 101.999504 -3.924671 -1.000000 -0.000068 -0.000004 0.426573 0.054082 1 2 1.000000
  2 -11.442825 101.999153 3.940290 -1.000000 -0.000068 -0.000004 0.441491 0.054081 1 2 1.000000
versus_doors
  2 -11.444443 125.994652 3.941357 -1.000000 -0.000068 -0.000004 0.441493 0.099595 1 2 1.000000
  2 -11.444408 125.995003 -3.923605 -1.000000 -0.000068 -0.000004 0.426575 0.099596 1 2 1.000000
  2 -11.442791 101.999504 -3.924671 -1.000000 -0.000068 -0.000004 0.426573 0.054082 1 2 1.000000
versus_doors
  2 115.726158 28.810940 -6.946833 0.000110 0.969978 -0.243193 0.016901 0.404986 1 2 1.000000
  2 0.940105 29.062450 -5.995381 0.000110 0.969978 -0.243193 0.492674 0.410321 1 2 1.000000
  2 115.997162 29.068886 -5.994962 0.000110 0.969978 -0.243193 0.015767 0.409070 1 2 1.000000
versus_doors
  2 115.726158 28.810940 -6.946833 0.000110 0.969978 -0.243193 0.016901 0.404986 1 2 1.000000
  2 0.950932 28.658337 -7.684282 0.000110 0.969978 -0.243193 0.492648 0.403123 1 2 1.000000
  2 0.940105 29.062450 -5.995381 0.000110 0.969978 -0.243193 0.492674 0.410321 1 2 1.000000
versus_doors
  2 -0.009735 131.137634 -3.923325 -0.410169 0.912010 0.000038 0.205937 0.073710 1 2 1.000000
  2 -11.444443 125.994652 3.941357 -0.410169 0.912010 0.000038 0.182155 0.058792 1 2 1.000000
  2 -0.009769 131.137314 3.941637 -0.410169 0.912010 0.000038 0.205937 0.058792 1 2 1.000000
versus_doors
  2 -0.009735 131.137634 -3.923325 -0.410169 0.912010 0.000038 0.205937 0.073710 1 2 1.000000
  2 -11.444408 125.995003 -3.923605 -0.410169 0.912010 0.000038 0.182155 0.073710 1 2 1.000000
  2 -11.444443 125.994652 3.941357 -0.410169 0.912010 0.000038 0.182155 0.058792 1 2 1.000000
versus_doors
  2 115.990105 131.437637 -7.072845 1.000000 0.000068 0.000004 0.954776 0.256386 1 2 1.000000
  2 115.988312 160.106567 -5.989134 1.000000 0.000068 0.000004 0.980412 0.257317 1 2 1.000000
  2 115.990280 131.144241 -5.990421 1.000000 0.000068 0.000004 0.954515 0.257354 1 2 1.000000
versus_doors
  2 115.990105 131.437637 -7.072845 1.000000 0.000068 0.000004 0.954776 0.256386 1 2 1.000000
  2 115.988312 160.106598 -7.057930 1.000000 0.000068 0.000004 0.980411 0.256361 1 2 1.000000
  2 115.988312 160.106567 -5.989134 1.000000 0.000068 0.000004 0.980412 0.257317 1 2 1.000000
versus_doors
  2 115.999084 0.106033 6.003752 1.000000 0.000068 0.000004 0.837357 0.268245 1 2 1.000000
  2 115.999130 0.106567 -5.996248 1.000000 0.000068 0.000004 0.837342 0.257515 1 2 1.000000
  2 115.997162 29.068886 -5.994962 1.000000 0.000068 0.000004 0.863240 0.257481 1 2 1.000000
versus_doors
  2 115.999084 0.106033 6.003752 1.000000 0.000068 0.000004 0.837357 0.268245 1 2 1.000000
  2 115.997162 29.068886 -5.994962 1.000000 0.000068 0.000004 0.863240 0.257481 1 2 1.000000
  2 115.997124 29.068356 6.005039 1.000000 0.000068 0.000004 0.863254 0.268211 1 2 1.000000
versus_doors
  2 115.997162 29.068886 -5.994962 1.000000 0.000068 0.000004 0.863240 0.257481 1 2 1.000000
  2 115.994804 63.347649 6.006564 1.000000 0.000068 0.000004 0.893907 0.268169 1 2 1.000000
  2 115.997124 29.068356 6.005039 1.000000 0.000068 0.000004 0.863254 0.268211 1 2 1.000000
versus_doors
  2 115.997162 29.068886 -5.994962 1.000000 0.000068 0.000004 0.863240 0.257481 1 2 1.000000
  2 115.994850 63.348175 -5.993437 1.000000 0.000068 0.000004 0.893892 0.257439 1 2 1.000000
  2 115.994804 63.347649 6.006564 1.000000 0.000068 0.000004 0.893907 0.268169 1 2 1.000000
versus_doors
  2 115.992538 96.864433 6.008055 1.000000 0.000068 0.000004 0.923878 0.268128 1 2 1.000000
  2 115.994804 63.347649 6.006564 1.000000 0.000068 0.000004 0.893907 0.268169 1 2 1.000000
  2 115.994850 63.348175 -5.993437 1.000000 0.000068 0.000004 0.893892 0.257439 1 2 1.000000
versus_doors
  2 115.992538 96.864433 6.008055 1.000000 0.000068 0.000004 0.923878 0.268128 1 2 1.000000
  2 115.994850 63.348175 -5.993437 1.000000 0.000068 0.000004 0.893892 0.257439 1 2 1.000000
  2 115.992584 96.864967 -5.991945 1.000000 0.000068 0.000004 0.923863 0.257397 1 2 1.000000
versus_doors
  2 115.992538 96.864433 6.008055 1.000000 0.000068 0.000004 0.923878 0.268128 1 2 1.000000
  2 115.992584 96.864967 -5.991945 1.000000 0.000068 0.000004 0.923863 0.257397 1 2 1.000000
  2 115.990280 131.144241 -5.990421 1.000000 0.000068 0.000004 0.954515 0.257354 1 2 1.000000
versus_doors
  2 115.992538 96.864433 6.008055 1.000000 0.000068 0.000004 0.923878 0.268128 1 2 1.000000
  2 115.990280 131.144241 -5.990421 1.000000 0.000068 0.000004 0.954515 0.257354 1 2 1.000000
  2 115.990227 131.143723 6.009579 1.000000 0.000068 0.000004 0.954530 0.268084 1 2 1.000000
versus_doors
  2 115.990227 131.143723 6.009579 1.000000 0.000068 0.000004 0.954530 0.268084 1 2 1.000000
  2 115.990280 131.144241 -5.990421 1.000000 0.000068 0.000004 0.954515 0.257354 1 2 1.000000
  2 115.988312 160.106567 -5.989134 1.000000 0.000068 0.000004 0.980412 0.257317 1 2 1.000000
versus_doors
  2 115.990227 131.143723 6.009579 1.000000 0.000068 0.000004 0.954530 0.268084 1 2 1.000000
  2 115.988312 160.106567 -5.989134 1.000000 0.000068 0.000004 0.980412 0.257317 1 2 1.000000
  2 115.988266 160.106049 6.010866 1.000000 0.000068 0.000004 0.980428 0.268047 1 2 1.000000
versus_doors
  2 -0.009769 131.137314 3.941637 -0.000004 -0.000044 1.000000 0.201726 0.151911 1 2 1.000000
  2 -11.442825 101.999153 3.940290 -0.000004 -0.000044 1.000000 0.180040 0.096643 1 2 1.000000
  2 -0.007458 96.858032 3.940112 -0.000004 -0.000044 1.000000 0.201730 0.086891 1 2 1.000000
versus_doors
  2 -0.009769 131.137314 3.941637 -0.000004 -0.000044 1.000000 0.201726 0.151911 1 2 1.000000
  2 -11.444443 125.994652 3.941357 -0.000004 -0.000044 1.000000 0.180037 0.142157 1 2 1.000000
  2 -11.442825 101.999153 3.940290 -0.000004 -0.000044 1.000000 0.180040 0.096643 1 2 1.000000
versus_doors
  2 -0.002876 29.061958 3.937097 -0.410047 -0.912064 -0.000042 0.134592 0.043874 1 2 1.000000
  2 -11.438202 34.203423 -3.927687 -0.410047 -0.912064 -0.000042 0.158374 0.058792 1 2 1.000000
  2 -0.002838 29.062302 -3.927865 -0.410047 -0.912064 -0.000042 0.134592 0.058792 1 2 1.000000
versus_doors
  2 -0.002876 29.061958 3.937097 -0.410047 -0.912064 -0.000042 0.134592 0.043874 1 2 1.000000
  2 -11.438232 34.203079 3.937274 -0.410047 -0.912064 -0.000042 0.158374 0.043874 1 2 1.000000
  2 -11.438202 34.203423 -3.927687 -0.410047 -0.912064 -0.000042 0.158374 0.058792 1 2 1.000000
versus_doors
  2 115.999130 0.106567 -5.996248 0.961773 0.000077 -0.273846 0.837342 0.257515 1 2 1.000000
  2 115.726158 28.810940 -6.946833 0.961773 0.000077 -0.273846 0.863008 0.256596 1 2 1.000000
  2 115.997162 29.068886 -5.994962 0.961773 0.000077 -0.273846 0.863240 0.257481 1 2 1.000000
versus_doors
  2 115.999130 0.106567 -5.996248 0.961773 0.000077 -0.273846 0.837342 0.257515 1 2 1.000000
  2 115.733093 0.106598 -6.930614 0.961773 0.000077 -0.273846 0.837341 0.256646 1 2 1.000000
  2 115.726158 28.810940 -6.946833 0.961773 0.000077 -0.273846 0.863008 0.256596 1 2 1.000000
versus_doors
  2 -0.007458 96.858032 3.940112 -1.000000 -0.000068 -0.000004 0.680820 0.133590 1 2 1.000000
  2 -0.005150 63.341591 -3.926341 -1.000000 -0.000068 -0.000004 0.605376 0.151420 1 2 1.000000
  2 -0.005184 63.341244 3.938621 -1.000000 -0.000068 -0.000004 0.605348 0.133709 1 2 1.000000
versus_doors
  2 -0.007458 96.858032 3.940112 -1.000000 -0.000068 -0.000004 0.680820 0.133590 1 2 1.000000
  2 -0.007423 96.858383 -3.924850 -1.000000 -0.000068 -0.000004 0.680849 0.151300 1 2 1.000000
  2 -0.005150 63.341591 -3.926341 -1.000000 -0.000068 -0.000004 0.605376 0.151420 1 2 1.000000
versus_doors
  2 -0.009731 131.137711 -5.047905 -1.000000 -0.000068 -0.000004 0.758057 0.153718 1 2 1.000000
  2 -0.011734 160.099548 6.010443 -1.000000 -0.000068 -0.000004 0.823244 0.128717 1 2 1.000000
  2 -0.011692 160.100037 -5.046617 -1.000000 -0.000068 -0.000004 0.823282 0.153618 1 2 1.000000
versus_doors
  2 -0.009731 131.137711 -5.047905 -1.000000 -0.000068 -0.000004 0.758057 0.153718 1 2 1.000000
  2 -0.009781 131.137207 6.009155 -1.000000 -0.000068 -0.000004 0.758019 0.128817 1 2 1.000000
  2 -0.011734 160.099548 6.010443 -1.000000 -0.000068 -0.000004 0.823244 0.128717 1 2 1.000000
versus_doors
  2 -0.009731 131.137711 -5.047905 -1.000000 -0.000068 -0.000004 0.758057 0.153718 1 2 1.000000
  2 -0.009769 131.137314 3.941637 -1.000000 -0.000068 -0.000004 0.758026 0.133473 1 2 1.000000
  2 -0.009781 131.137207 6.009155 -1.000000 -0.000068 -0.000004 0.758019 0.128817 1 2 1.000000
versus_doors
  2 -0.007458 96.858032 3.940112 -1.000000 -0.000068 -0.000004 0.680820 0.133590 1 2 1.000000
  2 -0.009781 131.137207 6.009155 -1.000000 -0.000068 -0.000004 0.758019 0.128817 1 2 1.000000
  2 -0.009769 131.137314 3.941637 -1.000000 -0.000068 -0.000004 0.758026 0.133473 1 2 1.000000
versus_doors
  2 -0.007458 96.858032 3.940112 -1.000000 -0.000068 -0.000004 0.680820 0.133590 1 2 1.000000
  2 -0.007465 96.857933 6.007632 -1.000000 -0.000068 -0.000004 0.680813 0.128933 1 2 1.000000
  2 -0.009781 131.137207 6.009155 -1.000000 -0.000068 -0.000004 0.758019 0.128817 1 2 1.000000
versus_doors
  2 -0.005184 63.341244 3.938621 -1.000000 -0.000068 -0.000004 0.605348 0.133709 1 2 1.000000
  2 -0.007465 96.857933 6.007632 -1.000000 -0.000068 -0.000004 0.680813 0.128933 1 2 1.000000
  2 -0.007458 96.858032 3.940112 -1.000000 -0.000068 -0.000004 0.680820 0.133590 1 2 1.000000
versus_doors
  2 -0.005184 63.341244 3.938621 -1.000000 -0.000068 -0.000004 0.605348 0.133709 1 2 1.000000
  2 -0.005196 63.341156 6.006141 -1.000000 -0.000068 -0.000004 0.605340 0.129054 1 2 1.000000
  2 -0.007465 96.857933 6.007632 -1.000000 -0.000068 -0.000004 0.680813 0.128933 1 2 1.000000
versus_doors
  2 -0.002884 29.061867 6.004616 -1.000000 -0.000068 -0.000004 0.528159 0.129173 1 2 1.000000
  2 -0.005196 63.341156 6.006141 -1.000000 -0.000068 -0.000004 0.605340 0.129054 1 2 1.000000
  2 -0.005184 63.341244 3.938621 -1.000000 -0.000068 -0.000004 0.605348 0.133709 1 2 1.000000
versus_doors
  2 -0.002884 29.061867 6.004616 -1.000000 -0.000068 -0.000004 0.528159 0.129173 1 2 1.000000
  2 -0.005184 63.341244 3.938621 -1.000000 -0.000068 -0.000004 0.605348 0.133709 1 2 1.000000
  2 -0.002876 29.061958 3.937097 -1.000000 -0.000068 -0.000004 0.528166 0.133828 1 2 1.000000
versus_doors
  2 -0.002831 28.884109 -5.052444 -1.000000 -0.000068 -0.000004 0.527797 0.154068 1 2 1.000000
  2 -0.002884 29.061867 6.004616 -1.000000 -0.000068 -0.000004 0.528159 0.129173 1 2 1.000000
  2 -0.002876 29.061958 3.937097 -1.000000 -0.000068 -0.000004 0.528166 0.133828 1 2 1.000000
versus_doors
  2 -0.002831 28.884109 -5.052444 -1.000000 -0.000068 -0.000004 0.527797 0.154068 1 2 1.000000
  2 -0.002876 29.061958 3.937097 -1.000000 -0.000068 -0.000004 0.528166 0.133828 1 2 1.000000
  2 -0.002838 29.062302 -3.927865 -1.000000 -0.000068 -0.000004 0.528194 0.151536 1 2 1.000000
versus_doors
  2 -0.002838 29.062302 -3.927865 -1.000000 -0.000068 -0.000004 0.528194 0.151536 1 2 1.000000
  2 -0.005150 63.341644 -5.050920 -1.000000 -0.000068 -0.000004 0.605380 0.153952 1 2 1.000000
  2 -0.002831 28.884109 -5.052444 -1.000000 -0.000068 -0.000004 0.527797 0.154068 1 2 1.000000
versus_doors
  2 -0.002838 29.062302 -3.927865 -1.000000 -0.000068 -0.000004 0.528194 0.151536 1 2 1.000000
  2 -0.005150 63.341591 -3.926341 -1.000000 -0.000068 -0.000004 0.605376 0.151420 1 2 1.000000
  2 -0.005150 63.341644 -5.050920 -1.000000 -0.000068 -0.000004 0.605380 0.153952 1 2 1.000000
versus_doors
  2 -0.007416 96.858429 -5.049429 -1.000000 -0.000068 -0.000004 0.680853 0.153832 1 2 1.000000
  2 -0.005150 63.341644 -5.050920 -1.000000 -0.000068 -0.000004 0.605380 0.153952 1 2 1.000000
  2 -0.005150 63.341591 -3.926341 -1.000000 -0.000068 -0.000004 0.605376 0.151420 1 2 1.000000
versus_doors
  2 -0.007416 96.858429 -5.049429 -1.000000 -0.000068 -0.000004 0.680853 0.153832 1 2 1.000000
  2 -0.005150 63.341591 -3.926341 -1.000000 -0.000068 -0.000004 0.605376 0.151420 1 2 1.000000
  2 -0.007423 96.858383 -3.924850 -1.000000 -0.000068 -0.000004 0.680849 0.151300 1 2 1.000000
versus_doors
  2 -0.007416 96.858429 -5.049429 -1.000000 -0.000068 -0.000004 0.680853 0.153832 1 2 1.000000
  2 -0.007423 96.858383 -3.924850 -1.000000 -0.000068 -0.000004 0.680849 0.151300 1 2 1.000000
  2 -0.009735 131.137634 -3.923325 -1.000000 -0.000068 -0.000004 0.758053 0.151186 1 2 1.000000
versus_doors
  2 -0.007416 96.858429 -5.049429 -1.000000 -0.000068 -0.000004 0.680853 0.153832 1 2 1.000000
  2 -0.009735 131.137634 -3.923325 -1.000000 -0.000068 -0.000004 0.758053 0.151186 1 2 1.000000
  2 -0.009731 131.137711 -5.047905 -1.000000 -0.000068 -0.000004 0.758057 0.153718 1 2 1.000000
versus_doors
  2 -0.009731 131.137711 -5.047905 -1.000000 -0.000068 -0.000004 0.758057 0.153718 1 2 1.000000
  2 -0.009735 131.137634 -3.923325 -1.000000 -0.000068 -0.000004 0.758053 0.151186 1 2 1.000000
  2 -0.009769 131.137314 3.941637 -1.000000 -0.000068 -0.000004 0.758026 0.133473 1 2 1.000000
versus_doors
  2 -0.002831 28.884109 -5.052444 -1.000000 -0.000068 -0.000004 0.527797 0.154068 1 2 1.000000
  2 -0.000923 0.099533 6.003327 -1.000000 -0.000068 -0.000004 0.462950 0.129275 1 2 1.000000
  2 -0.002884 29.061867 6.004616 -1.000000 -0.000068 -0.000004 0.528159 0.129173 1 2 1.000000
versus_doors
  2 -0.002831 28.884109 -5.052444 -1.000000 -0.000068 -0.000004 0.527797 0.154068 1 2 1.000000
  2 -0.000870 0.100037 -5.053733 -1.000000 -0.000068 -0.000004 0.462989 0.154170 1 2 1.000000
  2 -0.000923 0.099533 6.003327 -1.000000 -0.000068 -0.000004 0.462950 0.129275 1 2 1.000000
versus_doors
  1 -0.069740 0.097305 -3.932720 0.000113 -1.000000 -0.000089 0.218266 0.053648 1 1 1.000000
  1 -1.200775 0.097435 -6.973513 0.000113 -1.000000 -0.000089 0.220380 0.059332 1 1 1.000000
  1 -0.069736 0.097404 -5.057299 0.000113 -1.000000 -0.000089 0.218266 0.055750 1 1 1.000000
versus_doors
  1 -0.069767 0.096596 3.932241 0.000113 -1.000000 -0.000089 0.218266 0.038949 1 1 1.000000
  1 -0.069775 0.096413 5.999761 0.000113 -1.000000 -0.000089 0.218266 0.035084 1 1 1.000000
  1 -116.069763 0.083344 5.999445 0.000113 -1.000000 -0.000089 0.416384 0.035085 1 1 1.000000
versus_doors
  1 -0.069740 0.097305 -3.932720 0.000113 -1.000000 -0.000089 0.218266 0.053648 1 1 1.000000
  1 -0.069767 0.096596 3.932241 0.000113 -1.000000 -0.000089 0.218266 0.038949 1 1 1.000000
  1 -116.069763 0.083344 5.999445 0.000113 -1.000000 -0.000089 0.416384 0.035085 1 1 1.000000
versus_doors
  1 -0.069740 0.097305 -3.932720 0.000113 -1.000000 -0.000089 0.218266 0.053648 1 1 1.000000
  1 -116.069763 0.083344 5.999445 0.000113 -1.000000 -0.000089 0.416384 0.035085 1 1 1.000000
  1 -116.069733 0.084419 -6.000555 0.000113 -1.000000 -0.000089 0.416383 0.057515 1 1 1.000000
versus_doors
  1 -116.069733 0.084419 -6.000555 0.000113 -1.000000 -0.000089 0.416383 0.057515 1 1 1.000000
  1 -1.200775 0.097435 -6.973513 0.000113 -1.000000 -0.000089 0.220380 0.059332 1 1 1.000000
  1 -0.069740 0.097305 -3.932720 0.000113 -1.000000 -0.000089 0.218266 0.053648 1 1 1.000000
versus_doors
  1 -116.069733 0.084419 -6.000555 0.000113 -1.000000 -0.000089 0.416383 0.057515 1 1 1.000000
  1 -115.803696 0.084526 -6.934917 0.000113 -1.000000 -0.000089 0.415886 0.059261 1 1 1.000000
  1 -1.200775 0.097435 -6.973513 0.000113 -1.000000 -0.000089 0.220380 0.059332 1 1 1.000000
versus_doors
  1 -115.906006 159.899048 -7.241026 0.002707 0.900117 -0.435640 0.990053 0.987002 1 1 1.000000
  1 -116.091507 160.084518 -7.054998 0.002707 0.900117 -0.435640 0.990822 0.987781 1 1 1.000000
  1 -25.682583 160.094498 -7.285411 0.002707 0.900117 -0.435640 0.615479 0.987410 1 1 1.000000
versus_doors
  1 -115.906006 159.899048 -7.241026 0.002707 0.900117 -0.435640 0.990053 0.987002 1 1 1.000000
  1 -25.682583 160.094498 -7.285411 0.002707 0.900117 -0.435640 0.615479 0.987410 1 1 1.000000
  1 -25.681244 160.000336 -7.694229 0.002707 0.900117 -0.435640 0.615474 0.987002 1 1 1.000000
versus_doors
  1 -25.682583 160.094498 -7.285411 0.002707 0.900117 -0.435640 0.615479 0.987410 1 1 1.000000
  1 -1.577061 159.911911 -7.242009 0.002707 0.900117 -0.435640 0.515403 0.986547 1 1 1.000000
  1 -25.681244 160.000336 -7.694229 0.002707 0.900117 -0.435640 0.615474 0.987002 1 1 1.000000
versus_doors
  1 -25.682583 160.094498 -7.285411 0.002707 0.900117 -0.435640 0.615479 0.987410 1 1 1.000000
  1 -1.297329 160.097427 -7.083472 0.002707 0.900117 -0.435640 0.514241 0.987323 1 1 1.000000
  1 -1.577061 159.911911 -7.242009 0.002707 0.900117 -0.435640 0.515403 0.986547 1 1 1.000000
versus_doors
  1 -1.023483 131.127792 -5.970684 0.053792 -0.948000 -0.313691 0.518925 0.853619 1 1 1.000000
  1 -0.543472 131.305923 -6.263107 0.146164 -0.933131 -0.328485 0.516957 0.854957 1 1 1.000000
  1 -0.087578 131.135071 -5.045544 0.146164 -0.933131 -0.328485 0.515098 0.849952 1 1 1.000000
versus_doors
  1 -1.023483 131.127792 -5.970684 0.053792 -0.948000 -0.313691 0.518925 0.853619 1 1 1.000000
  1 -1.308926 131.667725 -7.102115 0.079119 -0.920691 -0.382189 0.520083 0.858658 1 1 1.000000
  1 -0.543472 131.305923 -6.263107 0.146164 -0.933131 -0.328485 0.516957 0.854957 1 1 1.000000
versus_doors
  1 -1.023483 131.127792 -5.970684 0.053792 -0.948000 -0.313691 0.518925 0.853619 1 1 1.000000
  1 -25.493864 131.637115 -7.679511 -0.003590 -0.952754 -0.303722 0.619099 0.861085 1 1 1.000000
  1 -1.308926 131.667725 -7.102115 0.079119 -0.920691 -0.382189 0.520083 0.858658 1 1 1.000000
versus_doors
  1 -55.657146 131.295288 -7.681837 -0.003590 -0.952754 -0.303722 0.742597 0.860955 1 1 1.000000
  1 -25.493864 131.637115 -7.679511 -0.003590 -0.952754 -0.303722 0.619099 0.861085 1 1 1.000000
  1 -1.023483 131.127792 -5.970684 0.053792 -0.948000 -0.313691 0.518925 0.853619 1 1 1.000000
versus_doors
  1 -55.657146 131.295288 -7.681837 -0.003590 -0.952754 -0.303722 0.742597 0.860955 1 1 1.000000
  1 -1.023483 131.127792 -5.970684 0.053792 -0.948000 -0.313691 0.518925 0.853619 1 1 1.000000
  1 -116.080551 131.129333 -6.004629 -0.003590 -0.952754 -0.303722 0.989995 0.854555 1 1 1.000000
versus_doors
  1 -116.086990 131.643295 -7.082635 -0.009465 -0.902637 -0.430298 0.990012 0.859354 1 1 1.000000
  1 -55.657146 131.295288 -7.681837 -0.003590 -0.952754 -0.303722 0.742597 0.860955 1 1 1.000000
  1 -116.080551 131.129333 -6.004629 -0.003590 -0.952754 -0.303722 0.989995 0.854555 1 1 1.000000
versus_doors
  1 -115.906006 159.899048 -7.241026 0.005070 -0.003974 -0.999979 0.990053 0.987002 1 1 1.000000
  1 -25.679628 132.696686 -7.480262 0.006026 0.168676 -0.985653 0.615589 0.873663 1 1 1.000000
  1 -115.902573 132.095505 -7.221309 0.006026 0.168676 -0.985653 0.990162 0.871579 1 1 1.000000
versus_doors
  1 -115.906006 159.899048 -7.241026 0.005070 -0.003974 -0.999979 0.990053 0.987002 1 1 1.000000
  1 -25.681244 160.000336 -7.694229 0.005070 -0.003974 -0.999979 0.615474 0.987002 1 1 1.000000
  1 -25.679628 132.696686 -7.480262 0.006026 0.168676 -0.985653 0.615589 0.873663 1 1 1.000000
versus_doors
  1 -25.679628 132.696686 -7.480262 0.006026 0.168676 -0.985653 0.615589 0.873663 1 1 1.000000
  1 -25.681244 160.000336 -7.694229 0.005070 -0.003974 -0.999979 0.615474 0.987002 1 1 1.000000
  1 -1.577061 159.911911 -7.242009 0.005070 -0.003974 -0.999979 0.515403 0.986547 1 1 1.000000
versus_doors
  1 -25.679628 132.696686 -7.480262 0.006026 0.168676 -0.985653 0.615589 0.873663 1 1 1.000000
  1 -1.577061 159.911911 -7.242009 0.005070 -0.003974 -0.999979 0.515403 0.986547 1 1 1.000000
  1 -1.574924 132.110840 -7.251642 0.014334 0.106552 -0.994204 0.515518 0.871133 1 1 1.000000
versus_doors
  1 -1.577061 159.911911 -7.242009 0.005070 -0.003974 -0.999979 0.515403 0.986547 1 1 1.000000
  1 -1.389465 131.920837 -7.249992 0.006026 0.168676 -0.985653 0.514749 0.870344 1 1 1.000000
  1 -1.574924 132.110840 -7.251642 0.014334 0.106552 -0.994204 0.515518 0.871133 1 1 1.000000
versus_doors
  1 -1.574924 132.110840 -7.251642 0.014334 0.106552 -0.994204 0.515518 0.871133 1 1 1.000000
  1 -1.389465 131.920837 -7.249992 0.006026 0.168676 -0.985653 0.514749 0.870344 1 1 1.000000
  1 -25.677721 131.834229 -7.832721 0.006801 0.336297 -0.941732 0.615584 0.870068 1 1 1.000000
versus_doors
  1 -1.574924 132.110840 -7.251642 0.014334 0.106552 -0.994204 0.515518 0.871133 1 1 1.000000
  1 -25.677721 131.834229 -7.832721 0.006801 0.336297 -0.941732 0.615584 0.870068 1 1 1.000000
  1 -25.679628 132.696686 -7.480262 0.006026 0.168676 -0.985653 0.615589 0.873663 1 1 1.000000
versus_doors
  1 -55.472710 131.582199 -7.787335 0.006801 0.336297 -0.941732 0.739283 0.869156 1 1 1.000000
  1 -25.679628 132.696686 -7.480262 0.006026 0.168676 -0.985653 0.615589 0.873663 1 1 1.000000
  1 -25.677721 131.834229 -7.832721 0.006801 0.336297 -0.941732 0.615584 0.870068 1 1 1.000000
versus_doors
  1 -55.472710 131.582199 -7.787335 0.006801 0.336297 -0.941732 0.739283 0.869156 1 1 1.000000
  1 -115.902573 132.095505 -7.221309 0.006026 0.168676 -0.985653 0.990162 0.871579 1 1 1.000000
  1 -25.679628 132.696686 -7.480262 0.006026 0.168676 -0.985653 0.615589 0.873663 1 1 1.000000
versus_doors
  1 -55.472710 131.582199 -7.787335 0.006801 0.336297 -0.941732 0.739283 0.869156 1 1 1.000000
  1 -115.902405 131.902573 -7.211065 0.006801 0.336297 -0.941732 0.990162 0.870779 1 1 1.000000
  1 -115.902573 132.095505 -7.221309 0.006026 0.168676 -0.985653 0.990162 0.871579 1 1 1.000000
versus_doors
  2 63.640640 131.429321 -7.074520 -0.000514 -0.957152 -0.289585 0.229710 0.860829 1 2 1.000000
  2 0.933208 131.137802 -5.990841 -0.000514 -0.957152 -0.289585 0.488187 0.856062 1 2 1.000000
  2 1.445175 131.661469 -7.386505 -0.000514 -0.957152 -0.289585 0.486080 0.862194 1 2 1.000000
versus_doors
  2 63.640640 131.429321 -7.074520 -0.000514 -0.957152 -0.289585 0.229710 0.860829 1 2 1.000000
  2 115.990280 131.144241 -5.990421 -0.000514 -0.957152 -0.289585 0.013924 0.856332 1 2 1.000000
  2 0.933208 131.137802 -5.990841 -0.000514 -0.957152 -0.289585 0.488187 0.856062 1 2 1.000000
versus_doors
  2 63.640640 131.429321 -7.074520 -0.000514 -0.957152 -0.289585 0.229710 0.860829 1 2 1.000000
  2 115.990105 131.437637 -7.072845 -0.000514 -0.957152 -0.289585 0.013927 0.860952 1 2 1.000000
  2 115.990280 131.144241 -5.990421 -0.000514 -0.957152 -0.289585 0.013924 0.856332 1 2 1.000000
versus_doors
  1 -0.091553 160.096588 3.946594 -0.000113 1.000000 0.000064 0.417339 0.069311 1 1 1.000000
  1 -116.091568 160.083328 6.013797 -0.000113 1.000000 0.000064 0.219220 0.065447 1 1 1.000000
  1 -0.091557 160.096405 6.014114 -0.000113 1.000000 0.000064 0.417339 0.065446 1 1 1.000000
versus_doors
  1 -116.091522 160.084412 -5.986202 -0.000113 1.000000 0.000064 0.219220 0.087875 1 1 1.000000
  1 -116.091568 160.083328 6.013797 -0.000113 1.000000 0.000064 0.219220 0.065447 1 1 1.000000
  1 -0.091553 160.096588 3.946594 -0.000113 1.000000 0.000064 0.417339 0.069311 1 1 1.000000
versus_doors
  1 -116.091522 160.084412 -5.986202 -0.000113 1.000000 0.000064 0.219220 0.087875 1 1 1.000000
  1 -0.091553 160.096588 3.946594 -0.000113 1.000000 0.000064 0.417339 0.069311 1 1 1.000000
  1 -0.091526 160.097321 -3.918367 -0.000113 1.000000 0.000064 0.417339 0.084011 1 1 1.000000
versus_doors
  1 -25.682583 160.094498 -7.285411 -0.000113 1.000000 0.000064 0.369508 0.090304 1 1 1.000000
  1 -116.091522 160.084412 -5.986202 -0.000113 1.000000 0.000064 0.219220 0.087875 1 1 1.000000
  1 -0.091526 160.097321 -3.918367 -0.000113 1.000000 0.000064 0.417339 0.084011 1 1 1.000000
versus_doors
  1 -25.682583 160.094498 -7.285411 -0.000113 1.000000 0.000064 0.369508 0.090304 1 1 1.000000
  1 -116.091507 160.084518 -7.054998 -0.000113 1.000000 0.000064 0.219220 0.089873 1 1 1.000000
  1 -116.091522 160.084412 -5.986202 -0.000113 1.000000 0.000064 0.219220 0.087875 1 1 1.000000
versus_doors
  1 -25.682583 160.094498 -7.285411 -0.000113 1.000000 0.000064 0.369508 0.090304 1 1 1.000000
  1 -0.091526 160.097321 -3.918367 -0.000113 1.000000 0.000064 0.417339 0.084011 1 1 1.000000
  1 -1.297329 160.097427 -7.083472 -0.000113 1.000000 0.000064 0.415086 0.089926 1 1 1.000000
versus_doors
  1 -0.091522 160.097412 -5.042946 -0.000113 1.000000 0.000064 0.417339 0.086112 1 1 1.000000
  1 -1.297329 160.097427 -7.083472 -0.000113 1.000000 0.000064 0.415086 0.089926 1 1 1.000000
  1 -0.091526 160.097321 -3.918367 -0.000113 1.000000 0.000064 0.417339 0.084011 1 1 1.000000
versus_doors
  1 -0.091522 160.097412 -5.042946 -0.000113 1.000000 0.000064 0.417339 0.086112 1 1 1.000000
  1 -0.546516 160.097458 -6.256849 -0.000113 1.000000 0.000064 0.416489 0.088381 1 1 1.000000
  1 -1.297329 160.097427 -7.083472 -0.000113 1.000000 0.000064 0.415086 0.089926 1 1 1.000000
versus_doors
  2 63.455902 131.491028 -7.252079 0.002446 0.068206 -0.997668 0.232656 0.871421 1 2 1.000000
  2 115.802826 159.921112 -7.243474 0.000004 0.000044 -1.000000 0.016324 0.988897 1 2 1.000000
  2 115.804550 131.671661 -7.251831 0.000004 0.000044 -1.000000 0.016323 0.872156 1 2 1.000000
versus_doors
  2 63.455902 131.491028 -7.252079 0.002446 0.068206 -0.997668 0.232656 0.871421 1 2 1.000000
  2 1.473896 159.914734 -7.243896 0.000004 0.000044 -1.000000 0.488793 0.988897 1 2 1.000000
  2 115.802826 159.921112 -7.243474 0.000004 0.000044 -1.000000 0.016324 0.988897 1 2 1.000000
versus_doors
  2 63.455902 131.491028 -7.252079 0.002446 0.068206 -0.997668 0.232656 0.871421 1 2 1.000000
  2 1.475712 133.752350 -7.248090 0.002446 0.068206 -0.997668 0.488791 0.880781 1 2 1.000000
  2 1.473896 159.914734 -7.243896 0.000004 0.000044 -1.000000 0.488793 0.988897 1 2 1.000000
versus_doors
  2 63.455902 131.491028 -7.252079 0.002446 0.068206 -0.997668 0.232656 0.871421 1 2 1.000000
  2 1.708279 131.901398 -7.500724 0.004892 0.135835 -0.990719 0.487831 0.873128 1 2 1.000000
  2 1.475712 133.752350 -7.248090 0.002446 0.068206 -0.997668 0.488791 0.880781 1 2 1.000000
versus_doors
  2 -0.005150 63.341644 -5.050920 -0.707103 -0.000016 -0.707110 0.497829 0.561439 1 2 1.000000
  2 0.940105 29.062450 -5.995381 -0.707103 -0.000016 -0.707110 0.493886 0.419308 1 2 1.000000
  2 -0.002831 28.884109 -5.052444 -0.707103 -0.000016 -0.707110 0.497827 0.418569 1 2 1.000000
versus_doors
  2 -0.005150 63.341644 -5.050920 -0.707103 -0.000016 -0.707110 0.497829 0.561439 1 2 1.000000
  2 0.937794 63.341751 -5.993856 -0.707103 -0.000016 -0.707110 0.493887 0.561439 1 2 1.000000
  2 0.940105 29.062450 -5.995381 -0.707103 -0.000016 -0.707110 0.493886 0.419308 1 2 1.000000
versus_doors
  2 -0.005150 63.341644 -5.050920 -0.707103 -0.000016 -0.707110 0.497829 0.561439 1 2 1.000000
  2 0.935524 96.858528 -5.992365 -0.707103 -0.000016 -0.707110 0.493889 0.700409 1 2 1.000000
  2 0.937794 63.341751 -5.993856 -0.707103 -0.000016 -0.707110 0.493887 0.561439 1 2 1.000000
versus_doors
  2 -0.005150 63.341644 -5.050920 -0.707103 -0.000016 -0.707110 0.497829 0.561439 1 2 1.000000
  2 -0.007416 96.858429 -5.049429 -0.707103 -0.000016 -0.707110 0.497830 0.700409 1 2 1.000000
  2 0.935524 96.858528 -5.992365 -0.707103 -0.000016 -0.707110 0.493889 0.700409 1 2 1.000000
versus_doors
  2 0.933208 131.137802 -5.990841 -0.707103 -0.000016 -0.707110 0.493891 0.842540 1 2 1.000000
  2 0.935524 96.858528 -5.992365 -0.707103 -0.000016 -0.707110 0.493889 0.700409 1 2 1.000000
  2 -0.007416 96.858429 -5.049429 -0.707103 -0.000016 -0.707110 0.497830 0.700409 1 2 1.000000
versus_doors
  2 0.933208 131.137802 -5.990841 -0.707103 -0.000016 -0.707110 0.493891 0.842540 1 2 1.000000
  2 -0.007416 96.858429 -5.049429 -0.707103 -0.000016 -0.707110 0.497830 0.700409 1 2 1.000000
  2 -0.009731 131.137711 -5.047905 -0.707103 -0.000016 -0.707110 0.497832 0.842540 1 2 1.000000
versus_doors
  1 -0.543472 131.305923 -6.263107 0.853335 0.000178 -0.521362 0.614316 0.176777 1 1 1.000000
  1 -0.091522 160.097412 -5.042946 0.936448 0.000167 -0.350806 0.737358 0.182248 1 1 1.000000
  1 -0.087578 131.135071 -5.045544 0.936448 0.000167 -0.350806 0.613586 0.182248 1 1 1.000000
versus_doors
  1 -0.543472 131.305923 -6.263107 0.853335 0.000178 -0.521362 0.614316 0.176777 1 1 1.000000
  1 -0.546516 160.097458 -6.256849 0.853335 0.000178 -0.521362 0.737358 0.176793 1 1 1.000000
  1 -0.091522 160.097412 -5.042946 0.936448 0.000167 -0.350806 0.737358 0.182248 1 1 1.000000
versus_doors
  1 -0.546516 160.097458 -6.256849 0.853335 0.000178 -0.521362 0.737358 0.176793 1 1 1.000000
  1 -0.543472 131.305923 -6.263107 0.853335 0.000178 -0.521362 0.614316 0.176777 1 1 1.000000
  1 -1.308926 131.667725 -7.102115 0.739505 0.000182 -0.673151 0.615862 0.172026 1 1 1.000000
versus_doors
  1 -0.546516 160.097458 -6.256849 0.853335 0.000178 -0.521362 0.737358 0.176793 1 1 1.000000
  1 -1.308926 131.667725 -7.102115 0.739505 0.000182 -0.673151 0.615862 0.172026 1 1 1.000000
  1 -1.297329 160.097427 -7.083472 0.739505 0.000182 -0.673151 0.737358 0.172119 1 1 1.000000
versus_doors
  1 -0.082909 96.855797 -5.048619 0.712314 0.001819 -0.701858 0.514099 0.706930 1 1 1.000000
  1 -1.023483 131.127792 -5.970684 0.712314 0.001819 -0.701858 0.517963 0.849012 1 1 1.000000
  1 -0.087578 131.135071 -5.045544 0.712314 0.001819 -0.701858 0.514062 0.849394 1 1 1.000000
versus_doors
  1 -0.082909 96.855797 -5.048619 0.712314 0.001819 -0.701858 0.514099 0.706930 1 1 1.000000
  1 -1.023540 96.848511 -5.974422 0.712314 0.001819 -0.701858 0.518017 0.706691 1 1 1.000000
  1 -1.023483 131.127792 -5.970684 0.712314 0.001819 -0.701858 0.517963 0.849012 1 1 1.000000
versus_doors
  1 -0.078342 63.339012 -5.051627 0.712314 0.001819 -0.701858 0.514136 0.567635 1 1 1.000000
  1 -1.023540 96.848511 -5.974422 0.712314 0.001819 -0.701858 0.518017 0.706691 1 1 1.000000
  1 -0.082909 96.855797 -5.048619 0.712314 0.001819 -0.701858 0.514099 0.706930 1 1 1.000000
versus_doors
  1 -0.078342 63.339012 -5.051627 0.712314 0.001819 -0.701858 0.514136 0.567635 1 1 1.000000
  1 -1.023594 63.331730 -5.978079 0.712314 0.001819 -0.701858 0.518069 0.567535 1 1 1.000000
  1 -1.023540 96.848511 -5.974422 0.712314 0.001819 -0.701858 0.518017 0.706691 1 1 1.000000
versus_doors
  1 -1.023651 29.052452 -5.981816 0.712314 0.001819 -0.701858 0.518122 0.425213 1 1 1.000000
  1 -1.023594 63.331730 -5.978079 0.712314 0.001819 -0.701858 0.518069 0.567535 1 1 1.000000
  1 -0.078342 63.339012 -5.051627 0.712314 0.001819 -0.701858 0.514136 0.567635 1 1 1.000000
versus_doors
  1 -1.023651 29.052452 -5.981816 0.712314 0.001819 -0.701858 0.518122 0.425213 1 1 1.000000
  1 -0.078342 63.339012 -5.051627 0.712314 0.001819 -0.701858 0.514136 0.567635 1 1 1.000000
  1 -0.073681 28.881481 -5.054701 0.712314 0.001819 -0.701858 0.514173 0.424430 1 1 1.000000
versus_doors
  2 -0.011692 160.100037 -5.046617 -0.000056 1.000000 0.000046 0.217173 0.150717 1 2 1.000000
  2 1.180710 160.100204 -7.093681 -0.000056 1.000000 0.000046 0.219434 0.154600 1 2 1.000000
  2 0.443321 160.100128 -6.260530 -0.000056 1.000000 0.000046 0.218036 0.153019 1 2 1.000000
versus_doors
  2 115.988266 160.106049 6.010866 -0.000056 1.000000 0.000046 0.418230 0.129743 1 2 1.000000
  2 -0.011692 160.100037 -5.046617 -0.000056 1.000000 0.000046 0.217173 0.150717 1 2 1.000000
  2 -0.011734 160.099548 6.010443 -0.000056 1.000000 0.000046 0.217173 0.129744 1 2 1.000000
versus_doors
  2 115.988266 160.106049 6.010866 -0.000056 1.000000 0.000046 0.418230 0.129743 1 2 1.000000
  2 1.180710 160.100204 -7.093681 -0.000056 1.000000 0.000046 0.219434 0.154600 1 2 1.000000
  2 -0.011692 160.100037 -5.046617 -0.000056 1.000000 0.000046 0.217173 0.150717 1 2 1.000000
versus_doors
  2 115.988266 160.106049 6.010866 -0.000056 1.000000 0.000046 0.418230 0.129743 1 2 1.000000
  2 115.988312 160.106598 -7.057930 -0.000056 1.000000 0.000046 0.418230 0.154532 1 2 1.000000
  2 1.180710 160.100204 -7.093681 -0.000056 1.000000 0.000046 0.219434 0.154600 1 2 1.000000
versus_doors
  2 115.988266 160.106049 6.010866 -0.000056 1.000000 0.000046 0.418230 0.129743 1 2 1.000000
  2 115.988312 160.106567 -5.989134 -0.000056 1.000000 0.000046 0.418230 0.152505 1 2 1.000000
  2 115.988312 160.106598 -7.057930 -0.000056 1.000000 0.000046 0.418230 0.154532 1 2 1.000000
versus_doors
  2 -0.000923 0.099533 6.003327 0.000056 -1.000000 -0.000045 0.418918 0.096209 1 2 1.000000
  2 -0.000870 0.100037 -5.053733 0.000056 -1.000000 -0.000045 0.418918 0.117182 1 2 1.000000
  2 115.999084 0.106033 6.003752 0.000056 -1.000000 -0.000045 0.217860 0.096208 1 2 1.000000
versus_doors
  2 115.999084 0.106033 6.003752 0.000056 -1.000000 -0.000045 0.217860 0.096208 1 2 1.000000
  2 -0.000870 0.100037 -5.053733 0.000056 -1.000000 -0.000045 0.418918 0.117182 1 2 1.000000
  2 1.106102 0.100197 -6.981678 0.000056 -1.000000 -0.000045 0.416818 0.120839 1 2 1.000000
versus_doors
  2 115.999084 0.106033 6.003752 0.000056 -1.000000 -0.000045 0.217860 0.096208 1 2 1.000000
  2 1.106102 0.100197 -6.981678 0.000056 -1.000000 -0.000045 0.416818 0.120839 1 2 1.000000
  2 115.733093 0.106598 -6.930614 0.000056 -1.000000 -0.000045 0.218365 0.120742 1 2 1.000000
versus_doors
  2 115.999084 0.106033 6.003752 0.000056 -1.000000 -0.000045 0.217860 0.096208 1 2 1.000000
  2 115.733093 0.106598 -6.930614 0.000056 -1.000000 -0.000045 0.218365 0.120742 1 2 1.000000
  2 115.999130 0.106567 -5.996248 0.000056 -1.000000 -0.000045 0.217860 0.118970 1 2 1.000000
versus_doors
  1 -1.023651 29.052452 -5.981816 0.188380 0.954467 -0.231312 0.517844 0.418567 1 1 1.000000
  1 -115.806381 28.792633 -6.951922 -0.000153 0.970322 -0.241815 0.986652 0.413299 1 1 1.000000
  1 -116.080719 29.053978 -6.015760 -0.000153 0.970322 -0.241815 0.987783 0.417265 1 1 1.000000
versus_doors
  1 -1.023651 29.052452 -5.981816 0.188380 0.954467 -0.231312 0.517844 0.418567 1 1 1.000000
  1 -1.033062 28.656116 -7.684882 0.188380 0.954467 -0.231312 0.517865 0.411426 1 1 1.000000
  1 -115.806381 28.792633 -6.951922 -0.000153 0.970322 -0.241815 0.986652 0.413299 1 1 1.000000
versus_doors
  1 -0.073681 28.881481 -5.054701 0.370149 0.904341 -0.212502 0.513970 0.422083 1 1 1.000000
  1 -1.033062 28.656116 -7.684882 0.188380 0.954467 -0.231312 0.517865 0.411426 1 1 1.000000
  1 -1.023651 29.052452 -5.981816 0.188380 0.954467 -0.231312 0.517844 0.418567 1 1 1.000000
versus_doors
  2 115.992584 96.864967 -5.991945 0.000004 0.000044 -1.000000 0.016847 0.700409 1 2 1.000000
  2 0.933208 131.137802 -5.990841 0.000004 0.000044 -1.000000 0.493891 0.842540 1 2 1.000000
  2 115.990280 131.144241 -5.990421 0.000004 0.000044 -1.000000 0.016849 0.842540 1 2 1.000000
versus_doors
  2 115.992584 96.864967 -5.991945 0.000004 0.000044 -1.000000 0.016847 0.700409 1 2 1.000000
  2 0.935524 96.858528 -5.992365 0.000004 0.000044 -1.000000 0.493889 0.700409 1 2 1.000000
  2 0.933208 131.137802 -5.990841 0.000004 0.000044 -1.000000 0.493891 0.842540 1 2 1.000000
versus_doors
  2 115.992584 96.864967 -5.991945 0.000004 0.000044 -1.000000 0.016847 0.700409 1 2 1.000000
  2 0.937794 63.341751 -5.993856 0.000004 0.000044 -1.000000 0.493887 0.561439 1 2 1.000000
  2 0.935524 96.858528 -5.992365 0.000004 0.000044 -1.000000 0.493889 0.700409 1 2 1.000000
versus_doors
  2 115.992584 96.864967 -5.991945 0.000004 0.000044 -1.000000 0.016847 0.700409 1 2 1.000000
  2 0.940105 29.062450 -5.995381 0.000004 0.000044 -1.000000 0.493886 0.419308 1 2 1.000000
  2 0.937794 63.341751 -5.993856 0.000004 0.000044 -1.000000 0.493887 0.561439 1 2 1.000000
versus_doors
  2 115.992584 96.864967 -5.991945 0.000004 0.000044 -1.000000 0.016847 0.700409 1 2 1.000000
  2 115.997162 29.068886 -5.994962 0.000004 0.000044 -1.000000 0.016844 0.419308 1 2 1.000000
  2 0.940105 29.062450 -5.995381 0.000004 0.000044 -1.000000 0.493886 0.419308 1 2 1.000000
versus_doors
  2 115.992584 96.864967 -5.991945 0.000004 0.000044 -1.000000 0.016847 0.700409 1 2 1.000000
  2 115.994850 63.348175 -5.993437 0.000004 0.000044 -1.000000 0.016845 0.561439 1 2 1.000000
  2 115.997162 29.068886 -5.994962 0.000004 0.000044 -1.000000 0.016844 0.419308 1 2 1.000000
versus_doors
  2 1.708279 131.901398 -7.500724 -0.415433 0.033422 -0.909009 0.487831 0.873128 1 2 1.000000
  2 1.445175 131.661469 -7.386505 -0.415433 0.033422 -0.909009 0.488918 0.872139 1 2 1.000000
  2 1.194149 133.647156 -7.137097 -0.415433 0.033422 -0.909009 0.489954 0.880347 1 2 1.000000
versus_doors
  2 1.708279 131.901398 -7.500724 -0.415433 0.033422 -0.909009 0.487831 0.873128 1 2 1.000000
  2 1.194149 133.647156 -7.137097 -0.415433 0.033422 -0.909009 0.489954 0.880347 1 2 1.000000
  2 1.475712 133.752350 -7.248090 -0.415433 0.033422 -0.909009 0.488791 0.880781 1 2 1.000000
versus_doors
  2 1.194149 133.647156 -7.137097 -0.415433 0.033422 -0.909009 0.489954 0.880347 1 2 1.000000
  2 1.473896 159.914734 -7.243896 -0.415433 0.033422 -0.909009 0.488793 0.988897 1 2 1.000000
  2 1.475712 133.752350 -7.248090 -0.415433 0.033422 -0.909009 0.488791 0.880781 1 2 1.000000
versus_doors
  2 1.194149 133.647156 -7.137097 -0.415433 0.033422 -0.909009 0.489954 0.880347 1 2 1.000000
  2 1.180710 160.100204 -7.093681 -0.415433 0.033422 -0.909009 0.490004 0.989666 1 2 1.000000
  2 1.473896 159.914734 -7.243896 -0.415433 0.033422 -0.909009 0.488793 0.988897 1 2 1.000000
versus_doors
  2 0.436394 132.755280 -6.263301 -0.733440 0.029877 -0.679098 0.609408 0.262468 1 2 1.000000
  2 1.445175 131.661469 -7.386505 -0.713320 0.059231 -0.698331 0.604670 0.268875 1 2 1.000000
  2 0.265633 131.216629 -6.394808 -0.713320 0.059231 -0.698331 0.602732 0.262590 1 2 1.000000
versus_doors
  2 0.436394 132.755280 -6.263301 -0.733440 0.029877 -0.679098 0.609408 0.262468 1 2 1.000000
  2 1.194149 133.647156 -7.137097 -0.733440 0.029877 -0.679098 0.613279 0.267395 1 2 1.000000
  2 1.445175 131.661469 -7.386505 -0.713320 0.059231 -0.698331 0.604670 0.268875 1 2 1.000000
versus_doors
  2 1.194149 133.647156 -7.137097 -0.733440 0.029877 -0.679098 0.613279 0.267395 1 2 1.000000
  2 0.436394 132.755280 -6.263301 -0.733440 0.029877 -0.679098 0.609408 0.262468 1 2 1.000000
  2 0.443321 160.100128 -6.260530 -0.752359 0.000474 -0.658753 0.727991 0.262482 1 2 1.000000
versus_doors
  2 1.194149 133.647156 -7.137097 -0.733440 0.029877 -0.679098 0.613279 0.267395 1 2 1.000000
  2 0.443321 160.100128 -6.260530 -0.752359 0.000474 -0.658753 0.727991 0.262482 1 2 1.000000
  2 1.180710 160.100204 -7.093681 -0.752359 0.000474 -0.658753 0.727995 0.267211 1 2 1.000000
versus_doors
  2 63.640640 131.429321 -7.074520 0.000524 -0.733196 -0.680017 0.231892 0.871168 1 2 1.000000
  2 115.804550 131.671661 -7.251831 0.001399 -0.768996 -0.639252 0.016323 0.872156 1 2 1.000000
  2 115.990105 131.437637 -7.072845 0.001399 -0.768996 -0.639252 0.015556 0.871191 1 2 1.000000
versus_doors
  2 63.640640 131.429321 -7.074520 0.000524 -0.733196 -0.680017 0.231892 0.871168 1 2 1.000000
  2 63.455902 131.491028 -7.252079 0.000524 -0.733196 -0.680017 0.232656 0.871421 1 2 1.000000
  2 115.804550 131.671661 -7.251831 0.001399 -0.768996 -0.639252 0.016323 0.872156 1 2 1.000000
versus_doors
  2 63.640640 131.429321 -7.074520 0.000524 -0.733196 -0.680017 0.231892 0.871168 1 2 1.000000
  2 1.708279 131.901398 -7.500724 -0.000353 -0.695238 -0.718780 0.487831 0.873128 1 2 1.000000
  2 63.455902 131.491028 -7.252079 0.000524 -0.733196 -0.680017 0.232656 0.871421 1 2 1.000000
versus_doors
  2 63.640640 131.429321 -7.074520 0.000524 -0.733196 -0.680017 0.231892 0.871168 1 2 1.000000
  2 1.445175 131.661469 -7.386505 -0.000353 -0.695238 -0.718780 0.488918 0.872139 1 2 1.000000
  2 1.708279 131.901398 -7.500724 -0.000353 -0.695238 -0.718780 0.487831 0.873128 1 2 1.000000
end
