// Created by Crowbar 0.74
version 1
nodes
  0 "base" -1
  1 "doorhinge" 0
  2 "doorhandle" 1
  3 "light1" 0
end
skeleton
  time 0
    0 0.000000 0.000000 0.000000 1.570792 0.000003 -0.000003
    1 -46.661724 31.972027 -5.996205 0.000000 0.000000 0.000000
    2 18.079386 -2.476408 1.115959 0.000000 0.000000 0.000000
    3 -36.750000 48.562500 -5.574219 0.000000 0.000000 0.000000
  time 1
    0 0.000000 0.000000 0.000000 1.570792 0.000003 -0.000003
    1 -46.661724 31.972027 -5.996205 0.000000 0.000000 0.000000
    2 18.079386 -2.476408 1.115959 0.000000 0.000000 0.000000
    3 -36.750000 48.562500 -5.574219 0.000000 0.000000 0.000000
  time 2
    0 0.000000 0.000000 0.000000 1.570792 0.000003 -0.000003
    1 -46.661724 31.972027 -5.996205 0.000000 0.000000 0.000000
    2 18.079386 -2.476408 1.115959 0.000000 0.000000 0.000000
    3 -36.750000 48.562500 -5.574219 0.000000 0.000000 0.000000
  time 3
    0 0.000000 0.000000 0.000000 1.570792 0.000003 -0.000003
    1 -46.661724 31.972027 -5.996205 0.000000 0.000000 0.000000
    2 18.079386 -2.476408 1.115959 0.000000 0.000000 0.000000
    3 -36.750000 48.562500 -5.574219 0.000000 0.000000 0.000000
  time 4
    0 0.000000 0.000000 0.000000 1.570792 0.000003 -0.000003
    1 -46.661724 31.972027 -5.996205 0.000000 0.000000 0.000000
    2 18.079386 -2.476408 1.115959 0.000000 0.000000 0.000000
    3 -36.750000 48.562500 -5.574219 0.000000 0.000000 0.000000
  time 5
    0 0.000000 0.000000 0.000000 1.570792 0.000003 -0.000003
    1 -46.661724 31.972027 -5.996205 0.000000 0.000000 0.000000
    2 18.079386 -2.476408 1.115959 0.000000 0.000000 0.000000
    3 -36.750000 48.562500 -5.574219 0.000000 0.000000 0.000000
  time 6
    0 0.000000 0.000000 0.000000 1.570792 0.000003 -0.000003
    1 -46.661724 31.972027 -5.996205 0.000000 0.000000 0.000000
    2 18.079386 -2.476408 1.115959 0.000000 0.000000 0.000000
    3 -36.750000 48.562500 -5.574219 0.000000 0.000000 0.000000
  time 7
    0 0.000000 0.000000 0.000000 1.570792 0.000003 -0.000003
    1 -46.661724 31.972027 -5.996205 0.000000 0.000000 0.000000
    2 18.079386 -2.476408 1.115959 0.000000 0.000000 0.000000
    3 -36.750000 48.562500 -5.574219 0.000000 0.000000 0.000000
  time 8
    0 0.000000 0.000000 0.000000 1.570792 0.000003 -0.000003
    1 -46.661724 31.972027 -5.996205 0.000000 0.000000 0.000000
    2 18.079386 -2.476408 1.115959 0.000000 0.000000 0.000000
    3 -36.750000 48.562500 -5.574219 0.000000 0.000000 0.000000
  time 9
    0 0.000000 0.000000 0.000000 1.570792 0.000003 -0.000003
    1 -46.661724 31.972027 -5.996205 0.000000 0.000000 0.000000
    2 18.079386 -2.476408 1.115959 0.000000 0.000000 0.000000
    3 -36.750000 48.562500 -5.574219 0.000000 0.000000 0.000000
  time 10
    0 0.000000 0.000000 0.000000 1.570792 0.000003 -0.000003
    1 -46.661724 31.972027 -5.996205 0.000000 0.000000 0.000000
    2 18.079386 -2.476408 1.115959 0.000000 0.000000 0.000000
    3 -36.750000 48.562500 -5.574219 0.000000 0.000000 0.000000
end
