// Created by Crowbar 0.74
version 1
nodes
  0 "polymsh1" -1
end
skeleton
  time 0
    0 0.000000 0.000000 0.000000 1.570796 0.000000 0.000000
end
triangles
class_wall
  0 -15.085886 5.997534 6.072815 0.000000 -1.000000 0.000000 -2.847371 0.054687 1 0 1.000000
  0 -6.756096 5.997534 6.072815 0.000000 -1.000000 0.000000 -1.713774 0.054687 1 0 1.000000
  0 -6.835851 5.997534 20.668068 0.000000 -1.000000 0.000000 -1.724628 0.243398 1 0 1.000000
class_wall
  0 -15.085886 5.997534 6.072815 0.000000 -1.000000 0.000000 -2.847371 0.054687 1 0 1.000000
  0 -13.910826 5.997534 20.743458 0.000000 -1.000000 0.000000 -2.687457 0.244373 1 0 1.000000
  0 -18.265383 5.997534 20.789860 0.000000 -1.000000 0.000000 -3.280068 0.244973 1 0 1.000000
class_wall
  0 -15.085886 5.997534 6.072815 0.000000 -1.000000 0.000000 -2.847371 0.054687 1 0 1.000000
  0 -6.835851 5.997534 20.668068 0.000000 -1.000000 0.000000 -1.724628 0.243398 1 0 1.000000
  0 -13.910826 5.997534 20.743458 0.000000 -1.000000 0.000000 -2.687457 0.244373 1 0 1.000000
class_wall
  0 -6.835851 5.997534 20.668068 0.000000 -1.000000 0.000000 -1.724628 0.243398 1 0 1.000000
  0 -10.076736 5.997534 25.397184 0.000000 -1.000000 0.000000 -2.165678 0.304544 1 0 1.000000
  0 -13.910826 5.997534 20.743458 0.000000 -1.000000 0.000000 -2.687457 0.244373 1 0 1.000000
class_wall
  0 -6.835851 5.997534 20.668068 0.000000 -1.000000 0.000000 -1.724628 0.243398 1 0 1.000000
  0 -6.882877 5.997533 29.273813 0.000000 -1.000000 0.000000 -1.731027 0.354668 1 0 1.000000
  0 -10.076736 5.997534 25.397184 0.000000 -1.000000 0.000000 -2.165678 0.304544 1 0 1.000000
class_wall
  0 -6.901000 5.997533 32.590336 0.000000 -1.000000 0.000000 -1.733494 0.397549 1 0 1.000000
  0 -10.076736 5.997534 25.397184 0.000000 -1.000000 0.000000 -2.165678 0.304544 1 0 1.000000
  0 -6.882877 5.997533 29.273813 0.000000 -1.000000 0.000000 -1.731027 0.354668 1 0 1.000000
class_wall
  0 -6.901000 5.997533 32.590336 0.000000 -1.000000 0.000000 -1.733494 0.397549 1 0 1.000000
  0 -9.972213 5.997533 32.590343 0.000000 -1.000000 0.000000 -2.151453 0.397549 1 0 1.000000
  0 -10.076736 5.997534 25.397184 0.000000 -1.000000 0.000000 -2.165678 0.304544 1 0 1.000000
class_wall
  0 -7.041192 5.997532 58.245441 0.000000 -1.000000 0.000000 -1.752572 0.729261 1 0 1.000000
  0 -9.972213 5.997533 32.590343 0.000000 -1.000000 0.000000 -2.151453 0.397549 1 0 1.000000
  0 -6.901000 5.997533 32.590336 0.000000 -1.000000 0.000000 -1.733494 0.397549 1 0 1.000000
class_wall
  0 -7.041192 5.997532 58.245441 0.000000 -1.000000 0.000000 -1.752572 0.729261 1 0 1.000000
  0 -24.264706 5.997533 32.590378 0.000000 -1.000000 0.000000 -4.096512 0.397550 1 0 1.000000
  0 -9.972213 5.997533 32.590343 0.000000 -1.000000 0.000000 -2.151453 0.397549 1 0 1.000000
class_wall
  0 -7.041192 5.997532 58.245441 0.000000 -1.000000 0.000000 -1.752572 0.729261 1 0 1.000000
  0 -24.739288 5.997533 32.590378 0.000000 -1.000000 0.000000 -4.161098 0.397550 1 0 1.000000
  0 -24.264706 5.997533 32.590378 0.000000 -1.000000 0.000000 -4.096512 0.397550 1 0 1.000000
class_wall
  0 -24.739288 5.997533 32.590378 0.000000 -1.000000 0.000000 -4.161098 0.397550 1 0 1.000000
  0 -24.226494 5.997534 24.298275 0.000000 -1.000000 0.000000 -4.091312 0.290336 1 0 1.000000
  0 -24.264706 5.997533 32.590378 0.000000 -1.000000 0.000000 -4.096512 0.397550 1 0 1.000000
class_wall
  0 -24.739288 5.997533 32.590378 0.000000 -1.000000 0.000000 -4.161098 0.397550 1 0 1.000000
  0 -24.764660 5.997534 23.329576 0.000000 -1.000000 0.000000 -4.164551 0.277811 1 0 1.000000
  0 -24.226494 5.997534 24.298275 0.000000 -1.000000 0.000000 -4.091312 0.290336 1 0 1.000000
class_wall
  0 -7.041192 5.997532 58.245441 0.000000 -1.000000 0.000000 -1.752572 0.729261 1 0 1.000000
  0 -24.669001 5.997532 58.245441 0.000000 -1.000000 0.000000 -4.151533 0.729261 1 0 1.000000
  0 -24.739288 5.997533 32.590378 0.000000 -1.000000 0.000000 -4.161098 0.397550 1 0 1.000000
class_wall
  0 -70.313126 5.997535 -5.140436 0.000000 -1.000000 0.000000 -10.364733 0.001666 1 0 1.000000
  0 -89.661865 5.997534 6.072815 0.000000 -1.000000 0.000000 -13.144374 0.054195 1 0 1.000000
  0 -89.661865 5.997535 -5.140436 0.000000 -1.000000 0.000000 -13.144374 0.002328 1 0 1.000000
class_wall
  0 -70.313126 5.997535 -5.140436 0.000000 -1.000000 0.000000 -10.364733 0.001666 1 0 1.000000
  0 -70.313126 5.997534 6.072815 0.000000 -1.000000 0.000000 -10.366246 0.054441 1 0 1.000000
  0 -89.661865 5.997534 6.072815 0.000000 -1.000000 0.000000 -13.144374 0.054195 1 0 1.000000
class_wall
  0 -70.313126 5.997534 6.072815 0.000000 -1.000000 0.000000 -10.366246 0.054441 1 0 1.000000
  0 -89.661865 5.997532 58.245441 0.000000 -1.000000 0.000000 -13.144374 0.729187 1 0 1.000000
  0 -89.661865 5.997534 6.072815 0.000000 -1.000000 0.000000 -13.144374 0.054195 1 0 1.000000
class_wall
  0 -70.313126 5.997534 6.072815 0.000000 -1.000000 0.000000 -10.366246 0.054441 1 0 1.000000
  0 -70.313126 5.997532 58.245441 0.000000 -1.000000 0.000000 -10.365641 0.729231 1 0 1.000000
  0 -89.661865 5.997532 58.245441 0.000000 -1.000000 0.000000 -13.144374 0.729187 1 0 1.000000
class_wall
  0 -70.313126 5.997532 58.245441 0.000000 -1.000000 0.000000 -10.365641 0.729231 1 0 1.000000
  0 -70.313126 5.997534 6.072815 0.000000 -1.000000 0.000000 -10.366246 0.054441 1 0 1.000000
  0 -49.056194 5.997534 6.072815 0.000000 -1.000000 0.000000 -7.470375 0.054687 1 0 1.000000
class_wall
  0 -70.313126 5.997532 58.245441 0.000000 -1.000000 0.000000 -10.365641 0.729231 1 0 1.000000
  0 -49.056194 5.997534 6.072815 0.000000 -1.000000 0.000000 -7.470375 0.054687 1 0 1.000000
  0 -49.341293 5.997532 58.245441 0.000000 -1.000000 0.000000 -7.509173 0.729261 1 0 1.000000
class_wall
  0 -70.313126 5.997532 58.245441 0.000000 -1.000000 0.000000 -10.365641 0.729231 1 0 1.000000
  0 -49.341293 5.997532 58.245441 0.000000 -1.000000 0.000000 -7.509173 0.729261 1 0 1.000000
  0 -25.321484 5.997531 71.134575 0.000000 -1.000000 0.000000 -4.240329 0.892162 1 0 1.000000
class_wall
  0 -49.341293 5.997532 58.245441 0.000000 -1.000000 0.000000 -7.509173 0.729261 1 0 1.000000
  0 -24.669001 5.997532 58.245441 0.000000 -1.000000 0.000000 -4.151533 0.729261 1 0 1.000000
  0 -25.321484 5.997531 71.134575 0.000000 -1.000000 0.000000 -4.240329 0.892162 1 0 1.000000
class_wall
  0 -7.041192 5.997532 58.245441 0.000000 -1.000000 0.000000 -1.752572 0.729261 1 0 1.000000
  0 -25.321484 5.997531 71.134575 0.000000 -1.000000 0.000000 -4.240329 0.892162 1 0 1.000000
  0 -24.669001 5.997532 58.245441 0.000000 -1.000000 0.000000 -4.151533 0.729261 1 0 1.000000
class_wall
  0 -7.041192 5.997532 58.245441 0.000000 -1.000000 0.000000 -1.752572 0.729261 1 0 1.000000
  0 -18.006388 5.997531 71.134575 0.000000 -1.000000 0.000000 -3.244821 0.892162 1 0 1.000000
  0 -25.321484 5.997531 71.134575 0.000000 -1.000000 0.000000 -4.240329 0.892162 1 0 1.000000
class_wall
  0 -18.006388 5.997531 79.077454 0.000000 -1.000000 0.000000 -3.244821 0.991746 1 0 1.000000
  0 -18.006388 5.997531 71.134575 0.000000 -1.000000 0.000000 -3.244821 0.892162 1 0 1.000000
  0 -7.041192 5.997532 58.245441 0.000000 -1.000000 0.000000 -1.752572 0.729261 1 0 1.000000
class_wall
  0 -25.321484 5.997531 79.077454 0.000000 -1.000000 0.000000 -4.240329 0.991746 1 0 1.000000
  0 -70.313126 5.997532 58.245441 0.000000 -1.000000 0.000000 -10.365641 0.729231 1 0 1.000000
  0 -25.321484 5.997531 71.134575 0.000000 -1.000000 0.000000 -4.240329 0.892162 1 0 1.000000
class_wall
  0 -25.321484 5.997531 79.077454 0.000000 -1.000000 0.000000 -4.240329 0.991746 1 0 1.000000
  0 -70.313126 5.997531 79.077454 0.000000 -1.000000 0.000000 -10.364733 0.991981 1 0 1.000000
  0 -70.313126 5.997532 58.245441 0.000000 -1.000000 0.000000 -10.365641 0.729231 1 0 1.000000
class_wall
  0 -70.313126 5.997532 58.245441 0.000000 -1.000000 0.000000 -10.365641 0.729231 1 0 1.000000
  0 -70.313126 5.997531 79.077454 0.000000 -1.000000 0.000000 -10.364733 0.991981 1 0 1.000000
  0 -89.661865 5.997531 79.077454 0.000000 -1.000000 0.000000 -13.144374 0.992685 1 0 1.000000
class_wall
  0 -70.313126 5.997532 58.245441 0.000000 -1.000000 0.000000 -10.365641 0.729231 1 0 1.000000
  0 -89.661865 5.997531 79.077454 0.000000 -1.000000 0.000000 -13.144374 0.992685 1 0 1.000000
  0 -89.661865 5.997532 58.245441 0.000000 -1.000000 0.000000 -13.144374 0.729187 1 0 1.000000
class_wall
  0 -70.313126 5.997535 -5.140436 0.000000 -1.000000 0.000000 -10.364733 0.001666 1 0 1.000000
  0 -49.056194 5.997534 6.072815 0.000000 -1.000000 0.000000 -7.470375 0.054837 1 0 1.000000
  0 -70.313126 5.997534 6.072815 0.000000 -1.000000 0.000000 -10.366246 0.054441 1 0 1.000000
class_wall
  0 -70.313126 5.997535 -5.140436 0.000000 -1.000000 0.000000 -10.364733 0.001666 1 0 1.000000
  0 -46.577213 5.997535 -5.140436 0.000000 -1.000000 0.000000 -7.133011 0.001446 1 0 1.000000
  0 -49.056194 5.997534 6.072815 0.000000 -1.000000 0.000000 -7.470375 0.054837 1 0 1.000000
class_wall
  0 -24.811939 5.997534 6.072815 0.000000 -1.000000 0.000000 -4.170985 0.054687 1 0 1.000000
  0 -27.218712 5.997535 -5.140436 0.000000 -1.000000 0.000000 -4.498522 0.001446 1 0 1.000000
  0 -20.158068 5.997535 -5.140436 0.000000 -1.000000 0.000000 -3.537642 0.001446 1 0 1.000000
class_wall
  0 -24.811939 5.997534 6.072815 0.000000 -1.000000 0.000000 -4.170985 0.054687 1 0 1.000000
  0 -27.101601 5.997534 6.072815 0.000000 -1.000000 0.000000 -4.482584 0.054687 1 0 1.000000
  0 -27.218712 5.997535 -5.140436 0.000000 -1.000000 0.000000 -4.498522 0.001446 1 0 1.000000
class_wall
  0 -46.599476 5.997534 6.072815 0.000000 -1.000000 0.000000 -7.136041 0.054687 1 0 1.000000
  0 -27.218712 5.997535 -5.140436 0.000000 -1.000000 0.000000 -4.498522 0.001446 1 0 1.000000
  0 -27.101601 5.997534 6.072815 0.000000 -1.000000 0.000000 -4.482584 0.054687 1 0 1.000000
class_wall
  0 -46.599476 5.997534 6.072815 0.000000 -1.000000 0.000000 -7.136041 0.054687 1 0 1.000000
  0 -46.577213 5.997535 -5.140436 0.000000 -1.000000 0.000000 -7.133011 0.001446 1 0 1.000000
  0 -27.218712 5.997535 -5.140436 0.000000 -1.000000 0.000000 -4.498522 0.001446 1 0 1.000000
class_wall
  0 -49.056194 5.997534 6.072815 0.000000 -1.000000 0.000000 -7.470375 0.054687 1 0 1.000000
  0 -46.577213 5.997535 -5.140436 0.000000 -1.000000 0.000000 -7.133011 0.001446 1 0 1.000000
  0 -46.599476 5.997534 6.072815 0.000000 -1.000000 0.000000 -7.136041 0.054687 1 0 1.000000
class_wall
  0 -18.265383 5.997534 20.789860 0.000000 -1.000000 0.000000 -3.280068 0.244973 1 0 1.000000
  0 -18.265383 5.997534 6.072815 0.000000 -1.000000 0.000000 -3.280068 0.054687 1 0 1.000000
  0 -16.524765 5.997534 6.072815 0.000000 -1.000000 0.000000 -3.043188 0.054687 1 0 1.000000
class_wall
  0 -16.524765 5.997534 6.072815 0.000000 -1.000000 0.000000 -3.043188 0.054687 1 0 1.000000
  0 -18.265383 5.997534 6.072815 0.000000 -1.000000 0.000000 -3.280068 0.054687 1 0 1.000000
  0 -18.239155 5.997534 5.963964 0.000000 -1.000000 0.000000 -3.276497 0.053279 1 0 1.000000
class_wall
  0 -16.524765 5.997534 6.072815 0.000000 -1.000000 0.000000 -3.043188 0.054687 1 0 1.000000
  0 -18.239155 5.997534 5.963964 0.000000 -1.000000 0.000000 -3.276497 0.053279 1 0 1.000000
  0 -18.024418 5.997535 -5.140436 0.000000 -1.000000 0.000000 -3.247274 0.001446 1 0 1.000000
class_wall
  0 -20.158068 5.997535 -5.140436 0.000000 -1.000000 0.000000 -3.537642 0.001446 1 0 1.000000
  0 -18.024418 5.997535 -5.140436 0.000000 -1.000000 0.000000 -3.247274 0.001446 1 0 1.000000
  0 -18.239155 5.997534 5.963964 0.000000 -1.000000 0.000000 -3.276497 0.053279 1 0 1.000000
class_wall
  0 -20.158068 5.997535 -5.140436 0.000000 -1.000000 0.000000 -3.537642 0.001446 1 0 1.000000
  0 -18.239155 5.997534 5.963964 0.000000 -1.000000 0.000000 -3.276497 0.053279 1 0 1.000000
  0 -20.137394 5.997534 6.072815 0.000000 -1.000000 0.000000 -3.534828 0.054687 1 0 1.000000
class_wall
  0 -24.811939 5.997534 6.072815 0.000000 -1.000000 0.000000 -4.170985 0.054687 1 0 1.000000
  0 -20.158068 5.997535 -5.140436 0.000000 -1.000000 0.000000 -3.537642 0.001446 1 0 1.000000
  0 -20.137394 5.997534 6.072815 0.000000 -1.000000 0.000000 -3.534828 0.054687 1 0 1.000000
class_wall
  0 -24.811939 5.997534 6.072815 0.000000 -1.000000 0.000000 -4.170985 0.054687 1 0 1.000000
  0 -20.137394 5.997534 6.072815 0.000000 -1.000000 0.000000 -3.534828 0.054687 1 0 1.000000
  0 -20.214317 5.997534 20.810627 0.000000 -1.000000 0.000000 -3.545297 0.245242 1 0 1.000000
class_wall
  0 -24.811939 5.997534 6.072815 0.000000 -1.000000 0.000000 -4.170985 0.054687 1 0 1.000000
  0 -20.214317 5.997534 20.810627 0.000000 -1.000000 0.000000 -3.545297 0.245242 1 0 1.000000
  0 -24.771429 5.997534 20.859186 0.000000 -1.000000 0.000000 -4.165472 0.245869 1 0 1.000000
class_wall
  0 -16.524765 5.997534 6.072815 0.000000 -1.000000 0.000000 -3.043188 0.054687 1 0 1.000000
  0 -18.024418 5.997535 -5.140436 0.000000 -1.000000 0.000000 -3.247274 0.001446 1 0 1.000000
  0 70.167068 5.997535 -5.140436 0.000000 -1.000000 0.000000 8.752893 0.001666 1 0 1.000000
class_wall
  0 54.555218 5.997531 79.077454 0.000000 -1.000000 0.000000 6.630054 0.991746 1 0 1.000000
  0 55.322327 5.997531 71.599892 0.000000 -1.000000 0.000000 6.734450 0.898179 1 0 1.000000
  0 56.009182 5.997532 70.748192 0.000000 -1.000000 0.000000 6.827924 0.887167 1 0 1.000000
class_wall
  0 54.555218 5.997531 79.077454 0.000000 -1.000000 0.000000 6.630054 0.991746 1 0 1.000000
  0 54.388206 5.997531 72.369171 0.000000 -1.000000 0.000000 6.607326 0.908125 1 0 1.000000
  0 55.322327 5.997531 71.599892 0.000000 -1.000000 0.000000 6.734450 0.898179 1 0 1.000000
class_wall
  0 54.388206 5.997531 72.369171 0.000000 -1.000000 0.000000 6.607326 0.908125 1 0 1.000000
  0 54.555218 5.997531 79.077454 0.000000 -1.000000 0.000000 6.630054 0.991746 1 0 1.000000
  0 49.635902 5.997531 79.077454 0.000000 -1.000000 0.000000 5.960587 0.991746 1 0 1.000000
class_wall
  0 54.388206 5.997531 72.369171 0.000000 -1.000000 0.000000 6.607326 0.908125 1 0 1.000000
  0 49.635902 5.997531 79.077454 0.000000 -1.000000 0.000000 5.960587 0.991746 1 0 1.000000
  0 49.580227 5.997531 72.396645 0.000000 -1.000000 0.000000 5.953010 0.908481 1 0 1.000000
class_wall
  0 48.618633 5.997531 71.627365 0.000000 -1.000000 0.000000 5.822148 0.898534 1 0 1.000000
  0 49.580227 5.997531 72.396645 0.000000 -1.000000 0.000000 5.953010 0.908481 1 0 1.000000
  0 49.635902 5.997531 79.077454 0.000000 -1.000000 0.000000 5.960587 0.991746 1 0 1.000000
class_wall
  0 48.618633 5.997531 71.627365 0.000000 -1.000000 0.000000 5.822148 0.898534 1 0 1.000000
  0 49.635902 5.997531 79.077454 0.000000 -1.000000 0.000000 5.960587 0.991746 1 0 1.000000
  0 42.802998 5.997531 79.077454 0.000000 -1.000000 0.000000 5.030700 0.991746 1 0 1.000000
class_wall
  0 48.618633 5.997531 71.627365 0.000000 -1.000000 0.000000 5.822148 0.898534 1 0 1.000000
  0 42.802998 5.997531 79.077454 0.000000 -1.000000 0.000000 5.030700 0.991746 1 0 1.000000
  0 47.711987 5.997532 70.610825 0.000000 -1.000000 0.000000 5.698762 0.885390 1 0 1.000000
class_wall
  0 47.711987 5.997532 70.610825 0.000000 -1.000000 0.000000 5.698762 0.885390 1 0 1.000000
  0 42.802998 5.997531 79.077454 0.000000 -1.000000 0.000000 5.030700 0.991746 1 0 1.000000
  0 47.547142 5.997532 70.171234 0.000000 -1.000000 0.000000 5.676329 0.879707 1 0 1.000000
class_wall
  0 -18.006388 5.997531 79.077454 0.000000 -1.000000 0.000000 -3.244821 0.991746 1 0 1.000000
  0 47.547142 5.997532 70.171234 0.000000 -1.000000 0.000000 5.676329 0.879707 1 0 1.000000
  0 42.802998 5.997531 79.077454 0.000000 -1.000000 0.000000 5.030700 0.991746 1 0 1.000000
class_wall
  0 -18.006388 5.997531 79.077454 0.000000 -1.000000 0.000000 -3.244821 0.991746 1 0 1.000000
  0 47.080078 5.997532 67.808464 0.000000 -1.000000 0.000000 5.612767 0.849157 1 0 1.000000
  0 47.547142 5.997532 70.171234 0.000000 -1.000000 0.000000 5.676329 0.879707 1 0 1.000000
class_wall
  0 -18.006388 5.997531 79.077454 0.000000 -1.000000 0.000000 -3.244821 0.991746 1 0 1.000000
  0 47.832470 5.997532 58.245441 0.000000 -1.000000 0.000000 5.715158 0.729261 1 0 1.000000
  0 47.080078 5.997532 67.808464 0.000000 -1.000000 0.000000 5.612767 0.849157 1 0 1.000000
class_wall
  0 -18.006388 5.997531 79.077454 0.000000 -1.000000 0.000000 -3.244821 0.991746 1 0 1.000000
  0 -7.041192 5.997532 58.245441 0.000000 -1.000000 0.000000 -1.752572 0.729261 1 0 1.000000
  0 47.832470 5.997532 58.245441 0.000000 -1.000000 0.000000 5.715158 0.729261 1 0 1.000000
class_wall
  0 -7.041192 5.997532 58.245441 0.000000 -1.000000 0.000000 -1.752572 0.729261 1 0 1.000000
  0 47.867680 5.997534 6.072815 0.000000 -1.000000 0.000000 5.719951 0.054687 1 0 1.000000
  0 47.832470 5.997532 58.245441 0.000000 -1.000000 0.000000 5.715158 0.729261 1 0 1.000000
class_wall
  0 -7.041192 5.997532 58.245441 0.000000 -1.000000 0.000000 -1.752572 0.729261 1 0 1.000000
  0 -6.756096 5.997534 6.072815 0.000000 -1.000000 0.000000 -1.713774 0.054681 1 0 1.000000
  0 47.867680 5.997534 6.072815 0.000000 -1.000000 0.000000 5.719951 0.054687 1 0 1.000000
class_wall
  0 70.167068 5.997535 -5.140436 0.000000 -1.000000 0.000000 8.752893 0.001666 1 0 1.000000
  0 47.867680 5.997534 6.072815 0.000000 -1.000000 0.000000 5.719951 0.054687 1 0 1.000000
  0 -6.756096 5.997534 6.072815 0.000000 -1.000000 0.000000 -1.713774 0.054681 1 0 1.000000
class_wall
  0 70.167068 5.997535 -5.140436 0.000000 -1.000000 0.000000 8.752893 0.001666 1 0 1.000000
  0 -6.756096 5.997534 6.072815 0.000000 -1.000000 0.000000 -1.713774 0.054681 1 0 1.000000
  0 -15.085886 5.997534 6.072815 0.000000 -1.000000 0.000000 -2.847371 0.054687 1 0 1.000000
class_wall
  0 70.167068 5.997535 -5.140436 0.000000 -1.000000 0.000000 8.752893 0.001666 1 0 1.000000
  0 -15.085886 5.997534 6.072815 0.000000 -1.000000 0.000000 -2.847371 0.054687 1 0 1.000000
  0 -16.524765 5.997534 6.072815 0.000000 -1.000000 0.000000 -3.043188 0.054687 1 0 1.000000
class_wall
  0 -18.265383 5.997534 20.789860 0.000000 -1.000000 0.000000 -3.280068 0.244973 1 0 1.000000
  0 -16.524765 5.997534 6.072815 0.000000 -1.000000 0.000000 -3.043188 0.054687 1 0 1.000000
  0 -15.085886 5.997534 6.072815 0.000000 -1.000000 0.000000 -2.847371 0.054687 1 0 1.000000
class_wall
  0 56.723511 5.997532 67.780983 0.000000 -1.000000 0.000000 6.925137 0.848802 1 0 1.000000
  0 47.547142 5.997532 70.171234 0.000000 -1.000000 0.000000 5.676329 0.879707 1 0 1.000000
  0 47.080078 5.997532 67.808464 0.000000 -1.000000 0.000000 5.612767 0.849157 1 0 1.000000
class_wall
  0 56.723511 5.997532 67.780983 0.000000 -1.000000 0.000000 6.925137 0.848802 1 0 1.000000
  0 56.283924 5.997532 70.198715 0.000000 -1.000000 0.000000 6.865314 0.880062 1 0 1.000000
  0 47.547142 5.997532 70.171234 0.000000 -1.000000 0.000000 5.676329 0.879707 1 0 1.000000
class_wall
  0 47.189976 5.997532 66.956764 0.000000 -1.000000 0.000000 5.627721 0.838145 1 0 1.000000
  0 47.080078 5.997532 67.808464 0.000000 -1.000000 0.000000 5.612767 0.849157 1 0 1.000000
  0 47.832470 5.997532 58.245441 0.000000 -1.000000 0.000000 5.715158 0.729261 1 0 1.000000
class_wall
  0 47.832470 5.997532 58.245441 0.000000 -1.000000 0.000000 5.715158 0.729261 1 0 1.000000
  0 47.711987 5.997532 65.638000 0.000000 -1.000000 0.000000 5.698762 0.821094 1 0 1.000000
  0 47.189976 5.997532 66.956764 0.000000 -1.000000 0.000000 5.627721 0.838145 1 0 1.000000
class_wall
  0 47.832470 5.997532 58.245441 0.000000 -1.000000 0.000000 5.715158 0.729261 1 0 1.000000
  0 48.536209 5.997532 64.621460 0.000000 -1.000000 0.000000 5.810930 0.807950 1 0 1.000000
  0 47.711987 5.997532 65.638000 0.000000 -1.000000 0.000000 5.698762 0.821094 1 0 1.000000
class_wall
  0 47.832470 5.997532 58.245441 0.000000 -1.000000 0.000000 5.715158 0.729261 1 0 1.000000
  0 49.470333 5.997532 63.934605 0.000000 -1.000000 0.000000 5.938055 0.799069 1 0 1.000000
  0 48.536209 5.997532 64.621460 0.000000 -1.000000 0.000000 5.810930 0.807950 1 0 1.000000
class_wall
  0 47.832470 5.997532 58.245441 0.000000 -1.000000 0.000000 5.715158 0.729261 1 0 1.000000
  0 50.624245 5.997532 63.412594 0.000000 -1.000000 0.000000 6.095091 0.792320 1 0 1.000000
  0 49.470333 5.997532 63.934605 0.000000 -1.000000 0.000000 5.938055 0.799069 1 0 1.000000
class_wall
  0 47.832470 5.997532 58.245441 0.000000 -1.000000 0.000000 5.715158 0.729261 1 0 1.000000
  0 51.915531 5.997532 63.330173 0.000000 -1.000000 0.000000 6.270820 0.791254 1 0 1.000000
  0 50.624245 5.997532 63.412594 0.000000 -1.000000 0.000000 6.095091 0.792320 1 0 1.000000
class_wall
  0 70.167068 5.997532 58.245441 0.000000 -1.000000 0.000000 8.752303 0.729236 1 0 1.000000
  0 51.915531 5.997532 63.330173 0.000000 -1.000000 0.000000 6.270820 0.791254 1 0 1.000000
  0 47.832470 5.997532 58.245441 0.000000 -1.000000 0.000000 5.715158 0.729261 1 0 1.000000
class_wall
  0 70.167068 5.997532 58.245441 0.000000 -1.000000 0.000000 8.752303 0.729236 1 0 1.000000
  0 53.316715 5.997532 63.467545 0.000000 -1.000000 0.000000 6.461507 0.793030 1 0 1.000000
  0 51.915531 5.997532 63.330173 0.000000 -1.000000 0.000000 6.270820 0.791254 1 0 1.000000
class_wall
  0 70.167068 5.997532 58.245441 0.000000 -1.000000 0.000000 8.752303 0.729236 1 0 1.000000
  0 54.388206 5.997532 63.934605 0.000000 -1.000000 0.000000 6.607326 0.799069 1 0 1.000000
  0 53.316715 5.997532 63.467545 0.000000 -1.000000 0.000000 6.461507 0.793030 1 0 1.000000
class_wall
  0 55.349800 5.997532 64.676407 0.000000 -1.000000 0.000000 6.738188 0.808661 1 0 1.000000
  0 54.388206 5.997532 63.934605 0.000000 -1.000000 0.000000 6.607326 0.799069 1 0 1.000000
  0 70.167068 5.997532 58.245441 0.000000 -1.000000 0.000000 8.752303 0.729236 1 0 1.000000
class_wall
  0 70.167068 5.997532 58.245441 0.000000 -1.000000 0.000000 8.752303 0.729236 1 0 1.000000
  0 56.119076 5.997532 65.665474 0.000000 -1.000000 0.000000 6.842879 0.821449 1 0 1.000000
  0 55.349800 5.997532 64.676407 0.000000 -1.000000 0.000000 6.738188 0.808661 1 0 1.000000
class_wall
  0 70.167068 5.997532 58.245441 0.000000 -1.000000 0.000000 8.752303 0.729236 1 0 1.000000
  0 56.613613 5.997532 66.846863 0.000000 -1.000000 0.000000 6.910182 0.836724 1 0 1.000000
  0 56.119076 5.997532 65.665474 0.000000 -1.000000 0.000000 6.842879 0.821449 1 0 1.000000
class_wall
  0 70.167068 5.997532 58.245441 0.000000 -1.000000 0.000000 8.752303 0.729236 1 0 1.000000
  0 56.723511 5.997532 67.780983 0.000000 -1.000000 0.000000 6.925137 0.848802 1 0 1.000000
  0 56.613613 5.997532 66.846863 0.000000 -1.000000 0.000000 6.910182 0.836724 1 0 1.000000
class_wall
  0 56.723511 5.997532 67.780983 0.000000 -1.000000 0.000000 6.925137 0.848802 1 0 1.000000
  0 70.167068 5.997532 58.245441 0.000000 -1.000000 0.000000 8.752303 0.729236 1 0 1.000000
  0 70.167068 5.997531 79.077454 0.000000 -1.000000 0.000000 8.752893 0.991981 1 0 1.000000
class_wall
  0 56.723511 5.997532 67.780983 0.000000 -1.000000 0.000000 6.925137 0.848802 1 0 1.000000
  0 70.167068 5.997531 79.077454 0.000000 -1.000000 0.000000 8.752893 0.991981 1 0 1.000000
  0 63.023293 5.997531 79.077454 0.000000 -1.000000 0.000000 7.782470 0.991746 1 0 1.000000
class_wall
  0 56.723511 5.997532 67.780983 0.000000 -1.000000 0.000000 6.925137 0.848802 1 0 1.000000
  0 63.023293 5.997531 79.077454 0.000000 -1.000000 0.000000 7.782470 0.991746 1 0 1.000000
  0 56.283924 5.997532 70.198715 0.000000 -1.000000 0.000000 6.865314 0.880062 1 0 1.000000
class_wall
  0 56.009182 5.997532 70.748192 0.000000 -1.000000 0.000000 6.827924 0.887167 1 0 1.000000
  0 56.283924 5.997532 70.198715 0.000000 -1.000000 0.000000 6.865314 0.880062 1 0 1.000000
  0 63.023293 5.997531 79.077454 0.000000 -1.000000 0.000000 7.782470 0.991746 1 0 1.000000
class_wall
  0 54.555218 5.997531 79.077454 0.000000 -1.000000 0.000000 6.630054 0.991746 1 0 1.000000
  0 56.009182 5.997532 70.748192 0.000000 -1.000000 0.000000 6.827924 0.887167 1 0 1.000000
  0 63.023293 5.997531 79.077454 0.000000 -1.000000 0.000000 7.782470 0.991746 1 0 1.000000
class_wall
  0 70.167068 5.997531 79.077454 0.000000 -1.000000 0.000000 8.752893 0.991981 1 0 1.000000
  0 89.515808 5.997532 58.245441 0.000000 -1.000000 0.000000 11.522685 0.729187 1 0 1.000000
  0 89.515808 5.997531 79.077454 0.000000 -1.000000 0.000000 11.522685 0.992685 1 0 1.000000
class_wall
  0 70.167068 5.997531 79.077454 0.000000 -1.000000 0.000000 8.752893 0.991981 1 0 1.000000
  0 70.167068 5.997532 58.245441 0.000000 -1.000000 0.000000 8.752303 0.729236 1 0 1.000000
  0 89.515808 5.997532 58.245441 0.000000 -1.000000 0.000000 11.522685 0.729187 1 0 1.000000
class_wall
  0 70.167068 5.997532 58.245441 0.000000 -1.000000 0.000000 8.752303 0.729236 1 0 1.000000
  0 89.515808 5.997534 6.072815 0.000000 -1.000000 0.000000 11.522685 0.054195 1 0 1.000000
  0 89.515808 5.997532 58.245441 0.000000 -1.000000 0.000000 11.522685 0.729187 1 0 1.000000
class_wall
  0 70.167068 5.997532 58.245441 0.000000 -1.000000 0.000000 8.752303 0.729236 1 0 1.000000
  0 70.167068 5.997534 6.072815 0.000000 -1.000000 0.000000 8.751123 0.054441 1 0 1.000000
  0 89.515808 5.997534 6.072815 0.000000 -1.000000 0.000000 11.522685 0.054195 1 0 1.000000
class_wall
  0 70.167068 5.997534 6.072815 0.000000 -1.000000 0.000000 8.751123 0.054441 1 0 1.000000
  0 89.515808 5.997535 -5.140436 0.000000 -1.000000 0.000000 11.522685 0.002328 1 0 1.000000
  0 89.515808 5.997534 6.072815 0.000000 -1.000000 0.000000 11.522685 0.054195 1 0 1.000000
class_wall
  0 70.167068 5.997534 6.072815 0.000000 -1.000000 0.000000 8.751123 0.054441 1 0 1.000000
  0 70.167068 5.997535 -5.140436 0.000000 -1.000000 0.000000 8.752893 0.001666 1 0 1.000000
  0 89.515808 5.997535 -5.140436 0.000000 -1.000000 0.000000 11.522685 0.002328 1 0 1.000000
class_wall
  0 70.167068 5.997535 -5.140436 0.000000 -1.000000 0.000000 8.752893 0.001666 1 0 1.000000
  0 70.167068 5.997534 6.072815 0.000000 -1.000000 0.000000 8.751123 0.054441 1 0 1.000000
  0 47.867680 5.997534 6.072815 0.000000 -1.000000 0.000000 5.719951 0.054687 1 0 1.000000
class_wall
  0 70.167068 5.997532 58.245441 0.000000 -1.000000 0.000000 8.752303 0.729236 1 0 1.000000
  0 47.867680 5.997534 6.072815 0.000000 -1.000000 0.000000 5.719951 0.054687 1 0 1.000000
  0 70.167068 5.997534 6.072815 0.000000 -1.000000 0.000000 8.751123 0.054441 1 0 1.000000
class_wall
  0 70.167068 5.997532 58.245441 0.000000 -1.000000 0.000000 8.752303 0.729236 1 0 1.000000
  0 47.832470 5.997532 58.245441 0.000000 -1.000000 0.000000 5.715158 0.729261 1 0 1.000000
  0 47.867680 5.997534 6.072815 0.000000 -1.000000 0.000000 5.719951 0.054687 1 0 1.000000
class_wall
  0 89.515808 5.997535 -5.140436 0.000000 -1.000000 0.000000 9.916661 0.054174 1 0 1.000000
  0 70.167068 5.997535 -14.826499 0.000000 -1.000000 0.000000 7.668161 0.004049 1 0 1.000000
  0 89.515808 5.997535 -14.826499 0.000000 -1.000000 0.000000 9.916661 0.004049 1 0 1.000000
class_wall
  0 89.515808 5.997535 -5.140436 0.000000 -1.000000 0.000000 9.916661 0.054174 1 0 1.000000
  0 70.167068 5.997535 -5.140436 0.000000 -1.000000 0.000000 7.668161 0.054174 1 0 1.000000
  0 70.167068 5.997535 -14.826499 0.000000 -1.000000 0.000000 7.668161 0.004049 1 0 1.000000
class_wall
  0 70.167068 5.997535 -5.140436 0.000000 -1.000000 0.000000 7.668161 0.054174 1 0 1.000000
  0 -18.024418 5.997535 -14.826499 0.000000 -1.000000 0.000000 -2.580496 0.004049 1 0 1.000000
  0 70.167068 5.997535 -14.826499 0.000000 -1.000000 0.000000 7.668161 0.004049 1 0 1.000000
class_wall
  0 70.167068 5.997535 -5.140436 0.000000 -1.000000 0.000000 7.668161 0.054174 1 0 1.000000
  0 -18.024418 5.997535 -5.140436 0.000000 -1.000000 0.000000 -2.580496 0.054174 1 0 1.000000
  0 -18.024418 5.997535 -14.826499 0.000000 -1.000000 0.000000 -2.580496 0.004049 1 0 1.000000
class_wall
  0 -18.024418 5.997535 -5.140436 0.000000 -1.000000 0.000000 -2.580496 0.054174 1 0 1.000000
  0 -20.158068 5.997535 -14.826499 0.000000 -1.000000 0.000000 -2.828445 0.004049 1 0 1.000000
  0 -18.024418 5.997535 -14.826499 0.000000 -1.000000 0.000000 -2.580496 0.004049 1 0 1.000000
class_wall
  0 -18.024418 5.997535 -5.140436 0.000000 -1.000000 0.000000 -2.580496 0.054174 1 0 1.000000
  0 -20.158068 5.997535 -5.140436 0.000000 -1.000000 0.000000 -2.828445 0.054174 1 0 1.000000
  0 -20.158068 5.997535 -14.826499 0.000000 -1.000000 0.000000 -2.828445 0.004049 1 0 1.000000
class_wall
  0 -20.158068 5.997535 -5.140436 0.000000 -1.000000 0.000000 -2.828445 0.054174 1 0 1.000000
  0 -27.218712 5.997535 -14.826499 0.000000 -1.000000 0.000000 -3.648957 0.004049 1 0 1.000000
  0 -20.158068 5.997535 -14.826499 0.000000 -1.000000 0.000000 -2.828445 0.004049 1 0 1.000000
class_wall
  0 -20.158068 5.997535 -5.140436 0.000000 -1.000000 0.000000 -2.828445 0.054174 1 0 1.000000
  0 -27.218712 5.997535 -5.140436 0.000000 -1.000000 0.000000 -3.648957 0.054174 1 0 1.000000
  0 -27.218712 5.997535 -14.826499 0.000000 -1.000000 0.000000 -3.648957 0.004049 1 0 1.000000
class_wall
  0 -27.218712 5.997535 -5.140436 0.000000 -1.000000 0.000000 -3.648957 0.054174 1 0 1.000000
  0 -46.577213 5.997535 -14.826499 0.000000 -1.000000 0.000000 -5.898592 0.004049 1 0 1.000000
  0 -27.218712 5.997535 -14.826499 0.000000 -1.000000 0.000000 -3.648957 0.004049 1 0 1.000000
class_wall
  0 -27.218712 5.997535 -5.140436 0.000000 -1.000000 0.000000 -3.648957 0.054174 1 0 1.000000
  0 -46.577213 5.997535 -5.140436 0.000000 -1.000000 0.000000 -5.898592 0.054174 1 0 1.000000
  0 -46.577213 5.997535 -14.826499 0.000000 -1.000000 0.000000 -5.898592 0.004049 1 0 1.000000
class_wall
  0 -46.577213 5.997535 -5.140436 0.000000 -1.000000 0.000000 -5.898592 0.054174 1 0 1.000000
  0 -70.313126 5.997535 -14.826499 0.000000 -1.000000 0.000000 -8.656921 0.004049 1 0 1.000000
  0 -46.577213 5.997535 -14.826499 0.000000 -1.000000 0.000000 -5.898592 0.004049 1 0 1.000000
class_wall
  0 -46.577213 5.997535 -5.140436 0.000000 -1.000000 0.000000 -5.898592 0.054174 1 0 1.000000
  0 -70.313126 5.997535 -5.140436 0.000000 -1.000000 0.000000 -8.656921 0.054174 1 0 1.000000
  0 -70.313126 5.997535 -14.826499 0.000000 -1.000000 0.000000 -8.656921 0.004049 1 0 1.000000
class_wall
  0 -70.313126 5.997535 -5.140436 0.000000 -1.000000 0.000000 -8.656921 0.054174 1 0 1.000000
  0 -89.661865 5.997535 -14.826499 0.000000 -1.000000 0.000000 -10.905421 0.004049 1 0 1.000000
  0 -70.313126 5.997535 -14.826499 0.000000 -1.000000 0.000000 -8.656921 0.004049 1 0 1.000000
class_wall
  0 -70.313126 5.997535 -5.140436 0.000000 -1.000000 0.000000 -8.656921 0.054174 1 0 1.000000
  0 -89.661865 5.997535 -5.140436 0.000000 -1.000000 0.000000 -10.905421 0.054174 1 0 1.000000
  0 -89.661865 5.997535 -14.826499 0.000000 -1.000000 0.000000 -10.905421 0.004049 1 0 1.000000
class_wall
  0 -70.313126 5.997531 79.077454 0.000000 -1.000000 0.000000 -10.459999 0.881263 1 0 1.000000
  0 -89.661865 5.997531 81.141396 0.000000 -1.000000 0.000000 -13.116277 0.897149 1 0 1.000000
  0 -89.661865 5.997531 79.077454 0.000000 -1.000000 0.000000 -13.116277 0.881263 1 0 1.000000
class_wall
  0 -70.313126 5.997531 79.077454 0.000000 -1.000000 0.000000 -10.459999 0.881263 1 0 1.000000
  0 -70.313126 5.997531 81.141396 0.000000 -1.000000 0.000000 -10.459999 0.897149 1 0 1.000000
  0 -89.661865 5.997531 81.141396 0.000000 -1.000000 0.000000 -13.116277 0.897149 1 0 1.000000
class_wall
  0 -70.313126 5.997531 81.141396 0.000000 -1.000000 0.000000 -10.459999 0.897149 1 0 1.000000
  0 -70.313126 5.997531 79.077454 0.000000 -1.000000 0.000000 -10.459999 0.881263 1 0 1.000000
  0 -25.321484 5.997531 79.077454 0.000000 -1.000000 0.000000 -4.283350 0.881263 1 0 1.000000
class_wall
  0 -70.313126 5.997531 81.141396 0.000000 -1.000000 0.000000 -10.459999 0.897149 1 0 1.000000
  0 -25.321484 5.997531 79.077454 0.000000 -1.000000 0.000000 -4.283350 0.881263 1 0 1.000000
  0 -18.006388 5.997531 79.077454 0.000000 -1.000000 0.000000 -3.279101 0.881263 1 0 1.000000
class_wall
  0 -70.313126 5.997531 81.141396 0.000000 -1.000000 0.000000 -10.459999 0.897149 1 0 1.000000
  0 -18.006388 5.997531 79.077454 0.000000 -1.000000 0.000000 -3.279101 0.881263 1 0 1.000000
  0 42.802998 5.997531 79.077454 0.000000 -1.000000 0.000000 5.069077 0.881263 1 0 1.000000
class_wall
  0 -70.313126 5.997531 81.141396 0.000000 -1.000000 0.000000 -10.459999 0.897149 1 0 1.000000
  0 42.802998 5.997531 79.077454 0.000000 -1.000000 0.000000 5.069077 0.881263 1 0 1.000000
  0 49.635902 5.997531 79.077454 0.000000 -1.000000 0.000000 6.007129 0.881263 1 0 1.000000
class_wall
  0 -70.313126 5.997531 81.141396 0.000000 -1.000000 0.000000 -10.459999 0.897149 1 0 1.000000
  0 49.635902 5.997531 79.077454 0.000000 -1.000000 0.000000 6.007129 0.881263 1 0 1.000000
  0 54.555218 5.997531 79.077454 0.000000 -1.000000 0.000000 6.682474 0.881263 1 0 1.000000
class_wall
  0 -70.313126 5.997531 81.141396 0.000000 -1.000000 0.000000 -10.459999 0.897149 1 0 1.000000
  0 54.555218 5.997531 79.077454 0.000000 -1.000000 0.000000 6.682474 0.881263 1 0 1.000000
  0 63.023293 5.997531 79.077454 0.000000 -1.000000 0.000000 7.845008 0.881263 1 0 1.000000
class_wall
  0 -70.313126 5.997531 81.141396 0.000000 -1.000000 0.000000 -10.459999 0.897149 1 0 1.000000
  0 63.023293 5.997531 79.077454 0.000000 -1.000000 0.000000 7.845008 0.881263 1 0 1.000000
  0 70.167068 5.997531 79.077454 0.000000 -1.000000 0.000000 8.825736 0.881263 1 0 1.000000
class_wall
  0 -70.313126 5.997531 81.141396 0.000000 -1.000000 0.000000 -10.459999 0.897149 1 0 1.000000
  0 70.167068 5.997531 79.077454 0.000000 -1.000000 0.000000 8.825736 0.881263 1 0 1.000000
  0 70.167068 5.997531 81.141396 0.000000 -1.000000 0.000000 8.825736 0.897149 1 0 1.000000
class_wall
  0 70.167068 5.997531 81.141396 0.000000 -1.000000 0.000000 8.825736 0.897149 1 0 1.000000
  0 70.167068 5.997531 79.077454 0.000000 -1.000000 0.000000 8.825736 0.881263 1 0 1.000000
  0 89.515808 5.997531 79.077454 0.000000 -1.000000 0.000000 11.482017 0.881263 1 0 1.000000
class_wall
  0 70.167068 5.997531 81.141396 0.000000 -1.000000 0.000000 8.825736 0.897149 1 0 1.000000
  0 89.515808 5.997531 79.077454 0.000000 -1.000000 0.000000 11.482017 0.881263 1 0 1.000000
  0 89.515808 5.997531 81.141396 0.000000 -1.000000 0.000000 11.482017 0.897149 1 0 1.000000
class_wall
  0 70.167068 5.997531 81.141396 0.000000 -1.000000 0.000000 8.825736 0.897149 1 0 1.000000
  0 89.515808 5.997531 81.141396 0.000000 -1.000000 0.000000 11.482017 0.897149 1 0 1.000000
  0 89.515808 5.997530 93.243378 0.000000 -1.000000 0.000000 11.482017 0.987179 1 0 1.000000
class_wall
  0 70.167068 5.997531 81.141396 0.000000 -1.000000 0.000000 8.825736 0.897149 1 0 1.000000
  0 89.515808 5.997530 93.243378 0.000000 -1.000000 0.000000 11.482017 0.987179 1 0 1.000000
  0 70.167068 5.997530 93.243378 0.000000 -1.000000 0.000000 8.825736 0.987179 1 0 1.000000
class_wall
  0 -70.313126 5.997531 81.141396 0.000000 -1.000000 0.000000 -10.459999 0.897149 1 0 1.000000
  0 70.167068 5.997531 81.141396 0.000000 -1.000000 0.000000 8.825736 0.897149 1 0 1.000000
  0 70.167068 5.997530 93.243378 0.000000 -1.000000 0.000000 8.825736 0.987179 1 0 1.000000
class_wall
  0 -70.313126 5.997531 81.141396 0.000000 -1.000000 0.000000 -10.459999 0.897149 1 0 1.000000
  0 70.167068 5.997530 93.243378 0.000000 -1.000000 0.000000 8.825736 0.987179 1 0 1.000000
  0 -70.313126 5.997530 93.243378 0.000000 -1.000000 0.000000 -10.459999 0.987179 1 0 1.000000
class_wall
  0 -89.661865 5.997531 81.141396 0.000000 -1.000000 0.000000 -13.116277 0.897149 1 0 1.000000
  0 -70.313126 5.997531 81.141396 0.000000 -1.000000 0.000000 -10.459999 0.897149 1 0 1.000000
  0 -70.313126 5.997530 93.243378 0.000000 -1.000000 0.000000 -10.459999 0.987179 1 0 1.000000
class_wall
  0 -89.661865 5.997531 81.141396 0.000000 -1.000000 0.000000 -13.116277 0.897149 1 0 1.000000
  0 -70.313126 5.997530 93.243378 0.000000 -1.000000 0.000000 -10.459999 0.987179 1 0 1.000000
  0 -89.661865 5.997530 93.243378 0.000000 -1.000000 0.000000 -13.116277 0.987179 1 0 1.000000
arena_objects
  0 34.838718 5.753872 71.623688 0.000000 -1.000000 0.000000 0.399237 0.309710 1 0 1.000000
  0 41.587112 5.753873 66.906883 0.000000 -1.000000 0.000000 0.375611 0.332533 1 0 1.000000
  0 38.087116 5.753872 71.633858 0.000000 -1.000000 0.000000 0.387865 0.309661 1 0 1.000000
arena_objects
  0 34.838718 5.753872 71.623688 0.000000 -1.000000 0.000000 0.399237 0.309710 1 0 1.000000
  0 31.220013 5.753873 66.912514 0.000000 -1.000000 0.000000 0.411906 0.332506 1 0 1.000000
  0 41.587112 5.753873 66.906883 0.000000 -1.000000 0.000000 0.375611 0.332533 1 0 1.000000
arena_objects
  0 -22.770512 3.767336 25.896524 0.000000 -1.000000 0.000000 0.802791 0.107681 1 0 1.000000
  0 -18.711611 3.767336 26.105560 0.000000 -1.000000 0.000000 0.861867 0.110724 1 0 1.000000
  0 -22.359570 3.767336 26.143091 0.000000 -1.000000 0.000000 0.808772 0.111270 1 0 1.000000
arena_objects
  0 -22.770512 3.767336 25.896524 0.000000 -1.000000 0.000000 0.802791 0.107681 1 0 1.000000
  0 -16.352139 3.767336 26.081287 0.000000 -1.000000 0.000000 0.896208 0.110371 1 0 1.000000
  0 -18.711611 3.767336 26.105560 0.000000 -1.000000 0.000000 0.861867 0.110724 1 0 1.000000
arena_objects
  0 -22.770512 3.767336 25.896524 0.000000 -1.000000 0.000000 0.802791 0.107681 1 0 1.000000
  0 -12.701473 3.767336 26.043728 0.000000 -1.000000 0.000000 0.949343 0.109824 1 0 1.000000
  0 -16.352139 3.767336 26.081287 0.000000 -1.000000 0.000000 0.896208 0.110371 1 0 1.000000
arena_objects
  0 -22.770512 3.767336 25.896524 0.000000 -1.000000 0.000000 0.802791 0.107681 1 0 1.000000
  0 -22.688324 3.767336 25.033545 0.000000 -1.000000 0.000000 0.803987 0.095121 1 0 1.000000
  0 -16.565279 3.767336 25.033545 0.000000 -1.000000 0.000000 0.893106 0.095121 1 0 1.000000
arena_objects
  0 -22.770512 3.767336 25.896524 0.000000 -1.000000 0.000000 0.802791 0.107681 1 0 1.000000
  0 -16.565279 3.767336 25.033545 0.000000 -1.000000 0.000000 0.893106 0.095121 1 0 1.000000
  0 -15.044522 3.767336 25.033545 0.000000 -1.000000 0.000000 0.915241 0.095121 1 0 1.000000
arena_objects
  0 -22.770512 3.767336 25.896524 0.000000 -1.000000 0.000000 0.802791 0.107681 1 0 1.000000
  0 -15.044522 3.767336 25.033545 0.000000 -1.000000 0.000000 0.915241 0.095121 1 0 1.000000
  0 -9.455973 3.767336 25.033545 0.000000 -1.000000 0.000000 0.996581 0.095121 1 0 1.000000
arena_objects
  0 -22.770512 3.767336 25.896524 0.000000 -1.000000 0.000000 0.802791 0.107681 1 0 1.000000
  0 -9.455973 3.767336 25.033545 0.000000 -1.000000 0.000000 0.996581 0.095121 1 0 1.000000
  0 -9.455535 3.767336 26.010334 0.000000 -1.000000 0.000000 0.996587 0.109338 1 0 1.000000
arena_objects
  0 -22.770512 3.767336 25.896524 0.000000 -1.000000 0.000000 0.802791 0.107681 1 0 1.000000
  0 -9.455535 3.767336 26.010334 0.000000 -1.000000 0.000000 0.996587 0.109338 1 0 1.000000
  0 -12.701473 3.767336 26.043728 0.000000 -1.000000 0.000000 0.949343 0.109824 1 0 1.000000
arena_objects
  0 -9.455535 3.767336 26.010334 0.000000 -1.000000 0.000000 0.996587 0.109338 1 0 1.000000
  0 -9.784727 3.767336 26.266373 0.000000 -1.000000 0.000000 0.991796 0.113065 1 0 1.000000
  0 -12.701473 3.767336 26.043728 0.000000 -1.000000 0.000000 0.949343 0.109824 1 0 1.000000
arena_objects
  0 47.845360 4.960917 62.433723 0.000000 -1.000000 0.000000 0.949481 0.556062 1 0 1.000000
  0 -7.994160 4.960919 22.722359 0.000000 -1.000000 0.000000 0.489585 0.265500 1 0 1.000000
  0 47.845360 4.960919 22.722359 0.000000 -1.000000 0.000000 0.949481 0.265500 1 0 1.000000
arena_objects
  0 47.845360 4.960917 62.433723 0.000000 -1.000000 0.000000 0.949481 0.556062 1 0 1.000000
  0 -8.091727 4.960917 62.433723 0.000000 -1.000000 0.000000 0.489801 0.556062 1 0 1.000000
  0 -7.994160 4.960919 22.722359 0.000000 -1.000000 0.000000 0.489585 0.265500 1 0 1.000000
arena_objects
  0 3.679250 5.753872 71.623688 0.000000 -1.000000 0.000000 0.399237 0.309710 1 0 1.000000
  0 10.427644 5.753873 66.906883 0.000000 -1.000000 0.000000 0.375611 0.332533 1 0 1.000000
  0 6.927648 5.753872 71.633858 0.000000 -1.000000 0.000000 0.387865 0.309661 1 0 1.000000
arena_objects
  0 3.679250 5.753872 71.623688 0.000000 -1.000000 0.000000 0.399237 0.309710 1 0 1.000000
  0 0.060543 5.753873 66.912514 0.000000 -1.000000 0.000000 0.411906 0.332506 1 0 1.000000
  0 10.427644 5.753873 66.906883 0.000000 -1.000000 0.000000 0.375611 0.332533 1 0 1.000000
arena_objects
  0 -47.693878 5.753873 65.783066 0.000000 -1.000000 0.000000 0.374405 0.070785 1 0 1.000000
  0 -26.345568 5.753873 58.965130 0.000000 -1.000000 0.000000 0.469727 0.224160 1 0 1.000000
  0 -26.244576 5.753873 65.792389 0.000000 -1.000000 0.000000 0.374068 0.224300 1 0 1.000000
arena_objects
  0 -47.693878 5.753873 65.783066 0.000000 -1.000000 0.000000 0.374405 0.070785 1 0 1.000000
  0 -47.712757 5.753873 58.971596 0.000000 -1.000000 0.000000 0.469841 0.070624 1 0 1.000000
  0 -26.345568 5.753873 58.965130 0.000000 -1.000000 0.000000 0.469727 0.224160 1 0 1.000000
arena_objects
  0 -16.565279 3.767336 25.033545 0.000000 -1.000000 0.000000 0.392660 0.688890 1 0 1.000000
  0 -15.085886 3.767337 6.072815 0.000000 -1.000000 0.000000 0.370940 0.967826 1 0 1.000000
  0 -15.044522 3.767336 25.033545 0.000000 -1.000000 0.000000 0.370804 0.688890 1 0 1.000000
arena_objects
  0 -16.565279 3.767336 25.033545 0.000000 -1.000000 0.000000 0.392660 0.688890 1 0 1.000000
  0 -16.524765 3.767337 6.072815 0.000000 -1.000000 0.000000 0.391928 0.967826 1 0 1.000000
  0 -15.085886 3.767337 6.072815 0.000000 -1.000000 0.000000 0.370940 0.967826 1 0 1.000000
arena_objects
  0 -16.524765 3.767337 6.072815 0.000000 -1.000000 0.000000 0.391928 0.967826 1 0 1.000000
  0 -15.079938 3.767337 5.873174 0.000000 -1.000000 0.000000 0.370853 0.970057 1 0 1.000000
  0 -15.085886 3.767337 6.072815 0.000000 -1.000000 0.000000 0.370940 0.967826 1 0 1.000000
arena_objects
  0 -16.524765 3.767337 6.072815 0.000000 -1.000000 0.000000 0.391928 0.967826 1 0 1.000000
  0 -16.546259 3.767337 5.876255 0.000000 -1.000000 0.000000 0.392242 0.970013 1 0 1.000000
  0 -15.079938 3.767337 5.873174 0.000000 -1.000000 0.000000 0.370853 0.970057 1 0 1.000000
arena_objects
  0 -20.214317 5.997534 20.810627 0.000000 -1.000000 0.000000 0.538087 0.093018 1 0 1.000000
  0 -24.764660 5.997534 23.329576 0.000000 -1.000000 0.000000 0.504654 0.023178 1 0 1.000000
  0 -24.771429 5.997534 20.859186 0.000000 -1.000000 0.000000 0.537377 0.023085 1 0 1.000000
arena_objects
  0 -20.214317 5.997534 20.810627 0.000000 -1.000000 0.000000 0.538087 0.093018 1 0 1.000000
  0 -24.226494 5.997534 24.298275 0.000000 -1.000000 0.000000 0.487101 0.033649 1 0 1.000000
  0 -24.764660 5.997534 23.329576 0.000000 -1.000000 0.000000 0.504654 0.023178 1 0 1.000000
arena_objects
  0 -20.214317 5.997534 20.810627 0.000000 -1.000000 0.000000 0.538087 0.093018 1 0 1.000000
  0 -20.137394 5.997534 6.072815 0.000000 -1.000000 0.000000 0.755385 0.094078 1 0 1.000000
  0 -18.265383 5.997534 6.072815 0.000000 -1.000000 0.000000 0.755385 0.119880 1 0 1.000000
arena_objects
  0 -20.214317 5.997534 20.810627 0.000000 -1.000000 0.000000 0.538087 0.093018 1 0 1.000000
  0 -18.265383 5.997534 6.072815 0.000000 -1.000000 0.000000 0.755385 0.119880 1 0 1.000000
  0 -18.265383 5.997534 20.789860 0.000000 -1.000000 0.000000 0.538390 0.119880 1 0 1.000000
arena_objects
  0 -20.214317 5.997534 20.810627 0.000000 -1.000000 0.000000 0.538087 0.093018 1 0 1.000000
  0 -18.265383 5.997534 20.789860 0.000000 -1.000000 0.000000 0.538390 0.119880 1 0 1.000000
  0 -13.910826 5.997534 20.743458 0.000000 -1.000000 0.000000 0.539069 0.179898 1 0 1.000000
arena_objects
  0 -20.214317 5.997534 20.810627 0.000000 -1.000000 0.000000 0.538087 0.093018 1 0 1.000000
  0 -13.910826 5.997534 20.743458 0.000000 -1.000000 0.000000 0.539069 0.179898 1 0 1.000000
  0 -10.076736 5.997534 25.397184 0.000000 -1.000000 0.000000 0.471036 0.239526 1 0 1.000000
arena_objects
  0 -20.214317 5.997534 20.810627 0.000000 -1.000000 0.000000 0.538087 0.093018 1 0 1.000000
  0 -10.076736 5.997534 25.397184 0.000000 -1.000000 0.000000 0.471036 0.239526 1 0 1.000000
  0 -24.226494 5.997534 24.298275 0.000000 -1.000000 0.000000 0.487101 0.033649 1 0 1.000000
arena_objects
  0 -9.972213 5.997533 32.590343 0.000000 -1.000000 0.000000 0.365880 0.238932 1 0 1.000000
  0 -24.226494 5.997534 24.298275 0.000000 -1.000000 0.000000 0.487101 0.033649 1 0 1.000000
  0 -10.076736 5.997534 25.397184 0.000000 -1.000000 0.000000 0.471036 0.239526 1 0 1.000000
arena_objects
  0 -9.972213 5.997533 32.590343 0.000000 -1.000000 0.000000 0.365880 0.238932 1 0 1.000000
  0 -24.264706 5.997533 32.590378 0.000000 -1.000000 0.000000 0.365879 0.033122 1 0 1.000000
  0 -24.226494 5.997534 24.298275 0.000000 -1.000000 0.000000 0.487101 0.033649 1 0 1.000000
arena_objects
  0 3.679250 5.753872 72.027084 0.000000 -1.000000 0.000000 0.398396 0.273087 1 0 1.000000
  0 5.449665 5.753872 73.210388 0.000000 -1.000000 0.000000 0.392197 0.267361 1 0 1.000000
  0 5.157233 5.753872 73.200218 0.000000 -1.000000 0.000000 0.393221 0.267411 1 0 1.000000
arena_objects
  0 3.679250 5.753872 72.027084 0.000000 -1.000000 0.000000 0.398396 0.273087 1 0 1.000000
  0 6.927648 5.753872 72.037254 0.000000 -1.000000 0.000000 0.387023 0.273038 1 0 1.000000
  0 5.449665 5.753872 73.210388 0.000000 -1.000000 0.000000 0.392197 0.267361 1 0 1.000000
arena_objects
  0 3.679250 5.753872 71.623688 0.000000 -1.000000 0.000000 0.398396 0.275039 1 0 1.000000
  0 6.927648 5.753872 72.037254 0.000000 -1.000000 0.000000 0.387023 0.273038 1 0 1.000000
  0 3.679250 5.753872 72.027084 0.000000 -1.000000 0.000000 0.398396 0.273087 1 0 1.000000
arena_objects
  0 3.679250 5.753872 71.623688 0.000000 -1.000000 0.000000 0.398396 0.275039 1 0 1.000000
  0 6.927648 5.753872 71.633858 0.000000 -1.000000 0.000000 0.387023 0.274989 1 0 1.000000
  0 6.927648 5.753872 72.037254 0.000000 -1.000000 0.000000 0.387023 0.273038 1 0 1.000000
arena_objects
  0 -19.383034 3.767337 5.758714 -0.043389 -0.130326 0.990521 0.572995 0.130289 1 0 1.000000
  0 -20.137394 5.997534 6.072815 -0.021700 -0.125858 0.991811 0.574656 0.194003 1 0 1.000000
  0 -20.523746 3.767337 5.621095 -0.043389 -0.130326 0.990521 0.556467 0.133683 1 0 1.000000
arena_objects
  0 -19.383034 3.767337 5.758714 -0.043389 -0.130326 0.990521 0.572995 0.130289 1 0 1.000000
  0 -16.597296 3.962938 5.824124 -0.021700 -0.125858 0.991811 0.613993 0.135960 1 0 1.000000
  0 -20.137394 5.997534 6.072815 -0.021700 -0.125858 0.991811 0.574656 0.194003 1 0 1.000000
arena_objects
  0 -19.383034 3.767337 5.758714 -0.043389 -0.130326 0.990521 0.572995 0.130289 1 0 1.000000
  0 -16.546259 3.767337 5.876255 -0.043389 -0.130326 0.990521 0.613682 0.130425 1 0 1.000000
  0 -16.597296 3.962938 5.824124 -0.021700 -0.125858 0.991811 0.613993 0.135960 1 0 1.000000
arena_objects
  0 -18.265383 5.997534 6.072815 0.000000 -0.121328 0.992612 0.607785 0.117016 1 0 1.000000
  0 -16.597296 3.962938 5.824124 -0.021700 -0.125858 0.991811 0.670940 0.104293 1 0 1.000000
  0 -15.027124 3.962938 5.824124 0.000000 -0.121328 0.992612 0.671554 0.117041 1 0 1.000000
arena_objects
  0 -18.265383 5.997534 6.072815 0.000000 -0.121328 0.992612 0.607785 0.117016 1 0 1.000000
  0 -20.137394 5.997534 6.072815 -0.021700 -0.125858 0.991811 0.607053 0.104371 1 0 1.000000
  0 -16.597296 3.962938 5.824124 -0.021700 -0.125858 0.991811 0.670940 0.104293 1 0 1.000000
arena_objects
  0 -25.321484 5.997531 79.077454 0.000000 -1.000000 0.000000 0.000394 1.000020 1 0 1.000000
  0 -18.006388 5.997531 71.134575 0.000000 -1.000000 0.000000 0.107141 0.886578 1 0 1.000000
  0 -18.006388 5.997531 79.077454 0.000000 -1.000000 0.000000 0.107141 1.000020 1 0 1.000000
arena_objects
  0 -25.321484 5.997531 79.077454 0.000000 -1.000000 0.000000 0.000394 1.000020 1 0 1.000000
  0 -25.321484 5.997531 71.134575 0.000000 -1.000000 0.000000 0.000394 0.886578 1 0 1.000000
  0 -18.006388 5.997531 71.134575 0.000000 -1.000000 0.000000 0.107141 0.886578 1 0 1.000000
arena_objects
  0 -70.249863 45.751240 74.343330 0.000000 -0.999965 0.008334 0.040295 0.093395 1 0 1.000000
  0 -22.667196 45.026943 -12.561388 0.000000 -0.999965 0.008334 0.133226 -0.002505 1 0 1.000000
  0 -22.667196 45.751240 74.343330 0.000000 -0.999965 0.008334 0.133226 0.093395 1 0 1.000000
arena_objects
  0 -70.249863 45.751240 74.343330 0.000000 -0.999965 0.008334 0.040295 0.093395 1 0 1.000000
  0 -70.249863 45.026943 -12.561388 0.000000 -0.999965 0.008334 0.040295 -0.002505 1 0 1.000000
  0 -22.667196 45.026943 -12.561388 0.000000 -0.999965 0.008334 0.133226 -0.002505 1 0 1.000000
arena_objects
  0 -38.051125 5.753872 71.623688 0.000000 -1.000000 0.000000 0.399237 0.309710 1 0 1.000000
  0 -31.302731 5.753873 66.906883 0.000000 -1.000000 0.000000 0.375611 0.332533 1 0 1.000000
  0 -34.802727 5.753872 71.633858 0.000000 -1.000000 0.000000 0.387865 0.309661 1 0 1.000000
arena_objects
  0 -38.051125 5.753872 71.623688 0.000000 -1.000000 0.000000 0.399237 0.309710 1 0 1.000000
  0 -41.669830 5.753873 66.912514 0.000000 -1.000000 0.000000 0.411906 0.332506 1 0 1.000000
  0 -31.302731 5.753873 66.906883 0.000000 -1.000000 0.000000 0.375611 0.332533 1 0 1.000000
arena_objects
  0 5.157233 5.753872 73.200218 0.000000 -1.000000 0.000000 0.406627 0.807944 1 0 1.000000
  0 5.449665 5.753871 93.241524 0.000000 -1.000000 0.000000 0.410200 0.890793 1 0 1.000000
  0 5.157233 5.753871 93.231354 0.000000 -1.000000 0.000000 0.406627 0.890669 1 0 1.000000
arena_objects
  0 5.157233 5.753872 73.200218 0.000000 -1.000000 0.000000 0.406627 0.807944 1 0 1.000000
  0 5.449665 5.753872 73.210388 0.000000 -1.000000 0.000000 0.410200 0.808069 1 0 1.000000
  0 5.449665 5.753871 93.241524 0.000000 -1.000000 0.000000 0.410200 0.890793 1 0 1.000000
arena_objects
  0 -36.573139 5.753872 73.200218 0.000000 -1.000000 0.000000 0.406627 0.807944 1 0 1.000000
  0 -36.280708 5.753871 93.241524 0.000000 -1.000000 0.000000 0.410200 0.890793 1 0 1.000000
  0 -36.573139 5.753871 93.231354 0.000000 -1.000000 0.000000 0.406627 0.890669 1 0 1.000000
arena_objects
  0 -36.573139 5.753872 73.200218 0.000000 -1.000000 0.000000 0.406627 0.807944 1 0 1.000000
  0 -36.280708 5.753872 73.210388 0.000000 -1.000000 0.000000 0.410200 0.808069 1 0 1.000000
  0 -36.280708 5.753871 93.241524 0.000000 -1.000000 0.000000 0.410200 0.890793 1 0 1.000000
arena_objects
  0 36.316704 5.753872 73.200218 0.000000 -1.000000 0.000000 0.406627 0.807944 1 0 1.000000
  0 36.609135 5.753871 93.241524 0.000000 -1.000000 0.000000 0.410200 0.890793 1 0 1.000000
  0 36.316704 5.753871 93.231354 0.000000 -1.000000 0.000000 0.406627 0.890669 1 0 1.000000
arena_objects
  0 36.316704 5.753872 73.200218 0.000000 -1.000000 0.000000 0.406627 0.807944 1 0 1.000000
  0 36.609135 5.753872 73.210388 0.000000 -1.000000 0.000000 0.410200 0.808069 1 0 1.000000
  0 36.609135 5.753871 93.241524 0.000000 -1.000000 0.000000 0.410200 0.890793 1 0 1.000000
arena_objects
  0 -38.051125 5.753872 72.027084 0.000000 -1.000000 0.000000 0.398396 0.273087 1 0 1.000000
  0 -36.280708 5.753872 73.210388 0.000000 -1.000000 0.000000 0.392197 0.267361 1 0 1.000000
  0 -36.573139 5.753872 73.200218 0.000000 -1.000000 0.000000 0.393221 0.267411 1 0 1.000000
arena_objects
  0 -38.051125 5.753872 72.027084 0.000000 -1.000000 0.000000 0.398396 0.273087 1 0 1.000000
  0 -34.802727 5.753872 72.037254 0.000000 -1.000000 0.000000 0.387023 0.273038 1 0 1.000000
  0 -36.280708 5.753872 73.210388 0.000000 -1.000000 0.000000 0.392197 0.267361 1 0 1.000000
arena_objects
  0 -38.051125 5.753872 71.623688 0.000000 -1.000000 0.000000 0.398396 0.275039 1 0 1.000000
  0 -34.802727 5.753872 72.037254 0.000000 -1.000000 0.000000 0.387023 0.273038 1 0 1.000000
  0 -38.051125 5.753872 72.027084 0.000000 -1.000000 0.000000 0.398396 0.273087 1 0 1.000000
arena_objects
  0 -38.051125 5.753872 71.623688 0.000000 -1.000000 0.000000 0.398396 0.275039 1 0 1.000000
  0 -34.802727 5.753872 71.633858 0.000000 -1.000000 0.000000 0.387023 0.274989 1 0 1.000000
  0 -34.802727 5.753872 72.037254 0.000000 -1.000000 0.000000 0.387023 0.273038 1 0 1.000000
arena_objects
  0 34.838718 5.753872 72.027084 0.000000 -1.000000 0.000000 0.398396 0.273087 1 0 1.000000
  0 36.609135 5.753872 73.210388 0.000000 -1.000000 0.000000 0.392197 0.267361 1 0 1.000000
  0 36.316704 5.753872 73.200218 0.000000 -1.000000 0.000000 0.393221 0.267411 1 0 1.000000
arena_objects
  0 34.838718 5.753872 72.027084 0.000000 -1.000000 0.000000 0.398396 0.273087 1 0 1.000000
  0 38.087116 5.753872 72.037254 0.000000 -1.000000 0.000000 0.387023 0.273038 1 0 1.000000
  0 36.609135 5.753872 73.210388 0.000000 -1.000000 0.000000 0.392197 0.267361 1 0 1.000000
arena_objects
  0 34.838718 5.753872 71.623688 0.000000 -1.000000 0.000000 0.398396 0.275039 1 0 1.000000
  0 38.087116 5.753872 72.037254 0.000000 -1.000000 0.000000 0.387023 0.273038 1 0 1.000000
  0 34.838718 5.753872 72.027084 0.000000 -1.000000 0.000000 0.398396 0.273087 1 0 1.000000
arena_objects
  0 34.838718 5.753872 71.623688 0.000000 -1.000000 0.000000 0.398396 0.275039 1 0 1.000000
  0 38.087116 5.753872 71.633858 0.000000 -1.000000 0.000000 0.387023 0.274989 1 0 1.000000
  0 38.087116 5.753872 72.037254 0.000000 -1.000000 0.000000 0.387023 0.273038 1 0 1.000000
arena_objects
  0 47.547142 5.997532 70.171234 0.000000 -1.000000 0.000000 0.629508 0.212745 1 0 1.000000
  0 48.618633 5.997531 71.627365 0.000000 -1.000000 0.000000 0.642755 0.230748 1 0 1.000000
  0 47.711987 5.997532 70.610825 0.000000 -1.000000 0.000000 0.631546 0.218180 1 0 1.000000
arena_objects
  0 47.547142 5.997532 70.171234 0.000000 -1.000000 0.000000 0.629508 0.212745 1 0 1.000000
  0 49.580227 5.997531 72.396645 0.000000 -1.000000 0.000000 0.654644 0.240260 1 0 1.000000
  0 48.618633 5.997531 71.627365 0.000000 -1.000000 0.000000 0.642755 0.230748 1 0 1.000000
arena_objects
  0 47.547142 5.997532 70.171234 0.000000 -1.000000 0.000000 0.629508 0.212745 1 0 1.000000
  0 54.388206 5.997531 72.369171 0.000000 -1.000000 0.000000 0.714088 0.239920 1 0 1.000000
  0 49.580227 5.997531 72.396645 0.000000 -1.000000 0.000000 0.654644 0.240260 1 0 1.000000
arena_objects
  0 47.547142 5.997532 70.171234 0.000000 -1.000000 0.000000 0.629508 0.212745 1 0 1.000000
  0 55.322327 5.997531 71.599892 0.000000 -1.000000 0.000000 0.725637 0.230409 1 0 1.000000
  0 54.388206 5.997531 72.369171 0.000000 -1.000000 0.000000 0.714088 0.239920 1 0 1.000000
arena_objects
  0 47.547142 5.997532 70.171234 0.000000 -1.000000 0.000000 0.629508 0.212745 1 0 1.000000
  0 56.009182 5.997532 70.748192 0.000000 -1.000000 0.000000 0.734129 0.219879 1 0 1.000000
  0 55.322327 5.997531 71.599892 0.000000 -1.000000 0.000000 0.725637 0.230409 1 0 1.000000
arena_objects
  0 47.547142 5.997532 70.171234 0.000000 -1.000000 0.000000 0.629508 0.212745 1 0 1.000000
  0 56.283924 5.997532 70.198715 0.000000 -1.000000 0.000000 0.737526 0.213085 1 0 1.000000
  0 56.009182 5.997532 70.748192 0.000000 -1.000000 0.000000 0.734129 0.219879 1 0 1.000000
arena_objects
  0 47.080078 5.997532 67.808464 0.000000 -1.000000 0.000000 0.623733 0.186743 1 0 1.000000
  0 56.613613 5.997532 66.846863 0.000000 -1.000000 0.000000 0.741602 0.171644 1 0 1.000000
  0 56.723511 5.997532 67.780983 0.000000 -1.000000 0.000000 0.742961 0.186403 1 0 1.000000
arena_objects
  0 47.080078 5.997532 67.808464 0.000000 -1.000000 0.000000 0.623733 0.186743 1 0 1.000000
  0 56.119076 5.997532 65.665474 0.000000 -1.000000 0.000000 0.735488 0.157038 1 0 1.000000
  0 56.613613 5.997532 66.846863 0.000000 -1.000000 0.000000 0.741602 0.171644 1 0 1.000000
arena_objects
  0 47.080078 5.997532 67.808464 0.000000 -1.000000 0.000000 0.623733 0.186743 1 0 1.000000
  0 55.349800 5.997532 64.676407 0.000000 -1.000000 0.000000 0.725977 0.144809 1 0 1.000000
  0 56.119076 5.997532 65.665474 0.000000 -1.000000 0.000000 0.735488 0.157038 1 0 1.000000
arena_objects
  0 47.080078 5.997532 67.808464 0.000000 -1.000000 0.000000 0.623733 0.186743 1 0 1.000000
  0 54.388206 5.997532 63.934605 0.000000 -1.000000 0.000000 0.714088 0.135638 1 0 1.000000
  0 55.349800 5.997532 64.676407 0.000000 -1.000000 0.000000 0.725977 0.144809 1 0 1.000000
arena_objects
  0 47.080078 5.997532 67.808464 0.000000 -1.000000 0.000000 0.623733 0.186743 1 0 1.000000
  0 53.316715 5.997532 63.467545 0.000000 -1.000000 0.000000 0.700841 0.129864 1 0 1.000000
  0 54.388206 5.997532 63.934605 0.000000 -1.000000 0.000000 0.714088 0.135638 1 0 1.000000
arena_objects
  0 47.080078 5.997532 67.808464 0.000000 -1.000000 0.000000 0.623733 0.186743 1 0 1.000000
  0 51.915531 5.997532 63.330173 0.000000 -1.000000 0.000000 0.683517 0.128165 1 0 1.000000
  0 53.316715 5.997532 63.467545 0.000000 -1.000000 0.000000 0.700841 0.129864 1 0 1.000000
arena_objects
  0 47.080078 5.997532 67.808464 0.000000 -1.000000 0.000000 0.623733 0.186743 1 0 1.000000
  0 50.624245 5.997532 63.412594 0.000000 -1.000000 0.000000 0.667552 0.129184 1 0 1.000000
  0 51.915531 5.997532 63.330173 0.000000 -1.000000 0.000000 0.683517 0.128165 1 0 1.000000
arena_objects
  0 47.080078 5.997532 67.808464 0.000000 -1.000000 0.000000 0.623733 0.186743 1 0 1.000000
  0 49.470333 5.997532 63.934605 0.000000 -1.000000 0.000000 0.653285 0.135638 1 0 1.000000
  0 50.624245 5.997532 63.412594 0.000000 -1.000000 0.000000 0.667552 0.129184 1 0 1.000000
arena_objects
  0 47.080078 5.997532 67.808464 0.000000 -1.000000 0.000000 0.623733 0.186743 1 0 1.000000
  0 48.536209 5.997532 64.621460 0.000000 -1.000000 0.000000 0.641736 0.144130 1 0 1.000000
  0 49.470333 5.997532 63.934605 0.000000 -1.000000 0.000000 0.653285 0.135638 1 0 1.000000
arena_objects
  0 47.080078 5.997532 67.808464 0.000000 -1.000000 0.000000 0.623733 0.186743 1 0 1.000000
  0 47.711987 5.997532 65.638000 0.000000 -1.000000 0.000000 0.631546 0.156698 1 0 1.000000
  0 48.536209 5.997532 64.621460 0.000000 -1.000000 0.000000 0.641736 0.144130 1 0 1.000000
arena_objects
  0 47.080078 5.997532 67.808464 0.000000 -1.000000 0.000000 0.623733 0.186743 1 0 1.000000
  0 47.189976 5.997532 66.956764 0.000000 -1.000000 0.000000 0.625092 0.173003 1 0 1.000000
  0 47.711987 5.997532 65.638000 0.000000 -1.000000 0.000000 0.631546 0.156698 1 0 1.000000
arena_objects
  0 -19.383034 3.767337 5.758714 0.000000 -1.000000 0.000000 0.384867 0.971693 1 0 1.000000
  0 -15.079938 3.767337 5.873174 0.000000 -1.000000 0.000000 0.322099 0.970668 1 0 1.000000
  0 -16.546259 3.767337 5.876255 0.000000 -1.000000 0.000000 0.343488 0.970625 1 0 1.000000
arena_objects
  0 -19.383034 3.767337 5.758714 0.000000 -1.000000 0.000000 0.384867 0.971693 1 0 1.000000
  0 -13.283866 3.767337 5.820861 0.000000 -1.000000 0.000000 0.295900 0.971413 1 0 1.000000
  0 -15.079938 3.767337 5.873174 0.000000 -1.000000 0.000000 0.322099 0.970668 1 0 1.000000
arena_objects
  0 -19.383034 3.767337 5.758714 0.000000 -1.000000 0.000000 0.384867 0.971693 1 0 1.000000
  0 -11.348293 3.767337 5.663923 0.000000 -1.000000 0.000000 0.267666 0.973648 1 0 1.000000
  0 -13.283866 3.767337 5.820861 0.000000 -1.000000 0.000000 0.295900 0.971413 1 0 1.000000
arena_objects
  0 -19.383034 3.767337 5.758714 0.000000 -1.000000 0.000000 0.384867 0.971693 1 0 1.000000
  0 -10.179975 3.767337 5.454671 0.000000 -1.000000 0.000000 0.250624 0.976627 1 0 1.000000
  0 -11.348293 3.767337 5.663923 0.000000 -1.000000 0.000000 0.267666 0.973648 1 0 1.000000
arena_objects
  0 -19.383034 3.767337 5.758714 0.000000 -1.000000 0.000000 0.384867 0.971693 1 0 1.000000
  0 -9.866097 3.767337 5.210545 0.000000 -1.000000 0.000000 0.246045 0.980102 1 0 1.000000
  0 -10.179975 3.767337 5.454671 0.000000 -1.000000 0.000000 0.250624 0.976627 1 0 1.000000
arena_objects
  0 -19.383034 3.767337 5.758714 0.000000 -1.000000 0.000000 0.384867 0.971693 1 0 1.000000
  0 -10.075349 3.767337 5.018732 0.000000 -1.000000 0.000000 0.249098 0.982833 1 0 1.000000
  0 -9.866097 3.767337 5.210545 0.000000 -1.000000 0.000000 0.246045 0.980102 1 0 1.000000
arena_objects
  0 -19.383034 3.767337 5.758714 0.000000 -1.000000 0.000000 0.384867 0.971693 1 0 1.000000
  0 -11.037813 3.767337 4.720532 0.000000 -1.000000 0.000000 0.263137 0.987079 1 0 1.000000
  0 -10.075349 3.767337 5.018732 0.000000 -1.000000 0.000000 0.249098 0.982833 1 0 1.000000
arena_objects
  0 -19.383034 3.767337 5.758714 0.000000 -1.000000 0.000000 0.384867 0.971693 1 0 1.000000
  0 -12.944006 3.767337 4.540420 0.000000 -1.000000 0.000000 0.290942 0.989643 1 0 1.000000
  0 -11.037813 3.767337 4.720532 0.000000 -1.000000 0.000000 0.263137 0.987079 1 0 1.000000
arena_objects
  0 -19.383034 3.767337 5.758714 0.000000 -1.000000 0.000000 0.384867 0.971693 1 0 1.000000
  0 -15.195414 3.767337 4.465373 0.000000 -1.000000 0.000000 0.323783 0.990711 1 0 1.000000
  0 -12.944006 3.767337 4.540420 0.000000 -1.000000 0.000000 0.290942 0.989643 1 0 1.000000
arena_objects
  0 -19.383034 3.767337 5.758714 0.000000 -1.000000 0.000000 0.384867 0.971693 1 0 1.000000
  0 -17.056578 3.767337 4.465373 0.000000 -1.000000 0.000000 0.350932 0.990711 1 0 1.000000
  0 -15.195414 3.767337 4.465373 0.000000 -1.000000 0.000000 0.323783 0.990711 1 0 1.000000
arena_objects
  0 -19.383034 3.767337 5.758714 0.000000 -1.000000 0.000000 0.384867 0.971693 1 0 1.000000
  0 -19.518118 3.767337 4.600457 0.000000 -1.000000 0.000000 0.386838 0.988788 1 0 1.000000
  0 -17.056578 3.767337 4.465373 0.000000 -1.000000 0.000000 0.350932 0.990711 1 0 1.000000
arena_objects
  0 -19.383034 3.767337 5.758714 0.000000 -1.000000 0.000000 0.384867 0.971693 1 0 1.000000
  0 -20.868963 3.767337 4.780570 0.000000 -1.000000 0.000000 0.406542 0.986224 1 0 1.000000
  0 -19.518118 3.767337 4.600457 0.000000 -1.000000 0.000000 0.386838 0.988788 1 0 1.000000
arena_objects
  0 -19.383034 3.767337 5.758714 0.000000 -1.000000 0.000000 0.384867 0.971693 1 0 1.000000
  0 -21.799545 3.767337 5.050739 0.000000 -1.000000 0.000000 0.420116 0.982377 1 0 1.000000
  0 -20.868963 3.767337 4.780570 0.000000 -1.000000 0.000000 0.406542 0.986224 1 0 1.000000
arena_objects
  0 -19.383034 3.767337 5.758714 0.000000 -1.000000 0.000000 0.384867 0.971693 1 0 1.000000
  0 -21.814554 3.767337 5.215842 0.000000 -1.000000 0.000000 0.420335 0.980027 1 0 1.000000
  0 -21.799545 3.767337 5.050739 0.000000 -1.000000 0.000000 0.420116 0.982377 1 0 1.000000
arena_objects
  0 -19.383034 3.767337 5.758714 0.000000 -1.000000 0.000000 0.384867 0.971693 1 0 1.000000
  0 -21.589413 3.767337 5.380945 0.000000 -1.000000 0.000000 0.417051 0.977676 1 0 1.000000
  0 -21.814554 3.767337 5.215842 0.000000 -1.000000 0.000000 0.420335 0.980027 1 0 1.000000
arena_objects
  0 -19.383034 3.767337 5.758714 0.000000 -1.000000 0.000000 0.384867 0.971693 1 0 1.000000
  0 -20.523746 3.767337 5.621095 0.000000 -1.000000 0.000000 0.401507 0.974257 1 0 1.000000
  0 -21.589413 3.767337 5.380945 0.000000 -1.000000 0.000000 0.417051 0.977676 1 0 1.000000
arena_objects
  0 42.005836 4.456101 58.516682 0.000000 -1.000000 0.000000 0.943946 0.971769 1 0 1.000000
  0 43.061237 4.456101 58.280453 0.000000 -1.000000 0.000000 0.954980 0.969228 1 0 1.000000
  0 47.528996 4.456101 62.133945 0.000000 -1.000000 0.000000 0.995607 0.999824 1 0 1.000000
arena_objects
  0 47.528996 4.456101 62.133945 0.000000 -1.000000 0.000000 0.995607 0.999824 1 0 1.000000
  0 36.691475 4.456101 59.230831 0.000000 -1.000000 0.000000 0.888385 0.979449 1 0 1.000000
  0 42.005836 4.456101 58.516682 0.000000 -1.000000 0.000000 0.943946 0.971769 1 0 1.000000
arena_objects
  0 47.528996 4.456101 62.133945 0.000000 -1.000000 0.000000 0.995607 0.999824 1 0 1.000000
  0 29.493956 4.456101 59.872570 0.000000 -1.000000 0.000000 0.813136 0.986351 1 0 1.000000
  0 36.691475 4.456101 59.230831 0.000000 -1.000000 0.000000 0.888385 0.979449 1 0 1.000000
arena_objects
  0 47.528996 4.456101 62.133945 0.000000 -1.000000 0.000000 0.995607 0.999824 1 0 1.000000
  0 -0.123756 4.456101 61.777943 0.000000 -1.000000 0.000000 0.503489 0.995995 1 0 1.000000
  0 29.493956 4.456101 59.872570 0.000000 -1.000000 0.000000 0.813136 0.986351 1 0 1.000000
arena_objects
  0 -0.123756 4.456101 61.777943 0.000000 -1.000000 0.000000 0.503489 0.995995 1 0 1.000000
  0 22.010601 4.456101 60.164845 0.000000 -1.000000 0.000000 0.734899 0.989494 1 0 1.000000
  0 29.493956 4.456101 59.872570 0.000000 -1.000000 0.000000 0.813136 0.986351 1 0 1.000000
arena_objects
  0 -0.123756 4.456101 61.777943 0.000000 -1.000000 0.000000 0.503489 0.995995 1 0 1.000000
  0 16.280331 4.456101 60.062386 0.000000 -1.000000 0.000000 0.674990 0.988392 1 0 1.000000
  0 22.010601 4.456101 60.164845 0.000000 -1.000000 0.000000 0.734899 0.989494 1 0 1.000000
arena_objects
  0 -0.123756 4.456101 61.777943 0.000000 -1.000000 0.000000 0.503489 0.995995 1 0 1.000000
  0 9.319140 4.456101 59.767216 0.000000 -1.000000 0.000000 0.602212 0.985218 1 0 1.000000
  0 16.280331 4.456101 60.062386 0.000000 -1.000000 0.000000 0.674990 0.988392 1 0 1.000000
arena_objects
  0 -0.123756 4.456101 61.777943 0.000000 -1.000000 0.000000 0.503489 0.995995 1 0 1.000000
  0 1.036856 4.456101 58.847466 0.000000 -1.000000 0.000000 0.515623 0.975326 1 0 1.000000
  0 9.319140 4.456101 59.767216 0.000000 -1.000000 0.000000 0.602212 0.985218 1 0 1.000000
arena_objects
  0 -0.123756 4.456101 61.777943 0.000000 -1.000000 0.000000 0.503489 0.995995 1 0 1.000000
  0 -2.759486 4.456101 58.150230 0.000000 -1.000000 0.000000 0.475933 0.967828 1 0 1.000000
  0 1.036856 4.456101 58.847466 0.000000 -1.000000 0.000000 0.515623 0.975326 1 0 1.000000
arena_objects
  0 -0.123756 4.456101 61.777943 0.000000 -1.000000 0.000000 0.503489 0.995995 1 0 1.000000
  0 -7.461990 4.456101 61.865700 0.000000 -1.000000 0.000000 0.433553 0.996939 1 0 1.000000
  0 -2.759486 4.456101 58.150230 0.000000 -1.000000 0.000000 0.475933 0.967828 1 0 1.000000
arena_objects
  0 43.879959 4.456102 30.821041 0.000000 -1.000000 0.000000 0.967907 0.670996 1 0 1.000000
  0 43.041683 4.456102 28.314631 0.000000 -1.000000 0.000000 0.961438 0.640643 1 0 1.000000
  0 47.063946 4.456103 24.462791 0.000000 -1.000000 0.000000 0.990745 0.612423 1 0 1.000000
arena_objects
  0 47.063946 4.456103 24.462791 0.000000 -1.000000 0.000000 0.990745 0.612423 1 0 1.000000
  0 44.773876 4.456102 35.144978 0.000000 -1.000000 0.000000 0.977252 0.717499 1 0 1.000000
  0 43.879959 4.456102 30.821041 0.000000 -1.000000 0.000000 0.967907 0.670996 1 0 1.000000
arena_objects
  0 47.063946 4.456103 24.462791 0.000000 -1.000000 0.000000 0.990745 0.612423 1 0 1.000000
  0 45.314697 4.456102 39.217625 0.000000 -1.000000 0.000000 0.982906 0.761300 1 0 1.000000
  0 44.773876 4.456102 35.144978 0.000000 -1.000000 0.000000 0.977252 0.717499 1 0 1.000000
arena_objects
  0 47.063946 4.456103 24.462791 0.000000 -1.000000 0.000000 0.990745 0.612423 1 0 1.000000
  0 47.528996 4.456101 62.133945 0.000000 -1.000000 0.000000 0.995607 0.999824 1 0 1.000000
  0 45.314697 4.456102 39.217625 0.000000 -1.000000 0.000000 0.982906 0.761300 1 0 1.000000
arena_objects
  0 47.528996 4.456101 62.133945 0.000000 -1.000000 0.000000 0.995607 0.999824 1 0 1.000000
  0 45.501411 4.456102 43.277996 0.000000 -1.000000 0.000000 0.984859 0.804968 1 0 1.000000
  0 45.314697 4.456102 39.217625 0.000000 -1.000000 0.000000 0.982906 0.761300 1 0 1.000000
arena_objects
  0 47.528996 4.456101 62.133945 0.000000 -1.000000 0.000000 0.995607 0.999824 1 0 1.000000
  0 45.219185 4.456102 47.248356 0.000000 -1.000000 0.000000 0.981908 0.847668 1 0 1.000000
  0 45.501411 4.456102 43.277996 0.000000 -1.000000 0.000000 0.984859 0.804968 1 0 1.000000
arena_objects
  0 47.528996 4.456101 62.133945 0.000000 -1.000000 0.000000 0.995607 0.999824 1 0 1.000000
  0 44.694607 4.456101 51.951939 0.000000 -1.000000 0.000000 0.976424 0.898254 1 0 1.000000
  0 45.219185 4.456102 47.248356 0.000000 -1.000000 0.000000 0.981908 0.847668 1 0 1.000000
arena_objects
  0 47.528996 4.456101 62.133945 0.000000 -1.000000 0.000000 0.995607 0.999824 1 0 1.000000
  0 43.061237 4.456101 58.280453 0.000000 -1.000000 0.000000 0.959347 0.966316 1 0 1.000000
  0 44.694607 4.456101 51.951939 0.000000 -1.000000 0.000000 0.976424 0.898254 1 0 1.000000
arena_objects
  0 2.680305 4.456102 27.461012 0.000000 -1.000000 0.000000 0.530881 0.631463 1 0 1.000000
  0 -2.746270 4.456102 28.369795 0.000000 -1.000000 0.000000 0.473580 0.641236 1 0 1.000000
  0 -6.738020 4.456103 24.629862 0.000000 -1.000000 0.000000 0.432873 0.611308 1 0 1.000000
arena_objects
  0 -6.738020 4.456103 24.629862 0.000000 -1.000000 0.000000 0.432873 0.611308 1 0 1.000000
  0 8.778944 4.456103 26.795155 0.000000 -1.000000 0.000000 0.595279 0.624302 1 0 1.000000
  0 2.680305 4.456102 27.461012 0.000000 -1.000000 0.000000 0.530881 0.631463 1 0 1.000000
arena_objects
  0 -6.738020 4.456103 24.629862 0.000000 -1.000000 0.000000 0.432873 0.611308 1 0 1.000000
  0 47.063946 4.456103 24.462791 0.000000 -1.000000 0.000000 0.990745 0.612423 1 0 1.000000
  0 8.778944 4.456103 26.795155 0.000000 -1.000000 0.000000 0.595279 0.624302 1 0 1.000000
arena_objects
  0 47.063946 4.456103 24.462791 0.000000 -1.000000 0.000000 0.990745 0.612423 1 0 1.000000
  0 16.379776 4.456103 26.334236 0.000000 -1.000000 0.000000 0.675539 0.619344 1 0 1.000000
  0 8.778944 4.456103 26.795155 0.000000 -1.000000 0.000000 0.595279 0.624302 1 0 1.000000
arena_objects
  0 47.063946 4.456103 24.462791 0.000000 -1.000000 0.000000 0.990745 0.612423 1 0 1.000000
  0 22.773117 4.456103 26.430727 0.000000 -1.000000 0.000000 0.743048 0.620382 1 0 1.000000
  0 16.379776 4.456103 26.334236 0.000000 -1.000000 0.000000 0.675539 0.619344 1 0 1.000000
arena_objects
  0 47.063946 4.456103 24.462791 0.000000 -1.000000 0.000000 0.990745 0.612423 1 0 1.000000
  0 27.291971 4.456103 26.562187 0.000000 -1.000000 0.000000 0.790764 0.621796 1 0 1.000000
  0 22.773117 4.456103 26.430727 0.000000 -1.000000 0.000000 0.743048 0.620382 1 0 1.000000
arena_objects
  0 47.063946 4.456103 24.462791 0.000000 -1.000000 0.000000 0.990745 0.612423 1 0 1.000000
  0 33.779411 4.456103 26.977705 0.000000 -1.000000 0.000000 0.859268 0.626265 1 0 1.000000
  0 27.291971 4.456103 26.562187 0.000000 -1.000000 0.000000 0.790764 0.621796 1 0 1.000000
arena_objects
  0 47.063946 4.456103 24.462791 0.000000 -1.000000 0.000000 0.990745 0.612423 1 0 1.000000
  0 39.617424 4.456102 27.749256 0.000000 -1.000000 0.000000 0.920913 0.634563 1 0 1.000000
  0 33.779411 4.456103 26.977705 0.000000 -1.000000 0.000000 0.859268 0.626265 1 0 1.000000
arena_objects
  0 47.063946 4.456103 24.462791 0.000000 -1.000000 0.000000 0.990745 0.612423 1 0 1.000000
  0 43.041683 4.456102 28.314631 0.000000 -1.000000 0.000000 0.957071 0.640643 1 0 1.000000
  0 39.617424 4.456102 27.749256 0.000000 -1.000000 0.000000 0.920913 0.634563 1 0 1.000000
arena_objects
  0 -4.214651 4.456101 52.371597 0.000000 -1.000000 0.000000 0.456837 0.902768 1 0 1.000000
  0 -2.759486 4.456101 58.150230 0.000000 -1.000000 0.000000 0.472051 0.964916 1 0 1.000000
  0 -7.461990 4.456101 61.865700 0.000000 -1.000000 0.000000 0.433553 0.996939 1 0 1.000000
arena_objects
  0 -7.461990 4.456101 61.865700 0.000000 -1.000000 0.000000 0.433553 0.996939 1 0 1.000000
  0 -4.964546 4.456102 45.972771 0.000000 -1.000000 0.000000 0.448997 0.833950 1 0 1.000000
  0 -4.214651 4.456101 52.371597 0.000000 -1.000000 0.000000 0.456837 0.902768 1 0 1.000000
arena_objects
  0 -7.461990 4.456101 61.865700 0.000000 -1.000000 0.000000 0.433553 0.996939 1 0 1.000000
  0 -6.738020 4.456103 24.629862 0.000000 -1.000000 0.000000 0.432873 0.611308 1 0 1.000000
  0 -4.964546 4.456102 45.972771 0.000000 -1.000000 0.000000 0.448997 0.833950 1 0 1.000000
arena_objects
  0 -6.738020 4.456103 24.629862 0.000000 -1.000000 0.000000 0.432873 0.611308 1 0 1.000000
  0 -5.188518 4.456102 41.571053 0.000000 -1.000000 0.000000 0.446656 0.786610 1 0 1.000000
  0 -4.964546 4.456102 45.972771 0.000000 -1.000000 0.000000 0.448997 0.833950 1 0 1.000000
arena_objects
  0 -6.738020 4.456103 24.629862 0.000000 -1.000000 0.000000 0.432873 0.611308 1 0 1.000000
  0 -4.967723 4.456102 38.390343 0.000000 -1.000000 0.000000 0.448964 0.752402 1 0 1.000000
  0 -5.188518 4.456102 41.571053 0.000000 -1.000000 0.000000 0.446656 0.786610 1 0 1.000000
arena_objects
  0 -6.738020 4.456103 24.629862 0.000000 -1.000000 0.000000 0.432873 0.611308 1 0 1.000000
  0 -3.571169 4.456102 31.130342 0.000000 -1.000000 0.000000 0.463565 0.674323 1 0 1.000000
  0 -4.967723 4.456102 38.390343 0.000000 -1.000000 0.000000 0.448964 0.752402 1 0 1.000000
arena_objects
  0 -6.738020 4.456103 24.629862 0.000000 -1.000000 0.000000 0.432873 0.611308 1 0 1.000000
  0 -2.746270 4.456102 28.369795 0.000000 -1.000000 0.000000 0.469698 0.641236 1 0 1.000000
  0 -3.571169 4.456102 31.130342 0.000000 -1.000000 0.000000 0.463565 0.674323 1 0 1.000000
arena_objects
  0 41.797146 3.767336 26.920872 0.000000 -1.000000 0.000000 0.865478 0.599181 1 0 1.000000
  0 42.441704 3.767336 27.058767 0.000000 -1.000000 0.000000 0.879307 0.602139 1 0 1.000000
  0 42.222065 3.767336 27.062479 0.000000 -1.000000 0.000000 0.874595 0.602219 1 0 1.000000
arena_objects
  0 41.797146 3.767336 26.920872 0.000000 -1.000000 0.000000 0.865478 0.599181 1 0 1.000000
  0 42.710739 3.767336 26.995743 0.000000 -1.000000 0.000000 0.885080 0.600787 1 0 1.000000
  0 42.441704 3.767336 27.058767 0.000000 -1.000000 0.000000 0.879307 0.602139 1 0 1.000000
arena_objects
  0 41.797146 3.767336 26.920872 0.000000 -1.000000 0.000000 0.865478 0.599181 1 0 1.000000
  0 43.000668 3.767336 26.806673 0.000000 -1.000000 0.000000 0.891300 0.596731 1 0 1.000000
  0 42.710739 3.767336 26.995743 0.000000 -1.000000 0.000000 0.885080 0.600787 1 0 1.000000
arena_objects
  0 41.797146 3.767336 26.920872 0.000000 -1.000000 0.000000 0.865478 0.599181 1 0 1.000000
  0 43.175671 3.767336 26.554579 0.000000 -1.000000 0.000000 0.895055 0.591322 1 0 1.000000
  0 43.000668 3.767336 26.806673 0.000000 -1.000000 0.000000 0.891300 0.596731 1 0 1.000000
arena_objects
  0 41.797146 3.767336 26.920872 0.000000 -1.000000 0.000000 0.865478 0.599181 1 0 1.000000
  0 43.222683 3.767336 26.260469 0.000000 -1.000000 0.000000 0.896064 0.585011 1 0 1.000000
  0 43.175671 3.767336 26.554579 0.000000 -1.000000 0.000000 0.895055 0.591322 1 0 1.000000
arena_objects
  0 41.797146 3.767336 26.920872 0.000000 -1.000000 0.000000 0.865478 0.599181 1 0 1.000000
  0 43.191341 3.767336 26.029383 0.000000 -1.000000 0.000000 0.895391 0.580053 1 0 1.000000
  0 43.222683 3.767336 26.260469 0.000000 -1.000000 0.000000 0.896064 0.585011 1 0 1.000000
arena_objects
  0 41.797146 3.767336 26.920872 0.000000 -1.000000 0.000000 0.865478 0.599181 1 0 1.000000
  0 43.047173 3.767336 25.670128 0.000000 -1.000000 0.000000 0.892298 0.572345 1 0 1.000000
  0 43.191341 3.767336 26.029383 0.000000 -1.000000 0.000000 0.895391 0.580053 1 0 1.000000
arena_objects
  0 41.797146 3.767336 26.920872 0.000000 -1.000000 0.000000 0.865478 0.599181 1 0 1.000000
  0 42.761646 3.767336 25.453138 0.000000 -1.000000 0.000000 0.886172 0.567689 1 0 1.000000
  0 43.047173 3.767336 25.670128 0.000000 -1.000000 0.000000 0.892298 0.572345 1 0 1.000000
arena_objects
  0 41.797146 3.767336 26.920872 0.000000 -1.000000 0.000000 0.865478 0.599181 1 0 1.000000
  0 42.424408 3.767336 25.362726 0.000000 -1.000000 0.000000 0.878936 0.565749 1 0 1.000000
  0 42.761646 3.767336 25.453138 0.000000 -1.000000 0.000000 0.886172 0.567689 1 0 1.000000
arena_objects
  0 41.797146 3.767336 26.920872 0.000000 -1.000000 0.000000 0.865478 0.599181 1 0 1.000000
  0 42.145626 3.767336 25.362726 0.000000 -1.000000 0.000000 0.872955 0.565749 1 0 1.000000
  0 42.424408 3.767336 25.362726 0.000000 -1.000000 0.000000 0.878936 0.565749 1 0 1.000000
arena_objects
  0 41.797146 3.767336 26.920872 0.000000 -1.000000 0.000000 0.865478 0.599181 1 0 1.000000
  0 41.776913 3.767336 25.525469 0.000000 -1.000000 0.000000 0.865043 0.569241 1 0 1.000000
  0 42.145626 3.767336 25.362726 0.000000 -1.000000 0.000000 0.872955 0.565749 1 0 1.000000
arena_objects
  0 41.797146 3.767336 26.920872 0.000000 -1.000000 0.000000 0.865478 0.599181 1 0 1.000000
  0 41.574570 3.767336 25.742458 0.000000 -1.000000 0.000000 0.860702 0.573897 1 0 1.000000
  0 41.776913 3.767336 25.525469 0.000000 -1.000000 0.000000 0.865043 0.569241 1 0 1.000000
arena_objects
  0 41.797146 3.767336 26.920872 0.000000 -1.000000 0.000000 0.865478 0.599181 1 0 1.000000
  0 41.435177 3.767336 26.067944 0.000000 -1.000000 0.000000 0.857711 0.580880 1 0 1.000000
  0 41.574570 3.767336 25.742458 0.000000 -1.000000 0.000000 0.860702 0.573897 1 0 1.000000
arena_objects
  0 41.797146 3.767336 26.920872 0.000000 -1.000000 0.000000 0.865478 0.599181 1 0 1.000000
  0 41.432930 3.767336 26.266850 0.000000 -1.000000 0.000000 0.857663 0.585148 1 0 1.000000
  0 41.435177 3.767336 26.067944 0.000000 -1.000000 0.000000 0.857711 0.580880 1 0 1.000000
arena_objects
  0 41.797146 3.767336 26.920872 0.000000 -1.000000 0.000000 0.865478 0.599181 1 0 1.000000
  0 41.466652 3.767336 26.465757 0.000000 -1.000000 0.000000 0.858386 0.589416 1 0 1.000000
  0 41.432930 3.767336 26.266850 0.000000 -1.000000 0.000000 0.857663 0.585148 1 0 1.000000
arena_objects
  0 41.797146 3.767336 26.920872 0.000000 -1.000000 0.000000 0.865478 0.599181 1 0 1.000000
  0 41.626278 3.767336 26.755077 0.000000 -1.000000 0.000000 0.861811 0.595624 1 0 1.000000
  0 41.466652 3.767336 26.465757 0.000000 -1.000000 0.000000 0.858386 0.589416 1 0 1.000000
arena_objects
  0 41.154774 4.821465 25.169682 0.000000 -1.000000 0.000000 0.865478 0.599181 1 0 1.000000
  0 41.978317 4.821465 25.278193 0.000000 -1.000000 0.000000 0.879307 0.602139 1 0 1.000000
  0 41.697685 4.821465 25.281115 0.000000 -1.000000 0.000000 0.874595 0.602219 1 0 1.000000
arena_objects
  0 41.154774 4.821465 25.169682 0.000000 -1.000000 0.000000 0.865478 0.599181 1 0 1.000000
  0 42.322056 4.821465 25.228600 0.000000 -1.000000 0.000000 0.885080 0.600787 1 0 1.000000
  0 41.978317 4.821465 25.278193 0.000000 -1.000000 0.000000 0.879307 0.602139 1 0 1.000000
arena_objects
  0 41.154774 4.821465 25.169682 0.000000 -1.000000 0.000000 0.865478 0.599181 1 0 1.000000
  0 42.692493 4.821465 25.079815 0.000000 -1.000000 0.000000 0.891300 0.596731 1 0 1.000000
  0 42.322056 4.821465 25.228600 0.000000 -1.000000 0.000000 0.885080 0.600787 1 0 1.000000
arena_objects
  0 41.154774 4.821465 25.169682 0.000000 -1.000000 0.000000 0.865478 0.599181 1 0 1.000000
  0 42.916092 4.821465 24.881437 0.000000 -1.000000 0.000000 0.895055 0.591322 1 0 1.000000
  0 42.692493 4.821465 25.079815 0.000000 -1.000000 0.000000 0.891300 0.596731 1 0 1.000000
arena_objects
  0 41.154774 4.821465 25.169682 0.000000 -1.000000 0.000000 0.865478 0.599181 1 0 1.000000
  0 42.976162 4.821465 24.649996 0.000000 -1.000000 0.000000 0.896064 0.585011 1 0 1.000000
  0 42.916092 4.821465 24.881437 0.000000 -1.000000 0.000000 0.895055 0.591322 1 0 1.000000
arena_objects
  0 41.154774 4.821465 25.169682 0.000000 -1.000000 0.000000 0.865478 0.599181 1 0 1.000000
  0 42.936115 4.821465 24.468149 0.000000 -1.000000 0.000000 0.895391 0.580053 1 0 1.000000
  0 42.976162 4.821465 24.649996 0.000000 -1.000000 0.000000 0.896064 0.585011 1 0 1.000000
arena_objects
  0 41.154774 4.821465 25.169682 0.000000 -1.000000 0.000000 0.865478 0.599181 1 0 1.000000
  0 42.751915 4.821465 24.185446 0.000000 -1.000000 0.000000 0.892298 0.572345 1 0 1.000000
  0 42.936115 4.821465 24.468149 0.000000 -1.000000 0.000000 0.895391 0.580053 1 0 1.000000
arena_objects
  0 41.154774 4.821465 25.169682 0.000000 -1.000000 0.000000 0.865478 0.599181 1 0 1.000000
  0 42.353844 4.821465 24.009201 0.000000 -1.000000 0.000000 0.886172 0.567689 1 0 1.000000
  0 42.751915 4.821465 24.185446 0.000000 -1.000000 0.000000 0.892298 0.572345 1 0 1.000000
arena_objects
  0 42.353844 4.821465 24.009201 0.000000 -1.000000 0.000000 0.886172 0.567689 1 0 1.000000
  0 42.075283 4.821465 23.186623 0.000000 -1.000000 0.000000 0.878936 0.565749 1 0 1.000000
  0 42.587563 4.821465 23.271210 0.000000 -1.000000 0.000000 0.886172 0.567689 1 0 1.000000
arena_objects
  0 42.353844 4.821465 24.009201 0.000000 -1.000000 0.000000 0.886172 0.567689 1 0 1.000000
  0 41.989471 4.821465 23.949036 0.000000 -1.000000 0.000000 0.878936 0.565749 1 0 1.000000
  0 42.075283 4.821465 23.186623 0.000000 -1.000000 0.000000 0.878936 0.565749 1 0 1.000000
arena_objects
  0 41.154774 4.821465 25.169682 0.000000 -1.000000 0.000000 0.865478 0.599181 1 0 1.000000
  0 41.989471 4.821465 23.949036 0.000000 -1.000000 0.000000 0.878936 0.565749 1 0 1.000000
  0 42.353844 4.821465 24.009201 0.000000 -1.000000 0.000000 0.886172 0.567689 1 0 1.000000
arena_objects
  0 41.154774 4.821465 25.169682 0.000000 -1.000000 0.000000 0.865478 0.599181 1 0 1.000000
  0 41.600021 4.821465 23.943544 0.000000 -1.000000 0.000000 0.872955 0.565749 1 0 1.000000
  0 41.989471 4.821465 23.949036 0.000000 -1.000000 0.000000 0.878936 0.565749 1 0 1.000000
arena_objects
  0 41.154774 4.821465 25.169682 0.000000 -1.000000 0.000000 0.865478 0.599181 1 0 1.000000
  0 41.128922 4.821465 24.071609 0.000000 -1.000000 0.000000 0.865043 0.569241 1 0 1.000000
  0 41.600021 4.821465 23.943544 0.000000 -1.000000 0.000000 0.872955 0.565749 1 0 1.000000
arena_objects
  0 41.154774 4.821465 25.169682 0.000000 -1.000000 0.000000 0.865478 0.599181 1 0 1.000000
  0 40.870392 4.821465 24.242363 0.000000 -1.000000 0.000000 0.860702 0.573897 1 0 1.000000
  0 41.128922 4.821465 24.071609 0.000000 -1.000000 0.000000 0.865043 0.569241 1 0 1.000000
arena_objects
  0 41.154774 4.821465 25.169682 0.000000 -1.000000 0.000000 0.865478 0.599181 1 0 1.000000
  0 40.692291 4.821465 24.498493 0.000000 -1.000000 0.000000 0.857711 0.580880 1 0 1.000000
  0 40.870392 4.821465 24.242363 0.000000 -1.000000 0.000000 0.860702 0.573897 1 0 1.000000
arena_objects
  0 41.154774 4.821465 25.169682 0.000000 -1.000000 0.000000 0.865478 0.599181 1 0 1.000000
  0 40.689419 4.821465 24.655018 0.000000 -1.000000 0.000000 0.857663 0.585148 1 0 1.000000
  0 40.692291 4.821465 24.498493 0.000000 -1.000000 0.000000 0.857711 0.580880 1 0 1.000000
arena_objects
  0 41.154774 4.821465 25.169682 0.000000 -1.000000 0.000000 0.865478 0.599181 1 0 1.000000
  0 40.732510 4.821465 24.811543 0.000000 -1.000000 0.000000 0.858386 0.589416 1 0 1.000000
  0 40.689419 4.821465 24.655018 0.000000 -1.000000 0.000000 0.857663 0.585148 1 0 1.000000
arena_objects
  0 41.154774 4.821465 25.169682 0.000000 -1.000000 0.000000 0.865478 0.599181 1 0 1.000000
  0 40.936459 4.821465 25.039213 0.000000 -1.000000 0.000000 0.861811 0.595624 1 0 1.000000
  0 40.732510 4.821465 24.811543 0.000000 -1.000000 0.000000 0.858386 0.589416 1 0 1.000000
arena_objects
  0 39.398735 3.767336 26.920872 0.000000 -1.000000 0.000000 0.865478 0.599181 1 0 1.000000
  0 40.043293 3.767336 27.058767 0.000000 -1.000000 0.000000 0.879307 0.602139 1 0 1.000000
  0 39.823654 3.767336 27.062479 0.000000 -1.000000 0.000000 0.874595 0.602219 1 0 1.000000
arena_objects
  0 39.398735 3.767336 26.920872 0.000000 -1.000000 0.000000 0.865478 0.599181 1 0 1.000000
  0 40.312325 3.767336 26.995743 0.000000 -1.000000 0.000000 0.885080 0.600787 1 0 1.000000
  0 40.043293 3.767336 27.058767 0.000000 -1.000000 0.000000 0.879307 0.602139 1 0 1.000000
arena_objects
  0 39.398735 3.767336 26.920872 0.000000 -1.000000 0.000000 0.865478 0.599181 1 0 1.000000
  0 40.602253 3.767336 26.806673 0.000000 -1.000000 0.000000 0.891300 0.596731 1 0 1.000000
  0 40.312325 3.767336 26.995743 0.000000 -1.000000 0.000000 0.885080 0.600787 1 0 1.000000
arena_objects
  0 39.398735 3.767336 26.920872 0.000000 -1.000000 0.000000 0.865478 0.599181 1 0 1.000000
  0 40.777256 3.767336 26.554579 0.000000 -1.000000 0.000000 0.895055 0.591322 1 0 1.000000
  0 40.602253 3.767336 26.806673 0.000000 -1.000000 0.000000 0.891300 0.596731 1 0 1.000000
arena_objects
  0 39.398735 3.767336 26.920872 0.000000 -1.000000 0.000000 0.865478 0.599181 1 0 1.000000
  0 40.824272 3.767336 26.260469 0.000000 -1.000000 0.000000 0.896064 0.585011 1 0 1.000000
  0 40.777256 3.767336 26.554579 0.000000 -1.000000 0.000000 0.895055 0.591322 1 0 1.000000
arena_objects
  0 39.398735 3.767336 26.920872 0.000000 -1.000000 0.000000 0.865478 0.599181 1 0 1.000000
  0 40.792927 3.767336 26.029383 0.000000 -1.000000 0.000000 0.895391 0.580053 1 0 1.000000
  0 40.824272 3.767336 26.260469 0.000000 -1.000000 0.000000 0.896064 0.585011 1 0 1.000000
arena_objects
  0 39.398735 3.767336 26.920872 0.000000 -1.000000 0.000000 0.865478 0.599181 1 0 1.000000
  0 40.648762 3.767336 25.670128 0.000000 -1.000000 0.000000 0.892298 0.572345 1 0 1.000000
  0 40.792927 3.767336 26.029383 0.000000 -1.000000 0.000000 0.895391 0.580053 1 0 1.000000
arena_objects
  0 39.398735 3.767336 26.920872 0.000000 -1.000000 0.000000 0.865478 0.599181 1 0 1.000000
  0 40.363232 3.767336 25.453138 0.000000 -1.000000 0.000000 0.886172 0.567689 1 0 1.000000
  0 40.648762 3.767336 25.670128 0.000000 -1.000000 0.000000 0.892298 0.572345 1 0 1.000000
arena_objects
  0 39.398735 3.767336 26.920872 0.000000 -1.000000 0.000000 0.865478 0.599181 1 0 1.000000
  0 40.025993 3.767336 25.362726 0.000000 -1.000000 0.000000 0.878936 0.565749 1 0 1.000000
  0 40.363232 3.767336 25.453138 0.000000 -1.000000 0.000000 0.886172 0.567689 1 0 1.000000
arena_objects
  0 39.398735 3.767336 26.920872 0.000000 -1.000000 0.000000 0.865478 0.599181 1 0 1.000000
  0 39.747211 3.767336 25.362726 0.000000 -1.000000 0.000000 0.872955 0.565749 1 0 1.000000
  0 40.025993 3.767336 25.362726 0.000000 -1.000000 0.000000 0.878936 0.565749 1 0 1.000000
arena_objects
  0 39.398735 3.767336 26.920872 0.000000 -1.000000 0.000000 0.865478 0.599181 1 0 1.000000
  0 39.378498 3.767336 25.525469 0.000000 -1.000000 0.000000 0.865043 0.569241 1 0 1.000000
  0 39.747211 3.767336 25.362726 0.000000 -1.000000 0.000000 0.872955 0.565749 1 0 1.000000
arena_objects
  0 39.398735 3.767336 26.920872 0.000000 -1.000000 0.000000 0.865478 0.599181 1 0 1.000000
  0 39.176155 3.767336 25.742458 0.000000 -1.000000 0.000000 0.860702 0.573897 1 0 1.000000
  0 39.378498 3.767336 25.525469 0.000000 -1.000000 0.000000 0.865043 0.569241 1 0 1.000000
arena_objects
  0 39.398735 3.767336 26.920872 0.000000 -1.000000 0.000000 0.865478 0.599181 1 0 1.000000
  0 39.036766 3.767336 26.067944 0.000000 -1.000000 0.000000 0.857711 0.580880 1 0 1.000000
  0 39.176155 3.767336 25.742458 0.000000 -1.000000 0.000000 0.860702 0.573897 1 0 1.000000
arena_objects
  0 39.398735 3.767336 26.920872 0.000000 -1.000000 0.000000 0.865478 0.599181 1 0 1.000000
  0 39.034515 3.767336 26.266850 0.000000 -1.000000 0.000000 0.857663 0.585148 1 0 1.000000
  0 39.036766 3.767336 26.067944 0.000000 -1.000000 0.000000 0.857711 0.580880 1 0 1.000000
arena_objects
  0 39.398735 3.767336 26.920872 0.000000 -1.000000 0.000000 0.865478 0.599181 1 0 1.000000
  0 39.068241 3.767336 26.465757 0.000000 -1.000000 0.000000 0.858386 0.589416 1 0 1.000000
  0 39.034515 3.767336 26.266850 0.000000 -1.000000 0.000000 0.857663 0.585148 1 0 1.000000
arena_objects
  0 39.398735 3.767336 26.920872 0.000000 -1.000000 0.000000 0.865478 0.599181 1 0 1.000000
  0 39.227867 3.767336 26.755077 0.000000 -1.000000 0.000000 0.861811 0.595624 1 0 1.000000
  0 39.068241 3.767336 26.465757 0.000000 -1.000000 0.000000 0.858386 0.589416 1 0 1.000000
arena_screen
  0 43.879959 4.456102 30.821041 0.000000 -1.000000 0.000000 0.961575 0.672661 1 0 1.000000
  0 29.493956 4.456101 59.872570 0.000000 -1.000000 0.000000 0.812497 0.981447 1 0 1.000000
  0 22.010601 4.456101 60.164845 0.000000 -1.000000 0.000000 0.734950 0.984553 1 0 1.000000
arena_screen
  0 43.879959 4.456102 30.821041 0.000000 -1.000000 0.000000 0.961575 0.672661 1 0 1.000000
  0 36.691475 4.456101 59.230831 0.000000 -1.000000 0.000000 0.887083 0.974626 1 0 1.000000
  0 29.493956 4.456101 59.872570 0.000000 -1.000000 0.000000 0.812497 0.981447 1 0 1.000000
arena_screen
  0 43.879959 4.456102 30.821041 0.000000 -1.000000 0.000000 0.961575 0.672661 1 0 1.000000
  0 42.005836 4.456101 58.516682 0.000000 -1.000000 0.000000 0.942154 0.967035 1 0 1.000000
  0 36.691475 4.456101 59.230831 0.000000 -1.000000 0.000000 0.887083 0.974626 1 0 1.000000
arena_screen
  0 43.879959 4.456102 30.821041 0.000000 -1.000000 0.000000 0.961575 0.672661 1 0 1.000000
  0 43.061237 4.456101 58.280453 0.000000 -1.000000 0.000000 0.953090 0.964524 1 0 1.000000
  0 42.005836 4.456101 58.516682 0.000000 -1.000000 0.000000 0.942154 0.967035 1 0 1.000000
arena_screen
  0 43.879959 4.456102 30.821041 0.000000 -1.000000 0.000000 0.961575 0.672661 1 0 1.000000
  0 44.694607 4.456101 51.951939 0.000000 -1.000000 0.000000 0.970016 0.897259 1 0 1.000000
  0 43.061237 4.456101 58.280453 0.000000 -1.000000 0.000000 0.953090 0.964524 1 0 1.000000
arena_screen
  0 43.879959 4.456102 30.821041 0.000000 -1.000000 0.000000 0.961575 0.672661 1 0 1.000000
  0 45.219185 4.456102 47.248356 0.000000 -1.000000 0.000000 0.975452 0.847265 1 0 1.000000
  0 44.694607 4.456101 51.951939 0.000000 -1.000000 0.000000 0.970016 0.897259 1 0 1.000000
arena_screen
  0 43.879959 4.456102 30.821041 0.000000 -1.000000 0.000000 0.961575 0.672661 1 0 1.000000
  0 45.501411 4.456102 43.277996 0.000000 -1.000000 0.000000 0.978377 0.805064 1 0 1.000000
  0 45.219185 4.456102 47.248356 0.000000 -1.000000 0.000000 0.975452 0.847265 1 0 1.000000
arena_screen
  0 43.879959 4.456102 30.821041 0.000000 -1.000000 0.000000 0.961575 0.672661 1 0 1.000000
  0 45.314697 4.456102 39.217625 0.000000 -1.000000 0.000000 0.976442 0.761907 1 0 1.000000
  0 45.501411 4.456102 43.277996 0.000000 -1.000000 0.000000 0.978377 0.805064 1 0 1.000000
arena_screen
  0 43.879959 4.456102 30.821041 0.000000 -1.000000 0.000000 0.961575 0.672661 1 0 1.000000
  0 44.773876 4.456102 35.144978 0.000000 -1.000000 0.000000 0.970838 0.718619 1 0 1.000000
  0 45.314697 4.456102 39.217625 0.000000 -1.000000 0.000000 0.976442 0.761907 1 0 1.000000
arena_screen
  0 43.879959 4.456102 30.821041 0.000000 -1.000000 0.000000 0.961575 0.672661 1 0 1.000000
  0 39.617424 4.456102 27.749256 0.000000 -1.000000 0.000000 0.917403 0.640011 1 0 1.000000
  0 43.041683 4.456102 28.314631 0.000000 -1.000000 0.000000 0.952888 0.646020 1 0 1.000000
arena_screen
  0 43.879959 4.456102 30.821041 0.000000 -1.000000 0.000000 0.961575 0.672661 1 0 1.000000
  0 33.779411 4.456103 26.977705 0.000000 -1.000000 0.000000 0.856906 0.631810 1 0 1.000000
  0 39.617424 4.456102 27.749256 0.000000 -1.000000 0.000000 0.917403 0.640011 1 0 1.000000
arena_screen
  0 43.879959 4.456102 30.821041 0.000000 -1.000000 0.000000 0.961575 0.672661 1 0 1.000000
  0 27.291971 4.456103 26.562187 0.000000 -1.000000 0.000000 0.789679 0.627394 1 0 1.000000
  0 33.779411 4.456103 26.977705 0.000000 -1.000000 0.000000 0.856906 0.631810 1 0 1.000000
arena_screen
  0 43.879959 4.456102 30.821041 0.000000 -1.000000 0.000000 0.961575 0.672661 1 0 1.000000
  0 22.773117 4.456103 26.430727 0.000000 -1.000000 0.000000 0.742851 0.625996 1 0 1.000000
  0 27.291971 4.456103 26.562187 0.000000 -1.000000 0.000000 0.789679 0.627394 1 0 1.000000
arena_screen
  0 43.879959 4.456102 30.821041 0.000000 -1.000000 0.000000 0.961575 0.672661 1 0 1.000000
  0 16.379776 4.456103 26.334236 0.000000 -1.000000 0.000000 0.676599 0.624971 1 0 1.000000
  0 22.773117 4.456103 26.430727 0.000000 -1.000000 0.000000 0.742851 0.625996 1 0 1.000000
arena_screen
  0 43.879959 4.456102 30.821041 0.000000 -1.000000 0.000000 0.961575 0.672661 1 0 1.000000
  0 8.778944 4.456103 26.795155 0.000000 -1.000000 0.000000 0.597835 0.629870 1 0 1.000000
  0 16.379776 4.456103 26.334236 0.000000 -1.000000 0.000000 0.676599 0.624971 1 0 1.000000
arena_screen
  0 43.879959 4.456102 30.821041 0.000000 -1.000000 0.000000 0.961575 0.672661 1 0 1.000000
  0 2.680305 4.456102 27.461012 0.000000 -1.000000 0.000000 0.534636 0.636947 1 0 1.000000
  0 8.778944 4.456103 26.795155 0.000000 -1.000000 0.000000 0.597835 0.629870 1 0 1.000000
arena_screen
  0 43.879959 4.456102 30.821041 0.000000 -1.000000 0.000000 0.961575 0.672661 1 0 1.000000
  0 -2.746270 4.456102 28.369795 0.000000 -1.000000 0.000000 0.478403 0.646607 1 0 1.000000
  0 2.680305 4.456102 27.461012 0.000000 -1.000000 0.000000 0.534636 0.636947 1 0 1.000000
arena_screen
  0 43.879959 4.456102 30.821041 0.000000 -1.000000 0.000000 0.961575 0.672661 1 0 1.000000
  0 -3.571169 4.456102 31.130342 0.000000 -1.000000 0.000000 0.469855 0.675948 1 0 1.000000
  0 -2.746270 4.456102 28.369795 0.000000 -1.000000 0.000000 0.478403 0.646607 1 0 1.000000
arena_screen
  0 43.879959 4.456102 30.821041 0.000000 -1.000000 0.000000 0.961575 0.672661 1 0 1.000000
  0 -4.967723 4.456102 38.390343 0.000000 -1.000000 0.000000 0.455382 0.753114 1 0 1.000000
  0 -3.571169 4.456102 31.130342 0.000000 -1.000000 0.000000 0.469855 0.675948 1 0 1.000000
arena_screen
  0 43.879959 4.456102 30.821041 0.000000 -1.000000 0.000000 0.961575 0.672661 1 0 1.000000
  0 -5.188518 4.456102 41.571053 0.000000 -1.000000 0.000000 0.453094 0.786922 1 0 1.000000
  0 -4.967723 4.456102 38.390343 0.000000 -1.000000 0.000000 0.455382 0.753114 1 0 1.000000
arena_screen
  0 43.879959 4.456102 30.821041 0.000000 -1.000000 0.000000 0.961575 0.672661 1 0 1.000000
  0 -4.964546 4.456102 45.972771 0.000000 -1.000000 0.000000 0.455415 0.833707 1 0 1.000000
  0 -5.188518 4.456102 41.571053 0.000000 -1.000000 0.000000 0.453094 0.786922 1 0 1.000000
arena_screen
  0 43.879959 4.456102 30.821041 0.000000 -1.000000 0.000000 0.961575 0.672661 1 0 1.000000
  0 -4.214651 4.456101 52.371597 0.000000 -1.000000 0.000000 0.463186 0.901720 1 0 1.000000
  0 -4.964546 4.456102 45.972771 0.000000 -1.000000 0.000000 0.455415 0.833707 1 0 1.000000
arena_screen
  0 43.879959 4.456102 30.821041 0.000000 -1.000000 0.000000 0.961575 0.672661 1 0 1.000000
  0 -2.759486 4.456101 58.150230 0.000000 -1.000000 0.000000 0.478266 0.963140 1 0 1.000000
  0 -4.214651 4.456101 52.371597 0.000000 -1.000000 0.000000 0.463186 0.901720 1 0 1.000000
arena_screen
  0 43.879959 4.456102 30.821041 0.000000 -1.000000 0.000000 0.961575 0.672661 1 0 1.000000
  0 1.036856 4.456101 58.847466 0.000000 -1.000000 0.000000 0.517606 0.970551 1 0 1.000000
  0 -2.759486 4.456101 58.150230 0.000000 -1.000000 0.000000 0.478266 0.963140 1 0 1.000000
arena_screen
  0 43.879959 4.456102 30.821041 0.000000 -1.000000 0.000000 0.961575 0.672661 1 0 1.000000
  0 9.319140 4.456101 59.767216 0.000000 -1.000000 0.000000 0.603432 0.980327 1 0 1.000000
  0 1.036856 4.456101 58.847466 0.000000 -1.000000 0.000000 0.517606 0.970551 1 0 1.000000
arena_screen
  0 43.879959 4.456102 30.821041 0.000000 -1.000000 0.000000 0.961575 0.672661 1 0 1.000000
  0 16.280331 4.456101 60.062386 0.000000 -1.000000 0.000000 0.675569 0.983464 1 0 1.000000
  0 9.319140 4.456101 59.767216 0.000000 -1.000000 0.000000 0.603432 0.980327 1 0 1.000000
arena_screen
  0 43.879959 4.456102 30.821041 0.000000 -1.000000 0.000000 0.961575 0.672661 1 0 1.000000
  0 22.010601 4.456101 60.164845 0.000000 -1.000000 0.000000 0.734950 0.984553 1 0 1.000000
  0 16.280331 4.456101 60.062386 0.000000 -1.000000 0.000000 0.675569 0.983464 1 0 1.000000
end
